<svg xmlns="http://www.w3.org/2000/svg" xmlns:xlink="http://www.w3.org/1999/xlink" contentStyleType="text/css" height="508px" preserveAspectRatio="none" style="width:1926px;height:508px;background:#FFFFFF;" version="1.1" viewBox="0 0 1926 508" width="1926px" zoomAndPan="magnify"><title>CamAlert &#8212; Vue de contexte : appel direct (Cas A) et transmission d'un signalement (Cas B)</title><defs/><g><text fill="#000000" font-family="sans-serif" font-size="14" font-weight="bold" lengthAdjust="spacing" textLength="727.8633" x="592.1777" y="22.9951">CamAlert &#8212; Vue de contexte : appel direct (Cas A) et transmission d'un signalement (Cas B)</text><!--cluster CA--><g id="cluster_CA"><rect fill="none" height="181" rx="2.5" ry="2.5" style="stroke:#181818;stroke-width:1.0;" width="1025" x="284" y="188.2969"/><text fill="#000000" font-family="sans-serif" font-size="14" font-weight="bold" lengthAdjust="spacing" textLength="290.1377" x="651.4312" y="203.292">CamAlert (plateforme interm&#233;diaire)</text></g><!--cluster SVC--><g id="cluster_SVC"><rect fill="none" height="296" rx="2.5" ry="2.5" style="stroke:#181818;stroke-width:1.0;" width="264" x="1613.5" y="107.2969"/><text fill="#000000" font-family="sans-serif" font-size="14" font-weight="bold" lengthAdjust="spacing" textLength="206.8486" x="1642.0757" y="122.292">Service sp&#233;cialis&#233; externe</text><text fill="#000000" font-family="sans-serif" font-size="14" font-weight="bold" lengthAdjust="spacing" textLength="240.8096" x="1625.0952" y="138.5889">(Police, Pompiers, Ambulance,</text><text fill="#000000" font-family="sans-serif" font-size="14" font-weight="bold" lengthAdjust="spacing" textLength="223.7813" x="1633.6094" y="154.8857">Protection civile, Secours...)</text></g><!--entity MOB--><g id="elem_MOB"><rect fill="#F1F1F1" height="36.2969" rx="2.5" ry="2.5" style="stroke:#181818;stroke-width:0.5;" width="150.1563" x="300" y="300.2969"/><text fill="#000000" font-family="sans-serif" font-size="14" lengthAdjust="spacing" textLength="130.1563" x="310" y="323.292">Application mobile</text></g><!--entity BACK--><g id="elem_BACK"><rect fill="#F1F1F1" height="68.8906" rx="2.5" ry="2.5" style="stroke:#181818;stroke-width:0.5;" width="197.8369" x="716" y="283.7969"/><text fill="#000000" font-family="sans-serif" font-size="14" lengthAdjust="spacing" textLength="69.5283" x="726" y="306.792">Backend :</text><text fill="#000000" font-family="sans-serif" font-size="14" lengthAdjust="spacing" textLength="177.8369" x="726" y="323.0889">v&#233;rification, qualification,</text><text fill="#000000" font-family="sans-serif" font-size="14" lengthAdjust="spacing" textLength="168.3623" x="726" y="339.3857">identification du service</text></g><!--entity WEB--><g id="elem_WEB"><rect fill="#F1F1F1" height="52.5938" rx="2.5" ry="2.5" style="stroke:#181818;stroke-width:0.5;" width="134.4268" x="1159" y="223.7969"/><text fill="#000000" font-family="sans-serif" font-size="14" lengthAdjust="spacing" textLength="114.0166" x="1169" y="246.792">Application Web</text><text fill="#000000" font-family="sans-serif" font-size="14" lengthAdjust="spacing" textLength="114.4268" x="1169" y="263.0889">d'administration</text></g><!--entity S1--><g id="elem_S1"><rect fill="#F1F1F1" height="36.2969" rx="2.5" ry="2.5" style="stroke:#181818;stroke-width:0.5;" width="168.2578" x="1661.5" y="253.2969"/><text fill="#000000" font-family="sans-serif" font-size="14" lengthAdjust="spacing" textLength="148.2578" x="1671.5" y="276.292">Service t&#233;l&#233;phonique</text></g><!--entity S2--><g id="elem_S2"><rect fill="#F1F1F1" height="36.2969" rx="2.5" ry="2.5" style="stroke:#181818;stroke-width:0.5;" width="203.7979" x="1643.5" y="324.2969"/><text fill="#000000" font-family="sans-serif" font-size="14" lengthAdjust="spacing" textLength="183.7979" x="1653.5" y="347.292">Service partenaire int&#233;gr&#233;</text></g><!--entity S3--><g id="elem_S3"><rect fill="#F1F1F1" height="36.2969" rx="2.5" ry="2.5" style="stroke:#181818;stroke-width:0.5;" width="215.7676" x="1637.5" y="182.2969"/><text fill="#000000" font-family="sans-serif" font-size="14" lengthAdjust="spacing" textLength="195.7676" x="1647.5" y="205.292">Service externe non int&#233;gr&#233;</text></g><!--entity C--><g id="elem_C"><ellipse cx="32.7456" cy="289.7969" fill="#F1F1F1" rx="8" ry="8" style="stroke:#181818;stroke-width:0.5;"/><path d="M32.7456,297.7969 L32.7456,324.7969 M19.7456,305.7969 L45.7456,305.7969 M32.7456,324.7969 L19.7456,339.7969 M32.7456,324.7969 L45.7456,339.7969 " fill="none" style="stroke:#181818;stroke-width:0.5;"/><text fill="#000000" font-family="sans-serif" font-size="14" lengthAdjust="spacing" textLength="53.4912" x="6" y="354.292">Citoyen</text></g><!--entity TEL--><g id="elem_TEL"><rect fill="#F1F1F1" height="36.2969" rx="2.5" ry="2.5" style="stroke:#181818;stroke-width:0.5;" width="168.2168" x="731" y="444.2969"/><text fill="#000000" font-family="sans-serif" font-size="14" lengthAdjust="spacing" textLength="148.2168" x="741" y="467.292">R&#233;seau t&#233;l&#233;phonique</text></g><g id="elem_GMN24"><path d="M1572,43.2969 L1572,83.5625 L1919.2188,83.5625 L1919.2188,53.2969 L1909.2188,43.2969 L1572,43.2969 " fill="#FEFFDD" style="stroke:#181818;stroke-width:0.5;"/><path d="M1909.2188,43.2969 L1909.2188,53.2969 L1919.2188,53.2969 L1909.2188,43.2969 " fill="#FEFFDD" style="stroke:#181818;stroke-width:1.0;"/><text fill="#000000" font-family="sans-serif" font-size="13" lengthAdjust="spacing" textLength="326.2188" x="1578" y="60.3638">CamAlert n'est pas responsable de l'intervention :</text><text fill="#000000" font-family="sans-serif" font-size="13" lengthAdjust="spacing" textLength="274.0918" x="1578" y="75.4966">le service reste ma&#238;tre de ses proc&#233;dures.</text></g><!--link C to MOB--><g id="link_C_MOB"><path d="M59.09,319.2269 C109.59,319.0769 217.74,318.7542 293.83,318.5342 " fill="none" id="C-to-MOB" style="stroke:#181818;stroke-width:1.0;"/><polygon fill="#181818" points="299.83,318.5169,290.8185,314.5429,294.83,318.5313,290.8416,322.5429,299.83,318.5169" style="stroke:#181818;stroke-width:1.0;"/><text fill="#000000" font-family="sans-serif" font-size="13" lengthAdjust="spacing" textLength="177.271" x="90" y="315.3638">(A1) &#171; Appeler un service &#187;</text></g><!--link C to MOB--><g id="link_C_MOB"><path d="M59.26,333.6269 C68.37,337.9469 78.87,342.1269 89,344.2969 C166.78,361.0069 189.02,353.8469 268,344.2969 C282.11,342.5969 291.2085,341.0269 305.2785,337.7269 " fill="none" id="C-to-MOB-1" style="stroke:#181818;stroke-width:1.0;"/><polygon fill="#181818" points="311.12,336.3569,301.4444,334.5177,306.2521,337.4986,303.2712,342.3063,311.12,336.3569" style="stroke:#181818;stroke-width:1.0;"/><text fill="#000000" font-family="sans-serif" font-size="13" lengthAdjust="spacing" textLength="165.147" x="96" y="340.3638">(B1) cr&#233;e un signalement</text></g><!--link MOB to TEL--><g id="link_MOB_TEL"><path d="M431.03,336.3869 C515.24,364.0769 669.4201,414.7631 753.5001,442.4031 " fill="none" id="MOB-to-TEL" style="stroke:#181818;stroke-width:1.0;"/><polygon fill="#181818" points="759.2,444.2769,751.8993,437.6663,754.4501,442.7154,749.401,445.2662,759.2,444.2769" style="stroke:#181818;stroke-width:1.0;"/><text fill="#000000" font-family="sans-serif" font-size="13" lengthAdjust="spacing" textLength="168.1812" x="499" y="348.3638">(A2) lancement de l'appel</text></g><!--link TEL to SVC--><g id="link_TEL_SVC"><path d="M899.13,472.6669 C958.14,479.4869 1039.3,487.7769 1111,491.2969 C1302.92,500.7069 1355.01,501.5369 1542,457.2969 C1587.08,446.6319 1636.84,431.4469 1675.7525,418.7744 C1685.4806,415.6063 1694.5308,412.5952 1702.6604,409.851 C1706.7251,408.4789 1710.5598,407.1735 1714.1339,405.9486 C1715.921,405.3362 1717.643,404.7438 1719.296,404.1733 C1720.1226,403.8881 1715.2622,405.5716 1716.0538,405.2975 " fill="none" id="TEL-to-SVC" style="stroke:#181818;stroke-width:1.0;"/><polygon fill="#181818" points="1721.7235,403.3342,1711.9101,402.4994,1716.9987,404.9703,1714.5278,410.059,1721.7235,403.3342" style="stroke:#181818;stroke-width:1.0;"/><text fill="#000000" font-family="sans-serif" font-size="13" lengthAdjust="spacing" textLength="157.1426" x="1147.5" y="487.3638">(A3) appel t&#233;l&#233;phonique</text></g><!--link MOB to BACK--><g id="link_MOB_BACK"><path d="M450.13,320.6969 C460.17,320.9469 470.34,321.1569 480,321.2969 C571.55,322.6169 594.45,322.3669 686,321.2969 C695.67,321.1869 699.7511,321.1401 709.8211,320.9501 " fill="none" id="MOB-to-BACK" style="stroke:#181818;stroke-width:1.0;"/><polygon fill="#181818" points="715.82,320.8369,706.7461,317.0074,710.8209,320.9312,706.8971,325.0059,715.82,320.8369" style="stroke:#181818;stroke-width:1.0;"/><text fill="#000000" font-family="sans-serif" font-size="13" lengthAdjust="spacing" textLength="204.6167" x="481" y="317.3638">(B2) signalement + localisation</text></g><!--link BACK to MOB--><g id="link_BACK_MOB"><path d="M715.96,303.0869 C705.86,301.9469 695.74,300.9769 686,300.2969 C594.67,293.9069 571.22,292.4569 480,300.2969 C470.32,301.1269 466.136,301.5125 456.156,302.9825 " fill="none" id="BACK-to-MOB" style="stroke:#181818;stroke-width:1.0;stroke-dasharray:7.0,7.0;"/><polygon fill="#181818" points="450.22,303.8569,459.7068,306.5027,455.1666,303.1283,458.541,298.5881,450.22,303.8569" style="stroke:#181818;stroke-width:1.0;"/><text fill="#000000" font-family="sans-serif" font-size="13" lengthAdjust="spacing" textLength="131.7266" x="517.3049" y="276.3638">(B7) notification des</text><text fill="#000000" font-family="sans-serif" font-size="13" lengthAdjust="spacing" textLength="143.3364" x="511.5" y="291.4966">utilisateurs concern&#233;s</text></g><!--link BACK to BACK--><g id="link_BACK_BACK"><path d="M779.65,283.6069 C773.93,265.3469 785.71,248.7969 815,248.7969 C844.29,248.7969 857.8636,259.6212 852.1436,277.8812 " fill="none" id="BACK-to-BACK" style="stroke:#181818;stroke-width:1.0;"/><polygon fill="#181818" points="850.35,283.6069,856.8575,276.2141,851.8446,278.8355,849.2233,273.8227,850.35,283.6069" style="stroke:#181818;stroke-width:1.0;"/><text fill="#000000" font-family="sans-serif" font-size="13" lengthAdjust="spacing" textLength="142.4478" x="743.9443" y="224.8638">(B3) analyse, fiabilit&#233;,</text><text fill="#000000" font-family="sans-serif" font-size="13" lengthAdjust="spacing" textLength="156.3364" x="737" y="239.9966">identification du service</text></g><!--link BACK to S2--><g id="link_BACK_S2"><path d="M914.05,320.8269 C1091.42,325.4169 1457.812,334.8919 1637.402,339.5319 " fill="none" id="BACK-to-S2" style="stroke:#181818;stroke-width:1.0;"/><polygon fill="#181818" points="1643.4,339.6869,1634.5063,335.4558,1638.4017,339.5577,1634.2997,343.4531,1643.4,339.6869" style="stroke:#181818;stroke-width:1.0;"/><text fill="#000000" font-family="sans-serif" font-size="13" lengthAdjust="spacing" textLength="228.7314" x="1112" y="322.3638">(B4a) transmission structur&#233;e (API)</text></g><!--link BACK to WEB--><g id="link_BACK_WEB"><path d="M914.23,301.9669 C989.98,289.3769 1086.7513,273.2809 1152.9713,262.2709 " fill="none" id="BACK-to-WEB" style="stroke:#181818;stroke-width:1.0;stroke-dasharray:7.0,7.0;"/><polygon fill="#181818" points="1158.89,261.2869,1149.3558,258.8172,1153.9577,262.1069,1150.6679,266.7088,1158.89,261.2869" style="stroke:#181818;stroke-width:1.0;"/><text fill="#000000" font-family="sans-serif" font-size="13" lengthAdjust="spacing" textLength="135.9858" x="945" y="257.3638">(B4b) t&#226;che de relais</text><text fill="#000000" font-family="sans-serif" font-size="13" lengthAdjust="spacing" textLength="118.7266" x="953.6296" y="272.4966">pour un op&#233;rateur</text></g><!--link WEB to S1--><g id="link_WEB_S1"><path d="M1293.03,263.6569 C1317.42,267.9669 1345.36,272.1769 1371,274.2969 C1470.52,282.5369 1579.4764,280.0544 1655.2764,276.5444 " fill="none" id="WEB-to-S1" style="stroke:#181818;stroke-width:1.0;stroke-dasharray:7.0,7.0;"/><polygon fill="#181818" points="1661.27,276.2669,1652.0946,272.6875,1656.2754,276.4982,1652.4647,280.6789,1661.27,276.2669" style="stroke:#181818;stroke-width:1.0;"/><text fill="#000000" font-family="sans-serif" font-size="13" lengthAdjust="spacing" textLength="169.7363" x="1372" y="255.3638">(B5) contact t&#233;l&#233;phonique</text><text fill="#000000" font-family="sans-serif" font-size="13" lengthAdjust="spacing" textLength="110.5" x="1401.6182" y="270.4966">par un op&#233;rateur</text></g><!--link WEB to S3--><g id="link_WEB_S3"><path d="M1293.07,243.9169 C1379.99,235.5169 1527.8678,221.2237 1631.5078,211.2137 " fill="none" id="WEB-to-S3" style="stroke:#181818;stroke-width:1.0;stroke-dasharray:7.0,7.0;"/><polygon fill="#181818" points="1637.48,210.6369,1628.1371,207.5206,1632.5032,211.1176,1628.9062,215.4836,1637.48,210.6369" style="stroke:#181818;stroke-width:1.0;"/><text fill="#000000" font-family="sans-serif" font-size="13" lengthAdjust="spacing" textLength="169.7363" x="1372" y="202.3638">(B5) contact t&#233;l&#233;phonique</text><text fill="#000000" font-family="sans-serif" font-size="13" lengthAdjust="spacing" textLength="110.5" x="1401.6182" y="217.4966">par un op&#233;rateur</text></g><!--link SVC to BACK--><g id="link_SVC_BACK"><path d="M1612.4733,396.0565 C1611.6656,396.0529 1610.855,396.0492 1610.0416,396.0453 C1608.4148,396.0375 1606.7767,396.0291 1605.1275,396.0201 C1601.8291,396.0021 1598.4862,395.9815 1595.1006,395.9583 C1588.3294,395.9117 1581.387,395.8545 1574.2862,395.785 C1560.0845,395.6462 1545.2489,395.4587 1529.8813,395.2119 C1406.94,393.2369 1249.945,387.4569 1111,372.2969 C1044.88,365.0869 977.1684,352.8285 920.0284,341.1485 " fill="none" id="SVC-to-BACK" style="stroke:#181818;stroke-width:1.0;stroke-dasharray:7.0,7.0;"/><polygon fill="#181818" points="914.15,339.9469,922.1666,345.6683,919.0487,340.9482,923.7687,337.8303,914.15,339.9469" style="stroke:#181818;stroke-width:1.0;"/><text fill="#000000" font-family="sans-serif" font-size="13" lengthAdjust="spacing" textLength="164.8169" x="1144" y="353.3638">(B6) statut d'intervention</text><text fill="#000000" font-family="sans-serif" font-size="13" lengthAdjust="spacing" textLength="153.5117" x="1149.6526" y="368.4966">(saisi par un op&#233;rateur)</text></g><!--link SVC to GMN24--><g id="link_SVC_GMN24"><path d="M1712.0328,403.4349 C1711.4109,403.5636 1710.7819,403.6926 1710.146,403.8219 C1708.8741,404.0804 1707.5746,404.34 1706.2486,404.5998 C1685.0322,408.7572 1657.0244,412.9787 1626.8388,414.1181 C1566.4675,416.3969 1497.385,406.3469 1456.5,358.7969 C1405.79,299.8269 1413.36,248.5169 1456.5,183.7969 C1492.6,129.6269 1558.17,99.7669 1617.73,83.3369 " fill="none" id="SVC-GMN24" style="stroke:#181818;stroke-width:1.0;stroke-dasharray:7.0,7.0;"/></g><!--SRC=[bLJDRjD04BxlKunwIIpII6tvaNgev4Gz84141BMNN3Rs95brlUlkhWCLGk8XU8BUB2HUW5lz9Zm9C-iaZKkBnD7hxvlvPkQR2IfeXB4iKeqkmEzlt-6YGiWHCci2VWu8fo3B4ZNaoc4Me3-M7j84C41mqlX2UQ-iWRnN6V1gQQJ60iq6E4g4qBWWh0Mdbgkm2KCCuQ-KAQMJ1VYLpEqdPPQmaDgZ438Bri71M0LxW-O0AD9O22PAioJ11pl5_LBBW0lh2WH5YbtHrBcIb2HfQIby4G1xrBGijSeaIu32pfN627ptVjJ5ZMHsXIQ7qvbPDxLJYmrf0DULrFUVCwDogdVt07a57jrQPMtWKJf-yxI2IvpFJDwJUQ6CyjHHVesyo_EH-Def-aDJUvGLXARMJLskh57NLPlau_dR3dJQ2W1VDdMcIAvlQk1nEeCpqvzO4e03cDYYLEZy0D9YNcbfw75c9iw6TaQGgJKrQ01Jp6pb_70uRDiwlHW_xEisvIFgfaUFGsdw0GqFYsVNr4lNr2tX-772fW8m9Eq1uuIRrOFeJZ66myCp7YcvjvyU9N3t0r9sCJfWcsx2tVqIZ64iDJ1YZnE8ROWMfZNGlUX-mVyPnuKpxYJPh4MttAs4KLV2Y2Ha91MXkoIxz6oI2AJy-qlq3BJDU7pH5oB2EdZMGUWRJqDQA4bsLgJeNwQy3p8zZY6UowIxocJ3AWjLrDjF9w-JbZ8Sdh4fMywSECrjjegtmg6MoizCIHxX2YsvZfoCbHDCOEBqAF9U9F6mq7u_QDoCJy5Jt9F_v_AScBjhr4jgR92Xegdsug5OSt-ieMtm95x1Np7sojwEyLL2rjllAbBLLL1nG4Jnh30ZYzAc2a5GXBaDmHPW5smTSlNkSfaU-a1PFRNFbzPuETVOMcvV7vmIYNviFKjWYbh8vcTm4UxHG-biHdUlefz3mKUBK_y1]--></g></svg>