<svg xmlns="http://www.w3.org/2000/svg" xmlns:xlink="http://www.w3.org/1999/xlink" contentStyleType="text/css" height="1144px" preserveAspectRatio="none" style="width:2032px;height:1144px;background:#FFFFFF;" version="1.1" viewBox="0 0 2032 1144" width="2032px" zoomAndPan="magnify"><title>DS03 &#8212; Cr&#233;ation d'un signalement (application mobile)</title><defs/><g><text fill="#000000" font-family="sans-serif" font-size="14" font-weight="bold" lengthAdjust="spacing" textLength="437.5" x="798.728" y="27.9951">DS03 &#8212; Cr&#233;ation d'un signalement (application mobile)</text><rect fill="none" height="119.3359" style="stroke:#000000;stroke-width:1.5;" width="727.8257" x="10" y="193.8594"/><rect fill="none" height="46.2656" style="stroke:#000000;stroke-width:1.5;" width="515.8804" x="10" y="371.4609"/><rect fill="none" height="515.0313" style="stroke:#000000;stroke-width:1.5;" width="2015.9561" x="10" y="532.125"/><rect fill="none" height="162.7969" style="stroke:#000000;stroke-width:1.5;" width="1424.103" x="361.7241" y="716.7266"/><line style="stroke:#181818;stroke-width:0.5;stroke-dasharray:5.0,5.0;" x1="49" x2="49" y1="118.5938" y2="1064.1563"/><line style="stroke:#181818;stroke-width:0.5;stroke-dasharray:5.0,5.0;" x1="443.7241" x2="443.7241" y1="118.5938" y2="1064.1563"/><line style="stroke:#181818;stroke-width:0.5;stroke-dasharray:5.0,5.0;" x1="667.0483" x2="667.0483" y1="118.5938" y2="1064.1563"/><line style="stroke:#181818;stroke-width:0.5;stroke-dasharray:5.0,5.0;" x1="851.418" x2="851.418" y1="118.5938" y2="1064.1563"/><line style="stroke:#181818;stroke-width:0.5;stroke-dasharray:5.0,5.0;" x1="1142.0801" x2="1142.0801" y1="118.5938" y2="1064.1563"/><line style="stroke:#181818;stroke-width:0.5;stroke-dasharray:5.0,5.0;" x1="1547.9561" x2="1547.9561" y1="118.5938" y2="1064.1563"/><line style="stroke:#181818;stroke-width:0.5;stroke-dasharray:5.0,5.0;" x1="1698.166" x2="1698.166" y1="118.5938" y2="1064.1563"/><line style="stroke:#181818;stroke-width:0.5;stroke-dasharray:5.0,5.0;" x1="1859.8271" x2="1859.8271" y1="118.5938" y2="1064.1563"/><text fill="#000000" font-family="sans-serif" font-size="14" lengthAdjust="spacing" textLength="53.4912" x="20" y="115.292">Citoyen</text><ellipse cx="49.7456" cy="50.7969" fill="#E2E2F0" rx="8" ry="8" style="stroke:#181818;stroke-width:0.5;"/><path d="M49.7456,58.7969 L49.7456,85.7969 M36.7456,66.7969 L62.7456,66.7969 M49.7456,85.7969 L36.7456,100.7969 M49.7456,85.7969 L62.7456,100.7969 " fill="none" style="stroke:#181818;stroke-width:0.5;"/><text fill="#000000" font-family="sans-serif" font-size="14" lengthAdjust="spacing" textLength="53.4912" x="20" y="1076.1514">Citoyen</text><ellipse cx="49.7456" cy="1087.9531" fill="#E2E2F0" rx="8" ry="8" style="stroke:#181818;stroke-width:0.5;"/><path d="M49.7456,1095.9531 L49.7456,1122.9531 M36.7456,1103.9531 L62.7456,1103.9531 M49.7456,1122.9531 L36.7456,1137.9531 M49.7456,1122.9531 L62.7456,1137.9531 " fill="none" style="stroke:#181818;stroke-width:0.5;"/><rect fill="#E2E2F0" height="46.5938" rx="2.5" ry="2.5" style="stroke:#181818;stroke-width:0.5;" width="144.1563" x="371.7241" y="71"/><text fill="#000000" font-family="sans-serif" font-size="14" lengthAdjust="spacing" textLength="130.1563" x="378.7241" y="90.9951">Application mobile</text><text fill="#000000" font-family="sans-serif" font-size="14" lengthAdjust="spacing" textLength="65.3174" x="411.1436" y="107.292">CamAlert</text><rect fill="#E2E2F0" height="46.5938" rx="2.5" ry="2.5" style="stroke:#181818;stroke-width:0.5;" width="144.1563" x="371.7241" y="1063.1563"/><text fill="#000000" font-family="sans-serif" font-size="14" lengthAdjust="spacing" textLength="130.1563" x="378.7241" y="1083.1514">Application mobile</text><text fill="#000000" font-family="sans-serif" font-size="14" lengthAdjust="spacing" textLength="65.3174" x="411.1436" y="1099.4482">CamAlert</text><rect fill="#E2E2F0" height="46.5938" rx="2.5" ry="2.5" style="stroke:#181818;stroke-width:0.5;" width="120.7773" x="607.0483" y="71"/><text fill="#000000" font-family="sans-serif" font-size="14" lengthAdjust="spacing" textLength="88.6006" x="623.1367" y="90.9951">Capteur GPS</text><text fill="#000000" font-family="sans-serif" font-size="14" lengthAdjust="spacing" textLength="106.7773" x="614.0483" y="107.292">du smartphone</text><rect fill="#E2E2F0" height="46.5938" rx="2.5" ry="2.5" style="stroke:#181818;stroke-width:0.5;" width="120.7773" x="607.0483" y="1063.1563"/><text fill="#000000" font-family="sans-serif" font-size="14" lengthAdjust="spacing" textLength="88.6006" x="623.1367" y="1083.1514">Capteur GPS</text><text fill="#000000" font-family="sans-serif" font-size="14" lengthAdjust="spacing" textLength="106.7773" x="614.0483" y="1099.4482">du smartphone</text><rect fill="#E2E2F0" height="46.5938" rx="2.5" ry="2.5" style="stroke:#181818;stroke-width:0.5;" width="105.916" x="799.418" y="71"/><text fill="#000000" font-family="sans-serif" font-size="14" lengthAdjust="spacing" textLength="91.916" x="806.418" y="90.9951">API CamAlert</text><text fill="#000000" font-family="sans-serif" font-size="14" lengthAdjust="spacing" textLength="71.2852" x="816.7334" y="107.292">(Backend)</text><rect fill="#E2E2F0" height="46.5938" rx="2.5" ry="2.5" style="stroke:#181818;stroke-width:0.5;" width="105.916" x="799.418" y="1063.1563"/><text fill="#000000" font-family="sans-serif" font-size="14" lengthAdjust="spacing" textLength="91.916" x="806.418" y="1083.1514">API CamAlert</text><text fill="#000000" font-family="sans-serif" font-size="14" lengthAdjust="spacing" textLength="71.2852" x="816.7334" y="1099.4482">(Backend)</text><rect fill="#E2E2F0" height="46.5938" rx="2.5" ry="2.5" style="stroke:#181818;stroke-width:0.5;" width="164.8828" x="1060.0801" y="71"/><text fill="#000000" font-family="sans-serif" font-size="14" lengthAdjust="spacing" textLength="150.8828" x="1067.0801" y="90.9951">Module Signalements</text><text fill="#000000" font-family="sans-serif" font-size="14" lengthAdjust="spacing" textLength="65.2559" x="1109.8936" y="107.292">(Reports)</text><rect fill="#E2E2F0" height="46.5938" rx="2.5" ry="2.5" style="stroke:#181818;stroke-width:0.5;" width="164.8828" x="1060.0801" y="1063.1563"/><text fill="#000000" font-family="sans-serif" font-size="14" lengthAdjust="spacing" textLength="150.8828" x="1067.0801" y="1083.1514">Module Signalements</text><text fill="#000000" font-family="sans-serif" font-size="14" lengthAdjust="spacing" textLength="65.2559" x="1109.8936" y="1099.4482">(Reports)</text><text fill="#000000" font-family="sans-serif" font-size="14" lengthAdjust="spacing" textLength="120.21" x="1484.9561" y="115.292">Base de donn&#233;es</text><path d="M1530.061,66.2969 C1530.061,56.2969 1548.061,56.2969 1548.061,56.2969 C1548.061,56.2969 1566.061,56.2969 1566.061,66.2969 L1566.061,92.2969 C1566.061,102.2969 1548.061,102.2969 1548.061,102.2969 C1548.061,102.2969 1530.061,102.2969 1530.061,92.2969 L1530.061,66.2969 " fill="#E2E2F0" style="stroke:#181818;stroke-width:1.5;"/><path d="M1530.061,66.2969 C1530.061,76.2969 1548.061,76.2969 1548.061,76.2969 C1548.061,76.2969 1566.061,76.2969 1566.061,66.2969 " fill="none" style="stroke:#181818;stroke-width:1.5;"/><text fill="#000000" font-family="sans-serif" font-size="14" lengthAdjust="spacing" textLength="120.21" x="1484.9561" y="1076.1514">Base de donn&#233;es</text><path d="M1530.061,1089.4531 C1530.061,1079.4531 1548.061,1079.4531 1548.061,1079.4531 C1548.061,1079.4531 1566.061,1079.4531 1566.061,1089.4531 L1566.061,1115.4531 C1566.061,1125.4531 1548.061,1125.4531 1548.061,1125.4531 C1548.061,1125.4531 1530.061,1125.4531 1530.061,1115.4531 L1530.061,1089.4531 " fill="#E2E2F0" style="stroke:#181818;stroke-width:1.5;"/><path d="M1530.061,1089.4531 C1530.061,1099.4531 1548.061,1099.4531 1548.061,1099.4531 C1548.061,1099.4531 1566.061,1099.4531 1566.061,1089.4531 " fill="none" style="stroke:#181818;stroke-width:1.5;"/><text fill="#000000" font-family="sans-serif" font-size="14" lengthAdjust="spacing" textLength="148.6611" x="1621.166" y="115.292">Stockage multim&#233;dia</text><path d="M1680.4966,66.2969 C1680.4966,56.2969 1698.4966,56.2969 1698.4966,56.2969 C1698.4966,56.2969 1716.4966,56.2969 1716.4966,66.2969 L1716.4966,92.2969 C1716.4966,102.2969 1698.4966,102.2969 1698.4966,102.2969 C1698.4966,102.2969 1680.4966,102.2969 1680.4966,92.2969 L1680.4966,66.2969 " fill="#E2E2F0" style="stroke:#181818;stroke-width:1.5;"/><path d="M1680.4966,66.2969 C1680.4966,76.2969 1698.4966,76.2969 1698.4966,76.2969 C1698.4966,76.2969 1716.4966,76.2969 1716.4966,66.2969 " fill="none" style="stroke:#181818;stroke-width:1.5;"/><text fill="#000000" font-family="sans-serif" font-size="14" lengthAdjust="spacing" textLength="148.6611" x="1621.166" y="1076.1514">Stockage multim&#233;dia</text><path d="M1680.4966,1089.4531 C1680.4966,1079.4531 1698.4966,1079.4531 1698.4966,1079.4531 C1698.4966,1079.4531 1716.4966,1079.4531 1716.4966,1089.4531 L1716.4966,1115.4531 C1716.4966,1125.4531 1698.4966,1125.4531 1698.4966,1125.4531 C1698.4966,1125.4531 1680.4966,1125.4531 1680.4966,1115.4531 L1680.4966,1089.4531 " fill="#E2E2F0" style="stroke:#181818;stroke-width:1.5;"/><path d="M1680.4966,1089.4531 C1680.4966,1099.4531 1698.4966,1099.4531 1698.4966,1099.4531 C1698.4966,1099.4531 1716.4966,1099.4531 1716.4966,1089.4531 " fill="none" style="stroke:#181818;stroke-width:1.5;"/><rect fill="#E2E2F0" height="46.5938" rx="2.5" ry="2.5" style="stroke:#181818;stroke-width:0.5;" width="149.1055" x="1785.8271" y="71"/><text fill="#000000" font-family="sans-serif" font-size="14" lengthAdjust="spacing" textLength="135.1055" x="1792.8271" y="90.9951">Module V&#233;rification</text><text fill="#000000" font-family="sans-serif" font-size="14" lengthAdjust="spacing" textLength="90.6719" x="1815.0439" y="107.292">(Verification)</text><rect fill="#E2E2F0" height="46.5938" rx="2.5" ry="2.5" style="stroke:#181818;stroke-width:0.5;" width="149.1055" x="1785.8271" y="1063.1563"/><text fill="#000000" font-family="sans-serif" font-size="14" lengthAdjust="spacing" textLength="135.1055" x="1792.8271" y="1083.1514">Module V&#233;rification</text><text fill="#000000" font-family="sans-serif" font-size="14" lengthAdjust="spacing" textLength="90.6719" x="1815.0439" y="1099.4482">(Verification)</text><polygon fill="#181818" points="431.8022,145.7266,441.8022,149.7266,431.8022,153.7266,435.8022,149.7266" style="stroke:#181818;stroke-width:1.0;"/><line style="stroke:#181818;stroke-width:1.0;" x1="49.7456" x2="437.8022" y1="149.7266" y2="149.7266"/><text fill="#000000" font-family="sans-serif" font-size="13" font-weight="bold" lengthAdjust="spacing" textLength="9.0454" x="56.7456" y="144.6606">1</text><text fill="#000000" font-family="sans-serif" font-size="13" lengthAdjust="spacing" textLength="208.7681" x="69.791" y="144.6606">Ouvre &#171; Cr&#233;er un signalement &#187;</text><polygon fill="#181818" points="655.437,174.8594,665.437,178.8594,655.437,182.8594,659.437,178.8594" style="stroke:#181818;stroke-width:1.0;"/><line style="stroke:#181818;stroke-width:1.0;" x1="443.8022" x2="661.437" y1="178.8594" y2="178.8594"/><text fill="#000000" font-family="sans-serif" font-size="13" font-weight="bold" lengthAdjust="spacing" textLength="9.0454" x="450.8022" y="173.7935">2</text><text fill="#000000" font-family="sans-serif" font-size="13" lengthAdjust="spacing" textLength="127.937" x="463.8477" y="173.7935">demanderPosition()</text><path d="M10,193.8594 L74.4429,193.8594 L74.4429,200.9922 L64.4429,210.9922 L10,210.9922 L10,193.8594 " fill="#EEEEEE" style="stroke:#000000;stroke-width:1.5;"/><rect fill="none" height="119.3359" style="stroke:#000000;stroke-width:1.5;" width="727.8257" x="10" y="193.8594"/><text fill="#000000" font-family="sans-serif" font-size="13" font-weight="bold" lengthAdjust="spacing" textLength="19.4429" x="25" y="206.9263">alt</text><text fill="#000000" font-family="sans-serif" font-size="11" font-weight="bold" lengthAdjust="spacing" textLength="115.3228" x="89.4429" y="206.0698">[position obtenue]</text><polygon fill="#181818" points="454.8022,228.125,444.8022,232.125,454.8022,236.125,450.8022,232.125" style="stroke:#181818;stroke-width:1.0;"/><line style="stroke:#181818;stroke-width:1.0;stroke-dasharray:2.0,2.0;" x1="448.8022" x2="666.437" y1="232.125" y2="232.125"/><text fill="#000000" font-family="sans-serif" font-size="13" font-weight="bold" lengthAdjust="spacing" textLength="9.0454" x="460.8022" y="227.0591">3</text><text fill="#000000" font-family="sans-serif" font-size="13" lengthAdjust="spacing" textLength="186.5894" x="473.8477" y="227.0591">latitude, longitude, pr&#233;cision</text><line style="stroke:#000000;stroke-width:1.0;stroke-dasharray:2.0,2.0;" x1="10" x2="737.8257" y1="241.125" y2="241.125"/><text fill="#000000" font-family="sans-serif" font-size="11" font-weight="bold" lengthAdjust="spacing" textLength="256.9209" x="15" y="251.3354">[permission refus&#233;e ou GPS indisponible]</text><polygon fill="#181818" points="60.7456,272.0625,50.7456,276.0625,60.7456,280.0625,56.7456,276.0625" style="stroke:#181818;stroke-width:1.0;"/><line style="stroke:#181818;stroke-width:1.0;stroke-dasharray:2.0,2.0;" x1="54.7456" x2="442.8022" y1="276.0625" y2="276.0625"/><text fill="#000000" font-family="sans-serif" font-size="13" font-weight="bold" lengthAdjust="spacing" textLength="9.0454" x="66.7456" y="270.9966">4</text><text fill="#000000" font-family="sans-serif" font-size="13" lengthAdjust="spacing" textLength="357.0112" x="79.791" y="270.9966">Propose de placer le point sur la carte / saisir l'adresse</text><polygon fill="#181818" points="431.8022,301.1953,441.8022,305.1953,431.8022,309.1953,435.8022,305.1953" style="stroke:#181818;stroke-width:1.0;"/><line style="stroke:#181818;stroke-width:1.0;" x1="49.7456" x2="437.8022" y1="305.1953" y2="305.1953"/><text fill="#000000" font-family="sans-serif" font-size="13" font-weight="bold" lengthAdjust="spacing" textLength="9.0454" x="56.7456" y="300.1294">5</text><text fill="#000000" font-family="sans-serif" font-size="13" lengthAdjust="spacing" textLength="190.4043" x="69.791" y="300.1294">Position saisie manuellement</text><polygon fill="#181818" points="431.8022,352.4609,441.8022,356.4609,431.8022,360.4609,435.8022,356.4609" style="stroke:#181818;stroke-width:1.0;"/><line style="stroke:#181818;stroke-width:1.0;" x1="49.7456" x2="437.8022" y1="356.4609" y2="356.4609"/><text fill="#000000" font-family="sans-serif" font-size="13" font-weight="bold" lengthAdjust="spacing" textLength="9.0454" x="56.7456" y="343.8286">6</text><text fill="#000000" font-family="sans-serif" font-size="13" lengthAdjust="spacing" textLength="299.7871" x="69.791" y="336.2622">Choisit le type d'incident, saisit la description,</text><text fill="#000000" font-family="sans-serif" font-size="13" lengthAdjust="spacing" textLength="174.459" x="69.791" y="351.395">indique la gravit&#233; d&#233;clar&#233;e</text><path d="M10,371.4609 L79.4512,371.4609 L79.4512,378.5938 L69.4512,388.5938 L10,388.5938 L10,371.4609 " fill="#EEEEEE" style="stroke:#000000;stroke-width:1.5;"/><rect fill="none" height="46.2656" style="stroke:#000000;stroke-width:1.5;" width="515.8804" x="10" y="371.4609"/><text fill="#000000" font-family="sans-serif" font-size="13" font-weight="bold" lengthAdjust="spacing" textLength="24.4512" x="25" y="384.5278">opt</text><text fill="#000000" font-family="sans-serif" font-size="11" font-weight="bold" lengthAdjust="spacing" textLength="114.6567" x="94.4512" y="383.6714">[ajout de preuves]</text><polygon fill="#181818" points="431.8022,405.7266,441.8022,409.7266,431.8022,413.7266,435.8022,409.7266" style="stroke:#181818;stroke-width:1.0;"/><line style="stroke:#181818;stroke-width:1.0;" x1="49.7456" x2="437.8022" y1="409.7266" y2="409.7266"/><text fill="#000000" font-family="sans-serif" font-size="13" font-weight="bold" lengthAdjust="spacing" textLength="9.0454" x="56.7456" y="404.6606">7</text><text fill="#000000" font-family="sans-serif" font-size="13" lengthAdjust="spacing" textLength="251.564" x="69.791" y="404.6606">Prend ou choisit une photo / une vid&#233;o</text><polygon fill="#181818" points="840.376,441.8594,850.376,445.8594,840.376,449.8594,844.376,445.8594" style="stroke:#181818;stroke-width:1.0;"/><line style="stroke:#181818;stroke-width:1.0;" x1="443.8022" x2="846.376" y1="445.8594" y2="445.8594"/><text fill="#000000" font-family="sans-serif" font-size="13" font-weight="bold" lengthAdjust="spacing" textLength="9.0454" x="450.8022" y="440.7935">8</text><text fill="#000000" font-family="sans-serif" font-size="13" lengthAdjust="spacing" textLength="371.5283" x="463.8477" y="440.7935">cr&#233;erSignalement(type, description, gravit&#233;, localisation)</text><polygon fill="#181818" points="1130.5215,470.9922,1140.5215,474.9922,1130.5215,478.9922,1134.5215,474.9922" style="stroke:#181818;stroke-width:1.0;"/><line style="stroke:#181818;stroke-width:1.0;" x1="852.376" x2="1136.5215" y1="474.9922" y2="474.9922"/><text fill="#000000" font-family="sans-serif" font-size="13" font-weight="bold" lengthAdjust="spacing" textLength="9.0454" x="859.376" y="469.9263">9</text><text fill="#000000" font-family="sans-serif" font-size="13" lengthAdjust="spacing" textLength="99.4297" x="872.4214" y="469.9263">cr&#233;er(donn&#233;es)</text><line style="stroke:#181818;stroke-width:1.0;" x1="1142.5215" x2="1184.5215" y1="504.125" y2="504.125"/><line style="stroke:#181818;stroke-width:1.0;" x1="1184.5215" x2="1184.5215" y1="504.125" y2="517.125"/><line style="stroke:#181818;stroke-width:1.0;" x1="1143.5215" x2="1184.5215" y1="517.125" y2="517.125"/><polygon fill="#181818" points="1153.5215,513.125,1143.5215,517.125,1153.5215,521.125,1149.5215,517.125" style="stroke:#181818;stroke-width:1.0;"/><text fill="#000000" font-family="sans-serif" font-size="13" font-weight="bold" lengthAdjust="spacing" textLength="18.0908" x="1149.5215" y="499.0591">10</text><text fill="#000000" font-family="sans-serif" font-size="13" lengthAdjust="spacing" textLength="334.0962" x="1171.6123" y="499.0591">Valide les donn&#233;es (champs, gravit&#233;, coordonn&#233;es)</text><path d="M10,532.125 L74.4429,532.125 L74.4429,539.2578 L64.4429,549.2578 L10,549.2578 L10,532.125 " fill="#EEEEEE" style="stroke:#000000;stroke-width:1.5;"/><rect fill="none" height="515.0313" style="stroke:#000000;stroke-width:1.5;" width="2015.9561" x="10" y="532.125"/><text fill="#000000" font-family="sans-serif" font-size="13" font-weight="bold" lengthAdjust="spacing" textLength="19.4429" x="25" y="545.1919">alt</text><text fill="#000000" font-family="sans-serif" font-size="11" font-weight="bold" lengthAdjust="spacing" textLength="122.0635" x="89.4429" y="544.3354">[donn&#233;es invalides]</text><polygon fill="#181818" points="863.376,566.3906,853.376,570.3906,863.376,574.3906,859.376,570.3906" style="stroke:#181818;stroke-width:1.0;"/><line style="stroke:#181818;stroke-width:1.0;stroke-dasharray:2.0,2.0;" x1="857.376" x2="1141.5215" y1="570.3906" y2="570.3906"/><text fill="#000000" font-family="sans-serif" font-size="13" font-weight="bold" lengthAdjust="spacing" textLength="18.0908" x="869.376" y="565.3247">11</text><text fill="#000000" font-family="sans-serif" font-size="13" lengthAdjust="spacing" textLength="128.7876" x="891.4668" y="565.3247">erreur de validation</text><polygon fill="#181818" points="454.8022,595.5234,444.8022,599.5234,454.8022,603.5234,450.8022,599.5234" style="stroke:#181818;stroke-width:1.0;"/><line style="stroke:#181818;stroke-width:1.0;stroke-dasharray:2.0,2.0;" x1="448.8022" x2="851.376" y1="599.5234" y2="599.5234"/><text fill="#000000" font-family="sans-serif" font-size="13" font-weight="bold" lengthAdjust="spacing" textLength="18.0908" x="460.8022" y="594.4575">12</text><text fill="#000000" font-family="sans-serif" font-size="13" lengthAdjust="spacing" textLength="40.2695" x="482.8931" y="594.4575">erreur</text><polygon fill="#181818" points="60.7456,624.6563,50.7456,628.6563,60.7456,632.6563,56.7456,628.6563" style="stroke:#181818;stroke-width:1.0;"/><line style="stroke:#181818;stroke-width:1.0;stroke-dasharray:2.0,2.0;" x1="54.7456" x2="442.8022" y1="628.6563" y2="628.6563"/><text fill="#000000" font-family="sans-serif" font-size="13" font-weight="bold" lengthAdjust="spacing" textLength="18.0908" x="66.7456" y="623.5903">13</text><text fill="#000000" font-family="sans-serif" font-size="13" lengthAdjust="spacing" textLength="195.2158" x="88.8364" y="623.5903">Demande de corriger la saisie</text><line style="stroke:#000000;stroke-width:1.0;stroke-dasharray:2.0,2.0;" x1="10" x2="2025.9561" y1="637.6563" y2="637.6563"/><text fill="#000000" font-family="sans-serif" font-size="11" font-weight="bold" lengthAdjust="spacing" textLength="110.4619" x="15" y="647.8667">[donn&#233;es valides]</text><polygon fill="#181818" points="1536.061,668.5938,1546.061,672.5938,1536.061,676.5938,1540.061,672.5938" style="stroke:#181818;stroke-width:1.0;"/><line style="stroke:#181818;stroke-width:1.0;" x1="1142.5215" x2="1542.061" y1="672.5938" y2="672.5938"/><text fill="#000000" font-family="sans-serif" font-size="13" font-weight="bold" lengthAdjust="spacing" textLength="18.0908" x="1149.5215" y="667.5278">14</text><text fill="#000000" font-family="sans-serif" font-size="13" lengthAdjust="spacing" textLength="359.4487" x="1171.6123" y="667.5278">Enregistre Signalement (statut SOUMIS) et Localisation</text><polygon fill="#181818" points="1153.5215,697.7266,1143.5215,701.7266,1153.5215,705.7266,1149.5215,701.7266" style="stroke:#181818;stroke-width:1.0;"/><line style="stroke:#181818;stroke-width:1.0;stroke-dasharray:2.0,2.0;" x1="1147.5215" x2="1547.061" y1="701.7266" y2="701.7266"/><text fill="#000000" font-family="sans-serif" font-size="13" font-weight="bold" lengthAdjust="spacing" textLength="18.0908" x="1159.5215" y="696.6606">15</text><text fill="#000000" font-family="sans-serif" font-size="13" lengthAdjust="spacing" textLength="171.5073" x="1181.6123" y="696.6606">identifiant du signalement</text><path d="M361.7241,716.7266 L438.3481,716.7266 L438.3481,723.8594 L428.3481,733.8594 L361.7241,733.8594 L361.7241,716.7266 " fill="#EEEEEE" style="stroke:#000000;stroke-width:1.5;"/><rect fill="none" height="162.7969" style="stroke:#000000;stroke-width:1.5;" width="1424.103" x="361.7241" y="716.7266"/><text fill="#000000" font-family="sans-serif" font-size="13" font-weight="bold" lengthAdjust="spacing" textLength="31.624" x="376.7241" y="729.7935">loop</text><text fill="#000000" font-family="sans-serif" font-size="11" font-weight="bold" lengthAdjust="spacing" textLength="172.9277" x="453.3481" y="728.937">[pour chaque photo / vid&#233;o]</text><polygon fill="#181818" points="840.376,750.9922,850.376,754.9922,840.376,758.9922,844.376,754.9922" style="stroke:#181818;stroke-width:1.0;"/><line style="stroke:#181818;stroke-width:1.0;" x1="443.8022" x2="846.376" y1="754.9922" y2="754.9922"/><text fill="#000000" font-family="sans-serif" font-size="13" font-weight="bold" lengthAdjust="spacing" textLength="18.0908" x="450.8022" y="749.9263">16</text><text fill="#000000" font-family="sans-serif" font-size="13" lengthAdjust="spacing" textLength="263.7007" x="472.8931" y="749.9263">t&#233;l&#233;verserPreuve(idSignalement, fichier)</text><polygon fill="#181818" points="1130.5215,780.125,1140.5215,784.125,1130.5215,788.125,1134.5215,784.125" style="stroke:#181818;stroke-width:1.0;"/><line style="stroke:#181818;stroke-width:1.0;" x1="852.376" x2="1136.5215" y1="784.125" y2="784.125"/><text fill="#000000" font-family="sans-serif" font-size="13" font-weight="bold" lengthAdjust="spacing" textLength="18.0908" x="859.376" y="779.0591">17</text><text fill="#000000" font-family="sans-serif" font-size="13" lengthAdjust="spacing" textLength="244.0547" x="881.4668" y="779.0591">ajouterPreuve(idSignalement, fichier)</text><polygon fill="#181818" points="1686.4966,809.2578,1696.4966,813.2578,1686.4966,817.2578,1690.4966,813.2578" style="stroke:#181818;stroke-width:1.0;"/><line style="stroke:#181818;stroke-width:1.0;" x1="1142.5215" x2="1692.4966" y1="813.2578" y2="813.2578"/><text fill="#000000" font-family="sans-serif" font-size="13" font-weight="bold" lengthAdjust="spacing" textLength="18.0908" x="1149.5215" y="808.1919">18</text><text fill="#000000" font-family="sans-serif" font-size="13" lengthAdjust="spacing" textLength="98.5156" x="1171.6123" y="808.1919">stocker(fichier)</text><polygon fill="#181818" points="1153.5215,838.3906,1143.5215,842.3906,1153.5215,846.3906,1149.5215,842.3906" style="stroke:#181818;stroke-width:1.0;"/><line style="stroke:#181818;stroke-width:1.0;stroke-dasharray:2.0,2.0;" x1="1147.5215" x2="1697.4966" y1="842.3906" y2="842.3906"/><text fill="#000000" font-family="sans-serif" font-size="13" font-weight="bold" lengthAdjust="spacing" textLength="18.0908" x="1159.5215" y="837.3247">19</text><text fill="#000000" font-family="sans-serif" font-size="13" lengthAdjust="spacing" textLength="145.8755" x="1181.6123" y="837.3247">r&#233;f&#233;rence de stockage</text><polygon fill="#181818" points="1536.061,867.5234,1546.061,871.5234,1536.061,875.5234,1540.061,871.5234" style="stroke:#181818;stroke-width:1.0;"/><line style="stroke:#181818;stroke-width:1.0;" x1="1142.5215" x2="1542.061" y1="871.5234" y2="871.5234"/><text fill="#000000" font-family="sans-serif" font-size="13" font-weight="bold" lengthAdjust="spacing" textLength="18.0908" x="1149.5215" y="866.4575">20</text><text fill="#000000" font-family="sans-serif" font-size="13" lengthAdjust="spacing" textLength="216.0425" x="1171.6123" y="866.4575">Enregistre Preuve (photo / vid&#233;o)</text><polygon fill="#181818" points="863.376,903.6563,853.376,907.6563,863.376,911.6563,859.376,907.6563" style="stroke:#181818;stroke-width:1.0;"/><line style="stroke:#181818;stroke-width:1.0;stroke-dasharray:2.0,2.0;" x1="857.376" x2="1141.5215" y1="907.6563" y2="907.6563"/><text fill="#000000" font-family="sans-serif" font-size="13" font-weight="bold" lengthAdjust="spacing" textLength="18.0908" x="869.376" y="902.5903">21</text><text fill="#000000" font-family="sans-serif" font-size="13" lengthAdjust="spacing" textLength="151.2393" x="891.4668" y="902.5903">signalement enregistr&#233;</text><polygon fill="#181818" points="454.8022,932.7891,444.8022,936.7891,454.8022,940.7891,450.8022,936.7891" style="stroke:#181818;stroke-width:1.0;"/><line style="stroke:#181818;stroke-width:1.0;stroke-dasharray:2.0,2.0;" x1="448.8022" x2="851.376" y1="936.7891" y2="936.7891"/><text fill="#000000" font-family="sans-serif" font-size="13" font-weight="bold" lengthAdjust="spacing" textLength="18.0908" x="460.8022" y="931.7231">22</text><text fill="#000000" font-family="sans-serif" font-size="13" lengthAdjust="spacing" textLength="227.8174" x="482.8931" y="931.7231">accus&#233; (identifiant, statut SOUMIS)</text><polygon fill="#181818" points="60.7456,961.9219,50.7456,965.9219,60.7456,969.9219,56.7456,965.9219" style="stroke:#181818;stroke-width:1.0;"/><line style="stroke:#181818;stroke-width:1.0;stroke-dasharray:2.0,2.0;" x1="54.7456" x2="442.8022" y1="965.9219" y2="965.9219"/><text fill="#000000" font-family="sans-serif" font-size="13" font-weight="bold" lengthAdjust="spacing" textLength="18.0908" x="66.7456" y="960.856">23</text><text fill="#000000" font-family="sans-serif" font-size="13" lengthAdjust="spacing" textLength="211.4849" x="88.8364" y="960.856">Confirme l'envoi du signalement</text><line style="stroke:#181818;stroke-width:1.0;" x1="1858.3799" x2="1848.3799" y1="995.0547" y2="991.0547"/><line style="stroke:#181818;stroke-width:1.0;" x1="1858.3799" x2="1848.3799" y1="995.0547" y2="999.0547"/><line style="stroke:#181818;stroke-width:1.0;" x1="1142.5215" x2="1859.3799" y1="995.0547" y2="995.0547"/><text fill="#000000" font-family="sans-serif" font-size="13" font-weight="bold" lengthAdjust="spacing" textLength="18.0908" x="1149.5215" y="989.9888">24</text><text fill="#000000" font-family="sans-serif" font-size="13" lengthAdjust="spacing" textLength="313.9297" x="1171.6123" y="989.9888">lancerV&#233;rification(idSignalement) &#171;asynchrone&#187;</text><rect fill="none" height="39.1016" style="stroke:#000000;stroke-width:1.5;" width="236.1289" x="1782.8271" y="1003.0547"/><path d="M1782.8271,1003.0547 L1847.8271,1003.0547 L1847.8271,1010.0547 L1837.8271,1020.0547 L1782.8271,1020.0547 L1782.8271,1003.0547 " fill="#EEEEEE" style="stroke:#000000;stroke-width:2.0;"/><text fill="#000000" font-family="sans-serif" font-size="13" font-weight="bold" lengthAdjust="spacing" textLength="20.8838" x="1795.8271" y="1017.1216">ref</text><text fill="#000000" font-family="sans-serif" font-size="12" lengthAdjust="spacing" textLength="228.1289" x="1786.8271" y="1035.1934">DS04 &#8212; V&#233;rification d'un signalement</text><!--SRC=[ZLN1Rjiu4BthAmQvH0OST87kgIWC94vH15WZGTtab0jDZMqs5CcIb1UvzIFw4yP-mjxgFzalsKTAbYLd3mi4WIM-UJFpvd4KLTHCjylVtjC_FtxIt1_s8YfhgBfi30MrCK9ppIPIAPpJIhQdjLqfpPD2DD6QfbwnByABCavuKLFOYih-gSo6ra877fxmzuQDv0M783PyhS5FcjUnA8ICrjF5N4NxokQ2HA370b5HIUK4ybzSlyd_REQYljRiOyOlnlYvS94RJvyVbi-cQYZKE7LRQpYZyVgC_-6EZdpFfhmHyeLDDSbWd8t12rir46vv4YWWvWixwsDeOvPtdujAHB4IWUdY9lsly6UDEUmvPCZjpG2nZ5Q-G1Mg6nrLVTXNIhH4N-__C_dJOU_LkfC4sP_uzDYMyFJfIr4yqjMC5lI1xfkTP_hrLvuoUpeRyA-_YqM2GXY0Aww5gTW_sA0IOObXwqYkUoIxYcmQBYZZhxeK6ibZK_6Kj3MRxgT3Ega2eWg67yYnhrL8p-HvtGGKGxR9FCfKAZXhr4edwaKcVWJnWxT8dHLqMaXK3m6SLQWxOCPQa8H2JEye2AJ2cqjHUTWiqVGA79jfGL1Qe0NTzbzWs2UjvbiBH4nPugj3tajbfAg0cxR1CUMiE4YlNAASFfjKFFoT3ZPUx5GyxAb2wrealGlh8ebljecv2S_DZiEeE8yAaX2oozqOuBOsMdILVkyKs6okivrKSkm7adcQ0oUMgUBfgBY-e3GOARGAhKkAH04cUBLdAeyMdHJfTN_wX31KhZdq9gPIRaNjmf1VMkjF3CapFLgPNUP8RMVglWVsFbrLq6T4BWwWN5qdJmiPcUAszMWAazPxjU7iX7QuhTVwt6UPPxXxOFXaF6zKY7vqbQaCKKGCQdd_kBXRJeWZ_J6G3II8lkgLoRx0rKkNCosQ4nEGsbe7fw8xQ9NiSHnfDqwYtD9H2MYe3_iT-u2xbqrIgcfGsvHmnRUA_IH7ZkQNtVM_mew3_NgFi90M3-O-Hk3er26CiSQsIRixgHswLJNaEjUphOBASRk9F1dut033HSH7aiF-p0D2ohGkg1meZliu6jR88NDhrihNSEqbcvrLRyVJLZzBgpBlBtJeHujrhEE4FduKuTN8hSU7P3O30tOOMGoiey2tzFVyBHsnlFcUfclyBm00]--></g></svg>