<svg xmlns="http://www.w3.org/2000/svg" xmlns:xlink="http://www.w3.org/1999/xlink" contentStyleType="text/css" height="1509px" preserveAspectRatio="none" style="width:2701px;height:1509px;background:#FFFFFF;" version="1.1" viewBox="0 0 2701 1509" width="2701px" zoomAndPan="magnify"><title>DS04 &#8212; V&#233;rification d'un signalement et calcul du score de fiabilit&#233;</title><defs/><g><text fill="#000000" font-family="sans-serif" font-size="14" font-weight="bold" lengthAdjust="spacing" textLength="532.4102" x="1085.6685" y="27.9951">DS04 &#8212; V&#233;rification d'un signalement et calcul du score de fiabilit&#233;</text><rect fill="none" height="310.9375" style="stroke:#000000;stroke-width:1.5;" width="1762.9644" x="180.0498" y="545.8828"/><rect fill="none" height="75.3984" style="stroke:#000000;stroke-width:1.5;" width="1131.7695" x="190.0498" y="643.0859"/><rect fill="none" height="315.9063" style="stroke:#000000;stroke-width:1.5;" width="2504.6973" x="190.0498" y="1001.4844"/><line style="stroke:#181818;stroke-width:0.5;stroke-dasharray:5.0,5.0;" x1="87" x2="87" y1="120.8906" y2="1414.9219"/><line style="stroke:#181818;stroke-width:0.5;stroke-dasharray:5.0,5.0;" x1="274.0498" x2="274.0498" y1="120.8906" y2="1414.9219"/><line style="stroke:#181818;stroke-width:0.5;stroke-dasharray:5.0,5.0;" x1="630.3364" x2="630.3364" y1="120.8906" y2="1414.9219"/><line style="stroke:#181818;stroke-width:0.5;stroke-dasharray:5.0,5.0;" x1="981.2588" x2="981.2588" y1="120.8906" y2="1414.9219"/><line style="stroke:#181818;stroke-width:0.5;stroke-dasharray:5.0,5.0;" x1="1119.709" x2="1119.709" y1="120.8906" y2="1414.9219"/><line style="stroke:#181818;stroke-width:0.5;stroke-dasharray:5.0,5.0;" x1="1242.7793" x2="1242.7793" y1="120.8906" y2="1414.9219"/><line style="stroke:#181818;stroke-width:0.5;stroke-dasharray:5.0,5.0;" x1="1371.8193" x2="1371.8193" y1="120.8906" y2="1414.9219"/><line style="stroke:#181818;stroke-width:0.5;stroke-dasharray:5.0,5.0;" x1="1848.4009" x2="1848.4009" y1="120.8906" y2="1414.9219"/><line style="stroke:#181818;stroke-width:0.5;stroke-dasharray:5.0,5.0;" x1="2006.0142" x2="2006.0142" y1="120.8906" y2="1414.9219"/><line style="stroke:#181818;stroke-width:0.5;stroke-dasharray:5.0,5.0;" x1="2429.249" x2="2429.249" y1="120.8906" y2="1414.9219"/><rect fill="#E2E2F0" height="46.5938" rx="2.5" ry="2.5" style="stroke:#181818;stroke-width:0.5;" width="164.8828" x="5" y="73.2969"/><text fill="#000000" font-family="sans-serif" font-size="14" lengthAdjust="spacing" textLength="150.8828" x="12" y="93.292">Module Signalements</text><text fill="#000000" font-family="sans-serif" font-size="14" lengthAdjust="spacing" textLength="65.2559" x="54.8135" y="109.5889">(Reports)</text><rect fill="#E2E2F0" height="46.5938" rx="2.5" ry="2.5" style="stroke:#181818;stroke-width:0.5;" width="164.8828" x="5" y="1413.9219"/><text fill="#000000" font-family="sans-serif" font-size="14" lengthAdjust="spacing" textLength="150.8828" x="12" y="1433.917">Module Signalements</text><text fill="#000000" font-family="sans-serif" font-size="14" lengthAdjust="spacing" textLength="65.2559" x="54.8135" y="1450.2139">(Reports)</text><rect fill="#E2E2F0" height="46.5938" rx="2.5" ry="2.5" style="stroke:#181818;stroke-width:0.5;" width="149.1055" x="200.0498" y="73.2969"/><text fill="#000000" font-family="sans-serif" font-size="14" lengthAdjust="spacing" textLength="135.1055" x="207.0498" y="93.292">Module V&#233;rification</text><text fill="#000000" font-family="sans-serif" font-size="14" lengthAdjust="spacing" textLength="90.6719" x="229.2666" y="109.5889">(Verification)</text><rect fill="#E2E2F0" height="46.5938" rx="2.5" ry="2.5" style="stroke:#181818;stroke-width:0.5;" width="149.1055" x="200.0498" y="1413.9219"/><text fill="#000000" font-family="sans-serif" font-size="14" lengthAdjust="spacing" textLength="135.1055" x="207.0498" y="1433.917">Module V&#233;rification</text><text fill="#000000" font-family="sans-serif" font-size="14" lengthAdjust="spacing" textLength="90.6719" x="229.2666" y="1450.2139">(Verification)</text><rect fill="#E2E2F0" height="46.5938" rx="2.5" ry="2.5" style="stroke:#181818;stroke-width:0.5;" width="132.8291" x="564.3364" y="73.2969"/><text fill="#000000" font-family="sans-serif" font-size="14" lengthAdjust="spacing" textLength="118.8291" x="571.3364" y="93.292">Moteur de r&#232;gles</text><text fill="#000000" font-family="sans-serif" font-size="14" lengthAdjust="spacing" textLength="45.999" x="607.7515" y="109.5889">m&#233;tier</text><rect fill="#E2E2F0" height="46.5938" rx="2.5" ry="2.5" style="stroke:#181818;stroke-width:0.5;" width="132.8291" x="564.3364" y="1413.9219"/><text fill="#000000" font-family="sans-serif" font-size="14" lengthAdjust="spacing" textLength="118.8291" x="571.3364" y="1433.917">Moteur de r&#232;gles</text><text fill="#000000" font-family="sans-serif" font-size="14" lengthAdjust="spacing" textLength="45.999" x="607.7515" y="1450.2139">m&#233;tier</text><rect fill="#E2E2F0" height="46.5938" rx="2.5" ry="2.5" style="stroke:#181818;stroke-width:0.5;" width="165.4502" x="899.2588" y="73.2969"/><text fill="#000000" font-family="sans-serif" font-size="14" lengthAdjust="spacing" textLength="151.4502" x="906.2588" y="93.292">Moteur de corr&#233;lation</text><text fill="#000000" font-family="sans-serif" font-size="14" lengthAdjust="spacing" textLength="130.0264" x="916.9707" y="109.5889">(Module Incidents)</text><rect fill="#E2E2F0" height="46.5938" rx="2.5" ry="2.5" style="stroke:#181818;stroke-width:0.5;" width="165.4502" x="899.2588" y="1413.9219"/><text fill="#000000" font-family="sans-serif" font-size="14" lengthAdjust="spacing" textLength="151.4502" x="906.2588" y="1433.917">Moteur de corr&#233;lation</text><text fill="#000000" font-family="sans-serif" font-size="14" lengthAdjust="spacing" textLength="130.0264" x="916.9707" y="1450.2139">(Module Incidents)</text><rect fill="#E2E2F0" height="30.2969" rx="2.5" ry="2.5" style="stroke:#181818;stroke-width:0.5;" width="90.0703" x="1074.709" y="89.5938"/><text fill="#000000" font-family="sans-serif" font-size="14" lengthAdjust="spacing" textLength="76.0703" x="1081.709" y="109.5889">Service ML</text><rect fill="#E2E2F0" height="30.2969" rx="2.5" ry="2.5" style="stroke:#181818;stroke-width:0.5;" width="90.0703" x="1074.709" y="1413.9219"/><text fill="#000000" font-family="sans-serif" font-size="14" lengthAdjust="spacing" textLength="76.0703" x="1081.709" y="1433.917">Service ML</text><rect fill="#E2E2F0" height="46.5938" rx="2.5" ry="2.5" style="stroke:#181818;stroke-width:0.5;" width="137.04" x="1174.7793" y="73.2969"/><text fill="#000000" font-family="sans-serif" font-size="14" lengthAdjust="spacing" textLength="123.04" x="1181.7793" y="93.292">Service d'analyse</text><text fill="#000000" font-family="sans-serif" font-size="14" lengthAdjust="spacing" textLength="87.9512" x="1199.3237" y="109.5889">multimodale</text><rect fill="#E2E2F0" height="46.5938" rx="2.5" ry="2.5" style="stroke:#181818;stroke-width:0.5;" width="137.04" x="1174.7793" y="1413.9219"/><text fill="#000000" font-family="sans-serif" font-size="14" lengthAdjust="spacing" textLength="123.04" x="1181.7793" y="1433.917">Service d'analyse</text><text fill="#000000" font-family="sans-serif" font-size="14" lengthAdjust="spacing" textLength="87.9512" x="1199.3237" y="1450.2139">multimodale</text><rect fill="#E2E2F0" height="30.2969" rx="2.5" ry="2.5" style="stroke:#181818;stroke-width:0.5;" width="100.3447" x="1321.8193" y="89.5938"/><text fill="#000000" font-family="sans-serif" font-size="14" lengthAdjust="spacing" textLength="86.3447" x="1328.8193" y="109.5889">Service RAG</text><rect fill="#E2E2F0" height="30.2969" rx="2.5" ry="2.5" style="stroke:#181818;stroke-width:0.5;" width="100.3447" x="1321.8193" y="1413.9219"/><text fill="#000000" font-family="sans-serif" font-size="14" lengthAdjust="spacing" textLength="86.3447" x="1328.8193" y="1433.917">Service RAG</text><text fill="#000000" font-family="sans-serif" font-size="14" lengthAdjust="spacing" textLength="162.6133" x="1764.4009" y="101.292">Base de connaissances</text><text fill="#000000" font-family="sans-serif" font-size="14" lengthAdjust="spacing" textLength="114.7207" x="1788.3472" y="117.5889">(index vectoriel)</text><path d="M1830.7075,52.2969 C1830.7075,42.2969 1848.7075,42.2969 1848.7075,42.2969 C1848.7075,42.2969 1866.7075,42.2969 1866.7075,52.2969 L1866.7075,78.2969 C1866.7075,88.2969 1848.7075,88.2969 1848.7075,88.2969 C1848.7075,88.2969 1830.7075,88.2969 1830.7075,78.2969 L1830.7075,52.2969 " fill="#E2E2F0" style="stroke:#181818;stroke-width:1.5;"/><path d="M1830.7075,52.2969 C1830.7075,62.2969 1848.7075,62.2969 1848.7075,62.2969 C1848.7075,62.2969 1866.7075,62.2969 1866.7075,52.2969 " fill="none" style="stroke:#181818;stroke-width:1.5;"/><text fill="#000000" font-family="sans-serif" font-size="14" lengthAdjust="spacing" textLength="162.6133" x="1764.4009" y="1426.917">Base de connaissances</text><text fill="#000000" font-family="sans-serif" font-size="14" lengthAdjust="spacing" textLength="114.7207" x="1788.3472" y="1443.2139">(index vectoriel)</text><path d="M1830.7075,1456.5156 C1830.7075,1446.5156 1848.7075,1446.5156 1848.7075,1446.5156 C1848.7075,1446.5156 1866.7075,1446.5156 1866.7075,1456.5156 L1866.7075,1482.5156 C1866.7075,1492.5156 1848.7075,1492.5156 1848.7075,1492.5156 C1848.7075,1492.5156 1830.7075,1492.5156 1830.7075,1482.5156 L1830.7075,1456.5156 " fill="#E2E2F0" style="stroke:#181818;stroke-width:1.5;"/><path d="M1830.7075,1456.5156 C1830.7075,1466.5156 1848.7075,1466.5156 1848.7075,1466.5156 C1848.7075,1466.5156 1866.7075,1466.5156 1866.7075,1456.5156 " fill="none" style="stroke:#181818;stroke-width:1.5;"/><text fill="#000000" font-family="sans-serif" font-size="14" lengthAdjust="spacing" textLength="120.21" x="1943.0142" y="117.5889">Base de donn&#233;es</text><path d="M1988.1191,68.5938 C1988.1191,58.5938 2006.1191,58.5938 2006.1191,58.5938 C2006.1191,58.5938 2024.1191,58.5938 2024.1191,68.5938 L2024.1191,94.5938 C2024.1191,104.5938 2006.1191,104.5938 2006.1191,104.5938 C2006.1191,104.5938 1988.1191,104.5938 1988.1191,94.5938 L1988.1191,68.5938 " fill="#E2E2F0" style="stroke:#181818;stroke-width:1.5;"/><path d="M1988.1191,68.5938 C1988.1191,78.5938 2006.1191,78.5938 2006.1191,78.5938 C2006.1191,78.5938 2024.1191,78.5938 2024.1191,68.5938 " fill="none" style="stroke:#181818;stroke-width:1.5;"/><text fill="#000000" font-family="sans-serif" font-size="14" lengthAdjust="spacing" textLength="120.21" x="1943.0142" y="1426.917">Base de donn&#233;es</text><path d="M1988.1191,1440.2188 C1988.1191,1430.2188 2006.1191,1430.2188 2006.1191,1430.2188 C2006.1191,1430.2188 2024.1191,1430.2188 2024.1191,1440.2188 L2024.1191,1466.2188 C2024.1191,1476.2188 2006.1191,1476.2188 2006.1191,1476.2188 C2006.1191,1476.2188 1988.1191,1476.2188 1988.1191,1466.2188 L1988.1191,1440.2188 " fill="#E2E2F0" style="stroke:#181818;stroke-width:1.5;"/><path d="M1988.1191,1440.2188 C1988.1191,1450.2188 2006.1191,1450.2188 2006.1191,1450.2188 C2006.1191,1450.2188 2024.1191,1450.2188 2024.1191,1440.2188 " fill="none" style="stroke:#181818;stroke-width:1.5;"/><rect fill="#E2E2F0" height="30.2969" rx="2.5" ry="2.5" style="stroke:#181818;stroke-width:0.5;" width="133.1025" x="2363.249" y="89.5938"/><text fill="#000000" font-family="sans-serif" font-size="14" lengthAdjust="spacing" textLength="119.1025" x="2370.249" y="109.5889">Module Incidents</text><rect fill="#E2E2F0" height="30.2969" rx="2.5" ry="2.5" style="stroke:#181818;stroke-width:0.5;" width="133.1025" x="2363.249" y="1413.9219"/><text fill="#000000" font-family="sans-serif" font-size="14" lengthAdjust="spacing" textLength="119.1025" x="2370.249" y="1433.917">Module Incidents</text><line style="stroke:#181818;stroke-width:1.0;" x1="272.6025" x2="262.6025" y1="152.0234" y2="148.0234"/><line style="stroke:#181818;stroke-width:1.0;" x1="272.6025" x2="262.6025" y1="152.0234" y2="156.0234"/><line style="stroke:#181818;stroke-width:1.0;" x1="87.4414" x2="273.6025" y1="152.0234" y2="152.0234"/><text fill="#000000" font-family="sans-serif" font-size="13" font-weight="bold" lengthAdjust="spacing" textLength="9.0454" x="94.4414" y="146.9575">1</text><text fill="#000000" font-family="sans-serif" font-size="13" lengthAdjust="spacing" textLength="150.1157" x="107.4868" y="146.9575">v&#233;rifier(idSignalement)</text><polygon fill="#181818" points="1994.1191,192.2891,2004.1191,196.2891,1994.1191,200.2891,1998.1191,196.2891" style="stroke:#181818;stroke-width:1.0;"/><line style="stroke:#181818;stroke-width:1.0;" x1="274.6025" x2="2000.1191" y1="196.2891" y2="196.2891"/><text fill="#000000" font-family="sans-serif" font-size="13" font-weight="bold" lengthAdjust="spacing" textLength="9.0454" x="281.6025" y="183.6567">2</text><text fill="#000000" font-family="sans-serif" font-size="13" lengthAdjust="spacing" textLength="339.2759" x="294.6479" y="176.0903">Charge signalement, preuves, historique du compte</text><text fill="#000000" font-family="sans-serif" font-size="13" lengthAdjust="spacing" textLength="329.5322" x="294.6479" y="191.2231">(ReputationUtilisateur), param&#232;tres de v&#233;rification</text><polygon fill="#181818" points="285.6025,221.4219,275.6025,225.4219,285.6025,229.4219,281.6025,225.4219" style="stroke:#181818;stroke-width:1.0;"/><line style="stroke:#181818;stroke-width:1.0;stroke-dasharray:2.0,2.0;" x1="279.6025" x2="2005.1191" y1="225.4219" y2="225.4219"/><text fill="#000000" font-family="sans-serif" font-size="13" font-weight="bold" lengthAdjust="spacing" textLength="9.0454" x="291.6025" y="220.356">3</text><text fill="#000000" font-family="sans-serif" font-size="13" lengthAdjust="spacing" textLength="137.1919" x="304.6479" y="220.356">donn&#233;es de contexte</text><polygon fill="#181818" points="1994.1191,250.5547,2004.1191,254.5547,1994.1191,258.5547,1998.1191,254.5547" style="stroke:#181818;stroke-width:1.0;"/><line style="stroke:#181818;stroke-width:1.0;" x1="274.6025" x2="2000.1191" y1="254.5547" y2="254.5547"/><text fill="#000000" font-family="sans-serif" font-size="13" font-weight="bold" lengthAdjust="spacing" textLength="9.0454" x="281.6025" y="249.4888">4</text><text fill="#000000" font-family="sans-serif" font-size="13" lengthAdjust="spacing" textLength="227.1509" x="294.6479" y="249.4888">Passe le statut &#224; EN_VERIFICATION</text><polygon fill="#181818" points="618.751,279.6875,628.751,283.6875,618.751,287.6875,622.751,283.6875" style="stroke:#181818;stroke-width:1.0;"/><line style="stroke:#181818;stroke-width:1.0;" x1="274.6025" x2="624.751" y1="283.6875" y2="283.6875"/><text fill="#000000" font-family="sans-serif" font-size="13" font-weight="bold" lengthAdjust="spacing" textLength="9.0454" x="281.6025" y="278.6216">5</text><text fill="#000000" font-family="sans-serif" font-size="13" lengthAdjust="spacing" textLength="195.7871" x="294.6479" y="278.6216">appliquerR&#232;gles(signalement)</text><line style="stroke:#181818;stroke-width:1.0;" x1="630.751" x2="672.751" y1="327.9531" y2="327.9531"/><line style="stroke:#181818;stroke-width:1.0;" x1="672.751" x2="672.751" y1="327.9531" y2="340.9531"/><line style="stroke:#181818;stroke-width:1.0;" x1="631.751" x2="672.751" y1="340.9531" y2="340.9531"/><polygon fill="#181818" points="641.751,336.9531,631.751,340.9531,641.751,344.9531,637.751,340.9531" style="stroke:#181818;stroke-width:1.0;"/><text fill="#000000" font-family="sans-serif" font-size="13" font-weight="bold" lengthAdjust="spacing" textLength="9.0454" x="637.751" y="315.3208">6</text><text fill="#000000" font-family="sans-serif" font-size="13" lengthAdjust="spacing" textLength="324.1875" x="650.7964" y="307.7544">Validation des donn&#233;es, coh&#233;rence type / gravit&#233;,</text><text fill="#000000" font-family="sans-serif" font-size="13" lengthAdjust="spacing" textLength="124.9092" x="650.7964" y="322.8872">analyse temporelle</text><polygon fill="#181818" points="969.9839,366.0859,979.9839,370.0859,969.9839,374.0859,973.9839,370.0859" style="stroke:#181818;stroke-width:1.0;"/><line style="stroke:#181818;stroke-width:1.0;" x1="630.751" x2="975.9839" y1="370.0859" y2="370.0859"/><text fill="#000000" font-family="sans-serif" font-size="13" font-weight="bold" lengthAdjust="spacing" textLength="9.0454" x="637.751" y="365.02">7</text><text fill="#000000" font-family="sans-serif" font-size="13" lengthAdjust="spacing" textLength="224.8403" x="650.7964" y="365.02">rechercherSimilaires(signalement)</text><polygon fill="#181818" points="1994.1191,395.2188,2004.1191,399.2188,1994.1191,403.2188,1998.1191,399.2188" style="stroke:#181818;stroke-width:1.0;"/><line style="stroke:#181818;stroke-width:1.0;" x1="981.9839" x2="2000.1191" y1="399.2188" y2="399.2188"/><text fill="#000000" font-family="sans-serif" font-size="13" font-weight="bold" lengthAdjust="spacing" textLength="9.0454" x="988.9839" y="394.1528">8</text><text fill="#000000" font-family="sans-serif" font-size="13" lengthAdjust="spacing" textLength="436.0586" x="1002.0293" y="394.1528">Recherche spatio-temporelle de signalements et incidents proches</text><polygon fill="#181818" points="992.9839,424.3516,982.9839,428.3516,992.9839,432.3516,988.9839,428.3516" style="stroke:#181818;stroke-width:1.0;"/><line style="stroke:#181818;stroke-width:1.0;stroke-dasharray:2.0,2.0;" x1="986.9839" x2="2005.1191" y1="428.3516" y2="428.3516"/><text fill="#000000" font-family="sans-serif" font-size="13" font-weight="bold" lengthAdjust="spacing" textLength="9.0454" x="998.9839" y="423.2856">9</text><text fill="#000000" font-family="sans-serif" font-size="13" lengthAdjust="spacing" textLength="63.3052" x="1012.0293" y="423.2856">candidats</text><polygon fill="#181818" points="641.751,453.4844,631.751,457.4844,641.751,461.4844,637.751,457.4844" style="stroke:#181818;stroke-width:1.0;"/><line style="stroke:#181818;stroke-width:1.0;stroke-dasharray:2.0,2.0;" x1="635.751" x2="980.9839" y1="457.4844" y2="457.4844"/><text fill="#000000" font-family="sans-serif" font-size="13" font-weight="bold" lengthAdjust="spacing" textLength="18.0908" x="647.751" y="452.4185">10</text><text fill="#000000" font-family="sans-serif" font-size="13" lengthAdjust="spacing" textLength="293.0205" x="669.8418" y="452.4185">signalements similaires / doublons &#233;ventuels</text><polygon fill="#181818" points="1994.1191,482.6172,2004.1191,486.6172,1994.1191,490.6172,1998.1191,486.6172" style="stroke:#181818;stroke-width:1.0;"/><line style="stroke:#181818;stroke-width:1.0;" x1="630.751" x2="2000.1191" y1="486.6172" y2="486.6172"/><text fill="#000000" font-family="sans-serif" font-size="13" font-weight="bold" lengthAdjust="spacing" textLength="18.0908" x="637.751" y="481.5513">11</text><text fill="#000000" font-family="sans-serif" font-size="13" lengthAdjust="spacing" textLength="317.3765" x="659.8418" y="481.5513">Consulte les confirmations de l'incident candidat</text><polygon fill="#181818" points="285.6025,526.8828,275.6025,530.8828,285.6025,534.8828,281.6025,530.8828" style="stroke:#181818;stroke-width:1.0;"/><line style="stroke:#181818;stroke-width:1.0;stroke-dasharray:2.0,2.0;" x1="279.6025" x2="629.751" y1="530.8828" y2="530.8828"/><text fill="#000000" font-family="sans-serif" font-size="13" font-weight="bold" lengthAdjust="spacing" textLength="18.0908" x="291.6025" y="518.2505">12</text><text fill="#000000" font-family="sans-serif" font-size="13" lengthAdjust="spacing" textLength="271.4385" x="313.6934" y="510.6841">facteurs (r&#232;gles, proximit&#233; g&#233;ographique,</text><text fill="#000000" font-family="sans-serif" font-size="13" lengthAdjust="spacing" textLength="310.0576" x="313.6934" y="525.8169">similarit&#233;, confirmations, historique du compte)</text><path d="M180.0498,545.8828 L249.5391,545.8828 L249.5391,553.0156 L239.5391,563.0156 L180.0498,563.0156 L180.0498,545.8828 " fill="#EEEEEE" style="stroke:#000000;stroke-width:1.5;"/><rect fill="none" height="310.9375" style="stroke:#000000;stroke-width:1.5;" width="1762.9644" x="180.0498" y="545.8828"/><text fill="#000000" font-family="sans-serif" font-size="13" font-weight="bold" lengthAdjust="spacing" textLength="24.4893" x="195.0498" y="558.9497">par</text><text fill="#000000" font-family="sans-serif" font-size="11" font-weight="bold" lengthAdjust="spacing" textLength="160.5527" x="264.5391" y="558.0933">[analyses ind&#233;pendantes]</text><polygon fill="#181818" points="1107.7441,580.1484,1117.7441,584.1484,1107.7441,588.1484,1111.7441,584.1484" style="stroke:#181818;stroke-width:1.0;"/><line style="stroke:#181818;stroke-width:1.0;" x1="274.6025" x2="1113.7441" y1="584.1484" y2="584.1484"/><text fill="#000000" font-family="sans-serif" font-size="13" font-weight="bold" lengthAdjust="spacing" textLength="18.0908" x="281.6025" y="579.0825">13</text><text fill="#000000" font-family="sans-serif" font-size="13" lengthAdjust="spacing" textLength="260.2793" x="303.6934" y="579.0825">scorer(caract&#233;ristiques du signalement)</text><polygon fill="#181818" points="285.6025,609.2813,275.6025,613.2813,285.6025,617.2813,281.6025,613.2813" style="stroke:#181818;stroke-width:1.0;"/><line style="stroke:#181818;stroke-width:1.0;stroke-dasharray:2.0,2.0;" x1="279.6025" x2="1118.7441" y1="613.2813" y2="613.2813"/><text fill="#000000" font-family="sans-serif" font-size="13" font-weight="bold" lengthAdjust="spacing" textLength="18.0908" x="291.6025" y="608.2153">14</text><text fill="#000000" font-family="sans-serif" font-size="13" lengthAdjust="spacing" textLength="224.4468" x="313.6934" y="608.2153">score ML (classification, anomalie)</text><line style="stroke:#000000;stroke-width:1.0;stroke-dasharray:2.0,2.0;" x1="180.0498" x2="1943.0142" y1="622.2813" y2="622.2813"/><text fill="#000000" font-family="sans-serif" font-size="11" font-weight="bold" lengthAdjust="spacing" textLength="139.1489" x="185.0498" y="632.4917">[analyse multimodale]</text><path d="M190.0498,643.0859 L259.501,643.0859 L259.501,650.2188 L249.501,660.2188 L190.0498,660.2188 L190.0498,643.0859 " fill="#EEEEEE" style="stroke:#000000;stroke-width:1.5;"/><rect fill="none" height="75.3984" style="stroke:#000000;stroke-width:1.5;" width="1131.7695" x="190.0498" y="643.0859"/><text fill="#000000" font-family="sans-serif" font-size="13" font-weight="bold" lengthAdjust="spacing" textLength="24.4512" x="205.0498" y="656.1528">opt</text><text fill="#000000" font-family="sans-serif" font-size="11" font-weight="bold" lengthAdjust="spacing" textLength="236.4302" x="274.501" y="655.2964">[le signalement contient des preuves]</text><polygon fill="#181818" points="1231.2993,677.3516,1241.2993,681.3516,1231.2993,685.3516,1235.2993,681.3516" style="stroke:#181818;stroke-width:1.0;"/><line style="stroke:#181818;stroke-width:1.0;" x1="274.6025" x2="1237.2993" y1="681.3516" y2="681.3516"/><text fill="#000000" font-family="sans-serif" font-size="13" font-weight="bold" lengthAdjust="spacing" textLength="18.0908" x="281.6025" y="676.2856">15</text><text fill="#000000" font-family="sans-serif" font-size="13" lengthAdjust="spacing" textLength="202.6997" x="303.6934" y="676.2856">analyser(texte, photos, vid&#233;os)</text><polygon fill="#181818" points="285.6025,706.4844,275.6025,710.4844,285.6025,714.4844,281.6025,710.4844" style="stroke:#181818;stroke-width:1.0;"/><line style="stroke:#181818;stroke-width:1.0;stroke-dasharray:2.0,2.0;" x1="279.6025" x2="1242.2993" y1="710.4844" y2="710.4844"/><text fill="#000000" font-family="sans-serif" font-size="13" font-weight="bold" lengthAdjust="spacing" textLength="18.0908" x="291.6025" y="705.4185">16</text><text fill="#000000" font-family="sans-serif" font-size="13" lengthAdjust="spacing" textLength="262.7866" x="313.6934" y="705.4185">indicateurs de coh&#233;rence texte / m&#233;dias</text><line style="stroke:#000000;stroke-width:1.0;stroke-dasharray:2.0,2.0;" x1="180.0498" x2="1943.0142" y1="726.4844" y2="726.4844"/><text fill="#000000" font-family="sans-serif" font-size="11" font-weight="bold" lengthAdjust="spacing" textLength="167.3257" x="185.0498" y="736.6948">[r&#233;cup&#233;ration de contexte]</text><polygon fill="#181818" points="1359.9917,757.4219,1369.9917,761.4219,1359.9917,765.4219,1363.9917,761.4219" style="stroke:#181818;stroke-width:1.0;"/><line style="stroke:#181818;stroke-width:1.0;" x1="274.6025" x2="1365.9917" y1="761.4219" y2="761.4219"/><text fill="#000000" font-family="sans-serif" font-size="13" font-weight="bold" lengthAdjust="spacing" textLength="18.0908" x="281.6025" y="756.356">17</text><text fill="#000000" font-family="sans-serif" font-size="13" lengthAdjust="spacing" textLength="213.4146" x="303.6934" y="756.356">r&#233;cup&#233;rerContexte(signalement)</text><polygon fill="#181818" points="1836.7075,786.5547,1846.7075,790.5547,1836.7075,794.5547,1840.7075,790.5547" style="stroke:#181818;stroke-width:1.0;"/><line style="stroke:#181818;stroke-width:1.0;" x1="1371.9917" x2="1842.7075" y1="790.5547" y2="790.5547"/><text fill="#000000" font-family="sans-serif" font-size="13" font-weight="bold" lengthAdjust="spacing" textLength="18.0908" x="1378.9917" y="785.4888">18</text><text fill="#000000" font-family="sans-serif" font-size="13" lengthAdjust="spacing" textLength="430.625" x="1401.0825" y="785.4888">Recherche s&#233;mantique (incidents pass&#233;s, base de connaissances)</text><polygon fill="#181818" points="1382.9917,815.6875,1372.9917,819.6875,1382.9917,823.6875,1378.9917,819.6875" style="stroke:#181818;stroke-width:1.0;"/><line style="stroke:#181818;stroke-width:1.0;stroke-dasharray:2.0,2.0;" x1="1376.9917" x2="1847.7075" y1="819.6875" y2="819.6875"/><text fill="#000000" font-family="sans-serif" font-size="13" font-weight="bold" lengthAdjust="spacing" textLength="18.0908" x="1388.9917" y="814.6216">19</text><text fill="#000000" font-family="sans-serif" font-size="13" lengthAdjust="spacing" textLength="120.3643" x="1411.0825" y="814.6216">extraits pertinents</text><polygon fill="#181818" points="285.6025,844.8203,275.6025,848.8203,285.6025,852.8203,281.6025,848.8203" style="stroke:#181818;stroke-width:1.0;"/><line style="stroke:#181818;stroke-width:1.0;stroke-dasharray:2.0,2.0;" x1="279.6025" x2="1370.9917" y1="848.8203" y2="848.8203"/><text fill="#000000" font-family="sans-serif" font-size="13" font-weight="bold" lengthAdjust="spacing" textLength="18.0908" x="291.6025" y="843.7544">20</text><text fill="#000000" font-family="sans-serif" font-size="13" lengthAdjust="spacing" textLength="331.3032" x="313.6934" y="843.7544">contexte (indice compl&#233;mentaire, non d&#233;cisionnel)</text><line style="stroke:#181818;stroke-width:1.0;" x1="274.6025" x2="316.6025" y1="915.2188" y2="915.2188"/><line style="stroke:#181818;stroke-width:1.0;" x1="316.6025" x2="316.6025" y1="915.2188" y2="928.2188"/><line style="stroke:#181818;stroke-width:1.0;" x1="275.6025" x2="316.6025" y1="928.2188" y2="928.2188"/><polygon fill="#181818" points="285.6025,924.2188,275.6025,928.2188,285.6025,932.2188,281.6025,928.2188" style="stroke:#181818;stroke-width:1.0;"/><text fill="#000000" font-family="sans-serif" font-size="13" font-weight="bold" lengthAdjust="spacing" textLength="18.0908" x="281.6025" y="895.02">21</text><text fill="#000000" font-family="sans-serif" font-size="13" lengthAdjust="spacing" textLength="175.5952" x="303.6934" y="879.8872">Calcule le score de fiabilit&#233;</text><text fill="#000000" font-family="sans-serif" font-size="13" lengthAdjust="spacing" textLength="230.4834" x="303.6934" y="895.02">(agr&#233;gation pond&#233;r&#233;e des facteurs,</text><text fill="#000000" font-family="sans-serif" font-size="13" lengthAdjust="spacing" textLength="182.8506" x="303.6934" y="910.1528">pond&#233;rations configurables)</text><polygon fill="#181818" points="1994.1191,953.3516,2004.1191,957.3516,1994.1191,961.3516,1998.1191,957.3516" style="stroke:#181818;stroke-width:1.0;"/><line style="stroke:#181818;stroke-width:1.0;" x1="274.6025" x2="2000.1191" y1="957.3516" y2="957.3516"/><text fill="#000000" font-family="sans-serif" font-size="13" font-weight="bold" lengthAdjust="spacing" textLength="18.0908" x="281.6025" y="952.2856">22</text><text fill="#000000" font-family="sans-serif" font-size="13" lengthAdjust="spacing" textLength="312.7046" x="303.6934" y="952.2856">Enregistre EvaluationFiabilite et FacteurFiabilite</text><polygon fill="#181818" points="969.9839,982.4844,979.9839,986.4844,969.9839,990.4844,973.9839,986.4844" style="stroke:#181818;stroke-width:1.0;"/><line style="stroke:#181818;stroke-width:1.0;" x1="274.6025" x2="975.9839" y1="986.4844" y2="986.4844"/><text fill="#000000" font-family="sans-serif" font-size="13" font-weight="bold" lengthAdjust="spacing" textLength="18.0908" x="281.6025" y="981.4185">23</text><text fill="#000000" font-family="sans-serif" font-size="13" lengthAdjust="spacing" textLength="219.1528" x="303.6934" y="981.4185">correler(signalement) (voir DS05)</text><path d="M190.0498,1001.4844 L254.4927,1001.4844 L254.4927,1008.6172 L244.4927,1018.6172 L190.0498,1018.6172 L190.0498,1001.4844 " fill="#EEEEEE" style="stroke:#000000;stroke-width:1.5;"/><rect fill="none" height="315.9063" style="stroke:#000000;stroke-width:1.5;" width="2504.6973" x="190.0498" y="1001.4844"/><text fill="#000000" font-family="sans-serif" font-size="13" font-weight="bold" lengthAdjust="spacing" textLength="19.4429" x="205.0498" y="1014.5513">alt</text><text fill="#000000" font-family="sans-serif" font-size="11" font-weight="bold" lengthAdjust="spacing" textLength="113.937" x="269.4927" y="1013.6948">[confiance FORTE]</text><polygon fill="#181818" points="2417.8003,1035.75,2427.8003,1039.75,2417.8003,1043.75,2421.8003,1039.75" style="stroke:#181818;stroke-width:1.0;"/><line style="stroke:#181818;stroke-width:1.0;" x1="274.6025" x2="2423.8003" y1="1039.75" y2="1039.75"/><text fill="#000000" font-family="sans-serif" font-size="13" font-weight="bold" lengthAdjust="spacing" textLength="18.0908" x="281.6025" y="1034.6841">24</text><text fill="#000000" font-family="sans-serif" font-size="13" lengthAdjust="spacing" textLength="107.2183" x="303.6934" y="1034.6841">d&#233;cision VERIFIE</text><polygon fill="#181818" points="2017.1191,1064.8828,2007.1191,1068.8828,2017.1191,1072.8828,2013.1191,1068.8828" style="stroke:#181818;stroke-width:1.0;"/><line style="stroke:#181818;stroke-width:1.0;" x1="2011.1191" x2="2428.8003" y1="1068.8828" y2="1068.8828"/><text fill="#000000" font-family="sans-serif" font-size="13" font-weight="bold" lengthAdjust="spacing" textLength="18.0908" x="2023.1191" y="1063.8169">25</text><text fill="#000000" font-family="sans-serif" font-size="13" lengthAdjust="spacing" textLength="231.6133" x="2045.21" y="1063.8169">Statut VERIFIE + HistoriqueIncident</text><rect fill="none" height="39.1016" style="stroke:#000000;stroke-width:1.5;" width="263.2578" x="2360.249" y="1076.8828"/><path d="M2360.249,1076.8828 L2425.249,1076.8828 L2425.249,1083.8828 L2415.249,1093.8828 L2360.249,1093.8828 L2360.249,1076.8828 " fill="#EEEEEE" style="stroke:#000000;stroke-width:2.0;"/><text fill="#000000" font-family="sans-serif" font-size="13" font-weight="bold" lengthAdjust="spacing" textLength="20.8838" x="2373.249" y="1090.9497">ref</text><text fill="#000000" font-family="sans-serif" font-size="12" lengthAdjust="spacing" textLength="255.2578" x="2364.249" y="1109.0215">DS06 &#8212; Diffusion  /  DS08 &#8212; Transmission</text><line style="stroke:#000000;stroke-width:1.0;stroke-dasharray:2.0,2.0;" x1="190.0498" x2="2694.7471" y1="1121.9844" y2="1121.9844"/><text fill="#000000" font-family="sans-serif" font-size="11" font-weight="bold" lengthAdjust="spacing" textLength="135.2871" x="195.0498" y="1132.1948">[confiance MOYENNE]</text><polygon fill="#181818" points="2417.8003,1152.9219,2427.8003,1156.9219,2417.8003,1160.9219,2421.8003,1156.9219" style="stroke:#181818;stroke-width:1.0;"/><line style="stroke:#181818;stroke-width:1.0;" x1="274.6025" x2="2423.8003" y1="1156.9219" y2="1156.9219"/><text fill="#000000" font-family="sans-serif" font-size="13" font-weight="bold" lengthAdjust="spacing" textLength="18.0908" x="281.6025" y="1151.856">26</text><text fill="#000000" font-family="sans-serif" font-size="13" lengthAdjust="spacing" textLength="242.144" x="303.6934" y="1151.856">d&#233;cision REVUE_MANUELLE_REQUISE</text><polygon fill="#181818" points="2017.1191,1182.0547,2007.1191,1186.0547,2017.1191,1190.0547,2013.1191,1186.0547" style="stroke:#181818;stroke-width:1.0;"/><line style="stroke:#181818;stroke-width:1.0;" x1="2011.1191" x2="2428.8003" y1="1186.0547" y2="1186.0547"/><text fill="#000000" font-family="sans-serif" font-size="13" font-weight="bold" lengthAdjust="spacing" textLength="18.0908" x="2023.1191" y="1180.9888">27</text><text fill="#000000" font-family="sans-serif" font-size="13" lengthAdjust="spacing" textLength="318.8682" x="2045.21" y="1180.9888">Maintient EN_VERIFICATION + HistoriqueIncident</text><path d="M2434,1199.0547 L2434,1239.0547 L2684,1239.0547 L2684,1209.0547 L2674,1199.0547 L2434,1199.0547 " fill="#FEFFDD" style="stroke:#181818;stroke-width:0.5;"/><path d="M2674,1199.0547 L2674,1209.0547 L2684,1209.0547 L2674,1199.0547 " fill="#FEFFDD" style="stroke:#181818;stroke-width:0.5;"/><text fill="#000000" font-family="sans-serif" font-size="13" lengthAdjust="spacing" textLength="229.7471" x="2440" y="1216.1216">Un op&#233;rateur / mod&#233;rateur tranche</text><text fill="#000000" font-family="sans-serif" font-size="13" lengthAdjust="spacing" textLength="182.3936" x="2440" y="1231.2544">via l'application web (DS11)</text><line style="stroke:#000000;stroke-width:1.0;stroke-dasharray:2.0,2.0;" x1="190.0498" x2="2694.7471" y1="1245.3203" y2="1245.3203"/><text fill="#000000" font-family="sans-serif" font-size="11" font-weight="bold" lengthAdjust="spacing" textLength="116.6118" x="195.0498" y="1255.5308">[confiance FAIBLE]</text><polygon fill="#181818" points="2417.8003,1276.2578,2427.8003,1280.2578,2417.8003,1284.2578,2421.8003,1280.2578" style="stroke:#181818;stroke-width:1.0;"/><line style="stroke:#181818;stroke-width:1.0;" x1="274.6025" x2="2423.8003" y1="1280.2578" y2="1280.2578"/><text fill="#000000" font-family="sans-serif" font-size="13" font-weight="bold" lengthAdjust="spacing" textLength="18.0908" x="281.6025" y="1275.1919">28</text><text fill="#000000" font-family="sans-serif" font-size="13" lengthAdjust="spacing" textLength="229.3599" x="303.6934" y="1275.1919">d&#233;cision REJETE ou revue manuelle</text><polygon fill="#181818" points="2017.1191,1305.3906,2007.1191,1309.3906,2017.1191,1313.3906,2013.1191,1309.3906" style="stroke:#181818;stroke-width:1.0;"/><line style="stroke:#181818;stroke-width:1.0;" x1="2011.1191" x2="2428.8003" y1="1309.3906" y2="1309.3906"/><text fill="#000000" font-family="sans-serif" font-size="13" font-weight="bold" lengthAdjust="spacing" textLength="18.0908" x="2023.1191" y="1304.3247">29</text><text fill="#000000" font-family="sans-serif" font-size="13" lengthAdjust="spacing" textLength="377.5903" x="2045.21" y="1304.3247">Statut REJETE (ou EN_VERIFICATION) + HistoriqueIncident</text><path d="M37,1329.3906 L37,1399.3906 L510,1399.3906 L510,1339.3906 L500,1329.3906 L37,1329.3906 " fill="#FEFFDD" style="stroke:#181818;stroke-width:0.5;"/><path d="M500,1329.3906 L500,1339.3906 L510,1339.3906 L500,1329.3906 " fill="#FEFFDD" style="stroke:#181818;stroke-width:0.5;"/><text fill="#000000" font-family="sans-serif" font-size="13" lengthAdjust="spacing" textLength="398.3345" x="43" y="1346.4575">Les niveaux de confiance et leurs seuils sont des param&#232;tres</text><text fill="#000000" font-family="sans-serif" font-size="13" lengthAdjust="spacing" textLength="452.2642" x="43" y="1361.5903">configurables (ParametrePlateforme), &#224; calibrer exp&#233;rimentalement :</text><text fill="#000000" font-family="sans-serif" font-size="13" lengthAdjust="spacing" textLength="288.4312" x="43" y="1376.7231">aucune valeur n'est d&#233;finie dans ce mod&#232;le.</text><text fill="#000000" font-family="sans-serif" font-size="13" lengthAdjust="spacing" textLength="409.2017" x="43" y="1391.856">Le RAG et le ML alimentent le score ; ils ne d&#233;cident pas seuls.</text><!--SRC=[VLRRRXit47tNLmpoOWcrqmPeYo850lYoTjL8TYhP1We42AZTaKIK8hSaT-EyzIFw0NsClaD_qY_f6Uwk9AjA7doHE9SpPyuC6NKqJ5VJxxwdV__wcnutQw_dEbTHEql5IMKfw8LLXbTi8t6aN9cyCbHK57BdcGgckLOpRNJSh7kgYivMgndxNlX3sr9vjQAmL8NxgEs2vie4tZ_XFoksEOyv1BNWSuDSP7WUUpqOH9thKY7jYx4hAi2Sxg24zxO_uTBv60OlI0MQ3c-E-Zoh24wFlFlOU3vcaqFFo9MNolpcyy8mSgqswwZP9_j9TlCbUp3YDslJvMeX36sk2y7SvBkyEyWtPL_hd6ayIkVZqV7ZuaIX-a-10QSoKQzS0J8Qb_5nbydvJGFv_APNgAXcAZ2zk93V2QsrIeDvT43urBRW9wevZyvhDWtQjnT7F0juRjOSaiNLnL7YjrKde-7jPQ-77j7PcpV2EBsckkaC-xukzZexwCdnsHl4XT7bKla5xulmb4hFLStXb9Ow25HeIFIOkrKPkT555LCF7Y9q6PIqPm0_qTpcS_GSf8XwNnazP3ixww1rzRKiHNwA_0pMEnN01AeCI5H5sln3sUq7M0olXvVdzyExsrvd3xd0GPMb4Q1-qaYg7_Oh5fkjwQCokcW7K22qM4w1P0d8CYyKFvLCtzB2grhcxlIzRRL1aLUO2ZQ6kwZG6w9wpfVivMUgLzeexGz1Y5rNtwIpfb0AbBDTME5apo_8Kj1Thz4R1w_GqTdapfKjfAJGvDXM-YnCsC92OOMhPiRPG9jrZTEAJUZAQMI1Cyo0j218X-RQhn9bgMNcf0EqJTruRniyLxc88b2_7N5HbNi21B19YytQWTfoAHq3jmqqdvX-dksu1WTfVL7RaW1wYiswP5jWFi0DKIkDyKX8a3Ng-pd4cKUHP8WIBQGLkzyV4ljT2StwnLVzt42DMoMV8gzRGKE00TguWq5xImEnN1cJVlUskoXTopyYktR8OBc3EnOXDz5yFmq5Q5kwwC13hL6Z2uFa0CiTK5Glq1BTQPvsAfOGw3QsQw6Lv0973MYiqRmgOTWDmcuEjtYmrKJOdINxozQaVy2R6CB-xO6oD-iL6f9QrzzJCCZSh57HxDYQb71l6sqtwP7FAor-Z1re9KINSSj01rtI5BANHIO6wM4jYZybApMY41rGhSNkxGaJtGffeboccxVPEl-_Uh7tr09SB1h2IYUQmsTEtUpq3Z6t9-sq93KlAgzcHehRtt6PzRo06f4fgvMfaiTrcv1bxA-RgDllElTswd4Pie5Izhj1_TffBm-E7p0boiG6WN1BrtUJ-spNNbmPieexLgZPhc8W9ntAQRE0sqFwXdxP3cHt0y73yvnSpRuDYlG_flVEbPxFgnGTCfIlVqfVttjbmmezbviXwN67SdptUtPx-nMSa-pn8VimFhzzo4QZxCCa- -rXE3s4FLQw7RQ3U-DB5LWyCiZhnJAIcxSv7op6EFLItX-O8rTiFq6L5Yf_Rskji13J_TC-wpxoZFfNqrUl1eUrNPyFBqPVBUtNx3uZLu7G6cE3-QdILNEq9wrr7-O7HGwELvaqdmfDlPA76T48yhMwPbKzjTFOWcLPOB9K0bVQu8_hLjVkdeV_CuLJ_vqSCixUuPd6S-TNZAS1xcyyRFKCImGJBPpgD9pjPdoDEAhAAujNWvAaP4yuH65chgt6Z2cP9KuT-6puPSATja12AMiQuIMMXDjEyCyam14rKPmkBAmVASY4bq97Qlj_]--></g></svg>