<svg xmlns="http://www.w3.org/2000/svg" xmlns:xlink="http://www.w3.org/1999/xlink" contentStyleType="text/css" height="1508px" preserveAspectRatio="none" style="width:1929px;height:1508px;background:#FFFFFF;" version="1.1" viewBox="0 0 1929 1508" width="1929px" zoomAndPan="magnify"><title>DS11 &#8212; Administration d'un incident (application web)</title><defs/><g><text fill="#000000" font-family="sans-serif" font-size="14" font-weight="bold" lengthAdjust="spacing" textLength="433.3301" x="749.7563" y="27.9951">DS11 &#8212; Administration d'un incident (application web)</text><rect fill="none" height="484.375" style="stroke:#000000;stroke-width:1.5;" width="1764.1816" x="10" y="735.6797"/><line style="stroke:#181818;stroke-width:0.5;stroke-dasharray:5.0,5.0;" x1="79" x2="79" y1="134.8906" y2="1411.8516"/><line style="stroke:#181818;stroke-width:0.5;stroke-dasharray:5.0,5.0;" x1="503.4355" x2="503.4355" y1="134.8906" y2="1411.8516"/><line style="stroke:#181818;stroke-width:0.5;stroke-dasharray:5.0,5.0;" x1="768.7534" x2="768.7534" y1="134.8906" y2="1411.8516"/><line style="stroke:#181818;stroke-width:0.5;stroke-dasharray:5.0,5.0;" x1="1131.3101" x2="1131.3101" y1="134.8906" y2="1411.8516"/><line style="stroke:#181818;stroke-width:0.5;stroke-dasharray:5.0,5.0;" x1="1258.48" x2="1258.48" y1="134.8906" y2="1411.8516"/><line style="stroke:#181818;stroke-width:0.5;stroke-dasharray:5.0,5.0;" x1="1504.6621" x2="1504.6621" y1="134.8906" y2="1411.8516"/><line style="stroke:#181818;stroke-width:0.5;stroke-dasharray:5.0,5.0;" x1="1700.9717" x2="1700.9717" y1="134.8906" y2="1411.8516"/><line style="stroke:#181818;stroke-width:0.5;stroke-dasharray:5.0,5.0;" x1="1851.1816" x2="1851.1816" y1="134.8906" y2="1411.8516"/><text fill="#000000" font-family="sans-serif" font-size="14" lengthAdjust="spacing" textLength="113.7705" x="20" y="115.292">Administrateur /</text><text fill="#000000" font-family="sans-serif" font-size="14" lengthAdjust="spacing" textLength="81.2109" x="36.2798" y="131.5889">Mod&#233;rateur</text><ellipse cx="79.8853" cy="50.7969" fill="#E2E2F0" rx="8" ry="8" style="stroke:#181818;stroke-width:0.5;"/><path d="M79.8853,58.7969 L79.8853,85.7969 M66.8853,66.7969 L92.8853,66.7969 M79.8853,85.7969 L66.8853,100.7969 M79.8853,85.7969 L92.8853,100.7969 " fill="none" style="stroke:#181818;stroke-width:0.5;"/><text fill="#000000" font-family="sans-serif" font-size="14" lengthAdjust="spacing" textLength="113.7705" x="20" y="1423.8467">Administrateur /</text><text fill="#000000" font-family="sans-serif" font-size="14" lengthAdjust="spacing" textLength="81.2109" x="36.2798" y="1440.1436">Mod&#233;rateur</text><ellipse cx="79.8853" cy="1451.9453" fill="#E2E2F0" rx="8" ry="8" style="stroke:#181818;stroke-width:0.5;"/><path d="M79.8853,1459.9453 L79.8853,1486.9453 M66.8853,1467.9453 L92.8853,1467.9453 M79.8853,1486.9453 L66.8853,1501.9453 M79.8853,1486.9453 L92.8853,1501.9453 " fill="none" style="stroke:#181818;stroke-width:0.5;"/><rect fill="#E2E2F0" height="46.5938" rx="2.5" ry="2.5" style="stroke:#181818;stroke-width:0.5;" width="128.4268" x="439.4355" y="87.2969"/><text fill="#000000" font-family="sans-serif" font-size="14" lengthAdjust="spacing" textLength="114.0166" x="446.6406" y="107.292">Application Web</text><text fill="#000000" font-family="sans-serif" font-size="14" lengthAdjust="spacing" textLength="114.4268" x="446.4355" y="123.5889">d'administration</text><rect fill="#E2E2F0" height="46.5938" rx="2.5" ry="2.5" style="stroke:#181818;stroke-width:0.5;" width="128.4268" x="439.4355" y="1410.8516"/><text fill="#000000" font-family="sans-serif" font-size="14" lengthAdjust="spacing" textLength="114.0166" x="446.6406" y="1430.8467">Application Web</text><text fill="#000000" font-family="sans-serif" font-size="14" lengthAdjust="spacing" textLength="114.4268" x="446.4355" y="1447.1436">d'administration</text><rect fill="#E2E2F0" height="46.5938" rx="2.5" ry="2.5" style="stroke:#181818;stroke-width:0.5;" width="105.916" x="716.7534" y="87.2969"/><text fill="#000000" font-family="sans-serif" font-size="14" lengthAdjust="spacing" textLength="91.916" x="723.7534" y="107.292">API CamAlert</text><text fill="#000000" font-family="sans-serif" font-size="14" lengthAdjust="spacing" textLength="71.2852" x="734.0688" y="123.5889">(Backend)</text><rect fill="#E2E2F0" height="46.5938" rx="2.5" ry="2.5" style="stroke:#181818;stroke-width:0.5;" width="105.916" x="716.7534" y="1410.8516"/><text fill="#000000" font-family="sans-serif" font-size="14" lengthAdjust="spacing" textLength="91.916" x="723.7534" y="1430.8467">API CamAlert</text><text fill="#000000" font-family="sans-serif" font-size="14" lengthAdjust="spacing" textLength="71.2852" x="734.0688" y="1447.1436">(Backend)</text><rect fill="#E2E2F0" height="30.2969" rx="2.5" ry="2.5" style="stroke:#181818;stroke-width:0.5;" width="102.1699" x="1080.3101" y="103.5938"/><text fill="#000000" font-family="sans-serif" font-size="14" lengthAdjust="spacing" textLength="88.1699" x="1087.3101" y="123.5889">Module Auth</text><rect fill="#E2E2F0" height="30.2969" rx="2.5" ry="2.5" style="stroke:#181818;stroke-width:0.5;" width="102.1699" x="1080.3101" y="1410.8516"/><text fill="#000000" font-family="sans-serif" font-size="14" lengthAdjust="spacing" textLength="88.1699" x="1087.3101" y="1430.8467">Module Auth</text><rect fill="#E2E2F0" height="30.2969" rx="2.5" ry="2.5" style="stroke:#181818;stroke-width:0.5;" width="133.1025" x="1192.48" y="103.5938"/><text fill="#000000" font-family="sans-serif" font-size="14" lengthAdjust="spacing" textLength="119.1025" x="1199.48" y="123.5889">Module Incidents</text><rect fill="#E2E2F0" height="30.2969" rx="2.5" ry="2.5" style="stroke:#181818;stroke-width:0.5;" width="133.1025" x="1192.48" y="1410.8516"/><text fill="#000000" font-family="sans-serif" font-size="14" lengthAdjust="spacing" textLength="119.1025" x="1199.48" y="1430.8467">Module Incidents</text><rect fill="#E2E2F0" height="30.2969" rx="2.5" ry="2.5" style="stroke:#181818;stroke-width:0.5;" width="106.0732" x="1451.6621" y="103.5938"/><text fill="#000000" font-family="sans-serif" font-size="14" lengthAdjust="spacing" textLength="92.0732" x="1458.6621" y="123.5889">Module Audit</text><rect fill="#E2E2F0" height="30.2969" rx="2.5" ry="2.5" style="stroke:#181818;stroke-width:0.5;" width="106.0732" x="1451.6621" y="1410.8516"/><text fill="#000000" font-family="sans-serif" font-size="14" lengthAdjust="spacing" textLength="92.0732" x="1458.6621" y="1430.8467">Module Audit</text><text fill="#000000" font-family="sans-serif" font-size="14" lengthAdjust="spacing" textLength="120.21" x="1637.9717" y="131.5889">Base de donn&#233;es</text><path d="M1683.0767,82.5938 C1683.0767,72.5938 1701.0767,72.5938 1701.0767,72.5938 C1701.0767,72.5938 1719.0767,72.5938 1719.0767,82.5938 L1719.0767,108.5938 C1719.0767,118.5938 1701.0767,118.5938 1701.0767,118.5938 C1701.0767,118.5938 1683.0767,118.5938 1683.0767,108.5938 L1683.0767,82.5938 " fill="#E2E2F0" style="stroke:#181818;stroke-width:1.5;"/><path d="M1683.0767,82.5938 C1683.0767,92.5938 1701.0767,92.5938 1701.0767,92.5938 C1701.0767,92.5938 1719.0767,92.5938 1719.0767,82.5938 " fill="none" style="stroke:#181818;stroke-width:1.5;"/><text fill="#000000" font-family="sans-serif" font-size="14" lengthAdjust="spacing" textLength="120.21" x="1637.9717" y="1423.8467">Base de donn&#233;es</text><path d="M1683.0767,1437.1484 C1683.0767,1427.1484 1701.0767,1427.1484 1701.0767,1427.1484 C1701.0767,1427.1484 1719.0767,1427.1484 1719.0767,1437.1484 L1719.0767,1463.1484 C1719.0767,1473.1484 1701.0767,1473.1484 1701.0767,1473.1484 C1701.0767,1473.1484 1683.0767,1473.1484 1683.0767,1463.1484 L1683.0767,1437.1484 " fill="#E2E2F0" style="stroke:#181818;stroke-width:1.5;"/><path d="M1683.0767,1437.1484 C1683.0767,1447.1484 1701.0767,1447.1484 1701.0767,1447.1484 C1701.0767,1447.1484 1719.0767,1447.1484 1719.0767,1437.1484 " fill="none" style="stroke:#181818;stroke-width:1.5;"/><text fill="#000000" font-family="sans-serif" font-size="14" lengthAdjust="spacing" textLength="148.6611" x="1774.1816" y="131.5889">Stockage multim&#233;dia</text><path d="M1833.5122,82.5938 C1833.5122,72.5938 1851.5122,72.5938 1851.5122,72.5938 C1851.5122,72.5938 1869.5122,72.5938 1869.5122,82.5938 L1869.5122,108.5938 C1869.5122,118.5938 1851.5122,118.5938 1851.5122,118.5938 C1851.5122,118.5938 1833.5122,118.5938 1833.5122,108.5938 L1833.5122,82.5938 " fill="#E2E2F0" style="stroke:#181818;stroke-width:1.5;"/><path d="M1833.5122,82.5938 C1833.5122,92.5938 1851.5122,92.5938 1851.5122,92.5938 C1851.5122,92.5938 1869.5122,92.5938 1869.5122,82.5938 " fill="none" style="stroke:#181818;stroke-width:1.5;"/><text fill="#000000" font-family="sans-serif" font-size="14" lengthAdjust="spacing" textLength="148.6611" x="1774.1816" y="1423.8467">Stockage multim&#233;dia</text><path d="M1833.5122,1437.1484 C1833.5122,1427.1484 1851.5122,1427.1484 1851.5122,1427.1484 C1851.5122,1427.1484 1869.5122,1427.1484 1869.5122,1437.1484 L1869.5122,1463.1484 C1869.5122,1473.1484 1851.5122,1473.1484 1851.5122,1473.1484 C1851.5122,1473.1484 1833.5122,1473.1484 1833.5122,1463.1484 L1833.5122,1437.1484 " fill="#E2E2F0" style="stroke:#181818;stroke-width:1.5;"/><path d="M1833.5122,1437.1484 C1833.5122,1447.1484 1851.5122,1447.1484 1851.5122,1447.1484 C1851.5122,1447.1484 1869.5122,1447.1484 1869.5122,1437.1484 " fill="none" style="stroke:#181818;stroke-width:1.5;"/><polygon fill="#181818" points="491.6489,177.1563,501.6489,181.1563,491.6489,185.1563,495.6489,181.1563" style="stroke:#181818;stroke-width:1.0;"/><line style="stroke:#181818;stroke-width:1.0;" x1="79.8853" x2="497.6489" y1="181.1563" y2="181.1563"/><text fill="#000000" font-family="sans-serif" font-size="13" font-weight="bold" lengthAdjust="spacing" textLength="9.0454" x="86.8853" y="168.5239">1</text><text fill="#000000" font-family="sans-serif" font-size="13" lengthAdjust="spacing" textLength="276.5674" x="99.9307" y="160.9575">Ouvre la liste des signalements / incidents</text><text fill="#000000" font-family="sans-serif" font-size="13" lengthAdjust="spacing" textLength="386.7183" x="99.9307" y="176.0903">et applique des filtres (type, gravit&#233;, distance, date, statut)</text><polygon fill="#181818" points="757.7114,206.2891,767.7114,210.2891,757.7114,214.2891,761.7114,210.2891" style="stroke:#181818;stroke-width:1.0;"/><line style="stroke:#181818;stroke-width:1.0;" x1="503.6489" x2="763.7114" y1="210.2891" y2="210.2891"/><text fill="#000000" font-family="sans-serif" font-size="13" font-weight="bold" lengthAdjust="spacing" textLength="9.0454" x="510.6489" y="205.2231">2</text><text fill="#000000" font-family="sans-serif" font-size="13" lengthAdjust="spacing" textLength="177.1504" x="523.6943" y="205.2231">rechercherIncidents(filtres)</text><polygon fill="#181818" points="1119.395,235.4219,1129.395,239.4219,1119.395,243.4219,1123.395,239.4219" style="stroke:#181818;stroke-width:1.0;"/><line style="stroke:#181818;stroke-width:1.0;" x1="769.7114" x2="1125.395" y1="239.4219" y2="239.4219"/><text fill="#000000" font-family="sans-serif" font-size="13" font-weight="bold" lengthAdjust="spacing" textLength="9.0454" x="776.7114" y="234.356">3</text><text fill="#000000" font-family="sans-serif" font-size="13" lengthAdjust="spacing" textLength="324.6382" x="789.7568" y="234.356">v&#233;rifierPermission(jeton, CONSULTER_INCIDENTS)</text><polygon fill="#181818" points="780.7114,264.5547,770.7114,268.5547,780.7114,272.5547,776.7114,268.5547" style="stroke:#181818;stroke-width:1.0;"/><line style="stroke:#181818;stroke-width:1.0;stroke-dasharray:2.0,2.0;" x1="774.7114" x2="1130.395" y1="268.5547" y2="268.5547"/><text fill="#000000" font-family="sans-serif" font-size="13" font-weight="bold" lengthAdjust="spacing" textLength="9.0454" x="786.7114" y="263.4888">4</text><text fill="#000000" font-family="sans-serif" font-size="13" lengthAdjust="spacing" textLength="59.8076" x="799.7568" y="263.4888">accord&#233;e</text><polygon fill="#181818" points="1247.0313,293.6875,1257.0313,297.6875,1247.0313,301.6875,1251.0313,297.6875" style="stroke:#181818;stroke-width:1.0;"/><line style="stroke:#181818;stroke-width:1.0;" x1="769.7114" x2="1253.0313" y1="297.6875" y2="297.6875"/><text fill="#000000" font-family="sans-serif" font-size="13" font-weight="bold" lengthAdjust="spacing" textLength="9.0454" x="776.7114" y="292.6216">5</text><text fill="#000000" font-family="sans-serif" font-size="13" lengthAdjust="spacing" textLength="117.9585" x="789.7568" y="292.6216">rechercher(filtres)</text><polygon fill="#181818" points="1689.0767,322.8203,1699.0767,326.8203,1689.0767,330.8203,1693.0767,326.8203" style="stroke:#181818;stroke-width:1.0;"/><line style="stroke:#181818;stroke-width:1.0;" x1="1259.0313" x2="1695.0767" y1="326.8203" y2="326.8203"/><text fill="#000000" font-family="sans-serif" font-size="13" font-weight="bold" lengthAdjust="spacing" textLength="9.0454" x="1266.0313" y="321.7544">6</text><text fill="#000000" font-family="sans-serif" font-size="13" lengthAdjust="spacing" textLength="96.9858" x="1279.0767" y="321.7544">Requ&#234;te filtr&#233;e</text><polygon fill="#181818" points="1270.0313,351.9531,1260.0313,355.9531,1270.0313,359.9531,1266.0313,355.9531" style="stroke:#181818;stroke-width:1.0;"/><line style="stroke:#181818;stroke-width:1.0;stroke-dasharray:2.0,2.0;" x1="1264.0313" x2="1700.0767" y1="355.9531" y2="355.9531"/><text fill="#000000" font-family="sans-serif" font-size="13" font-weight="bold" lengthAdjust="spacing" textLength="9.0454" x="1276.0313" y="350.8872">7</text><text fill="#000000" font-family="sans-serif" font-size="13" lengthAdjust="spacing" textLength="58.9697" x="1289.0767" y="350.8872">incidents</text><polygon fill="#181818" points="780.7114,381.0859,770.7114,385.0859,780.7114,389.0859,776.7114,385.0859" style="stroke:#181818;stroke-width:1.0;"/><line style="stroke:#181818;stroke-width:1.0;stroke-dasharray:2.0,2.0;" x1="774.7114" x2="1258.0313" y1="385.0859" y2="385.0859"/><text fill="#000000" font-family="sans-serif" font-size="13" font-weight="bold" lengthAdjust="spacing" textLength="9.0454" x="786.7114" y="380.02">8</text><text fill="#000000" font-family="sans-serif" font-size="13" lengthAdjust="spacing" textLength="27.0918" x="799.7568" y="380.02">liste</text><polygon fill="#181818" points="514.6489,410.2188,504.6489,414.2188,514.6489,418.2188,510.6489,414.2188" style="stroke:#181818;stroke-width:1.0;"/><line style="stroke:#181818;stroke-width:1.0;stroke-dasharray:2.0,2.0;" x1="508.6489" x2="768.7114" y1="414.2188" y2="414.2188"/><text fill="#000000" font-family="sans-serif" font-size="13" font-weight="bold" lengthAdjust="spacing" textLength="9.0454" x="520.6489" y="409.1528">9</text><text fill="#000000" font-family="sans-serif" font-size="13" lengthAdjust="spacing" textLength="117.3491" x="533.6943" y="409.1528">liste des incidents</text><polygon fill="#181818" points="90.8853,439.3516,80.8853,443.3516,90.8853,447.3516,86.8853,443.3516" style="stroke:#181818;stroke-width:1.0;"/><line style="stroke:#181818;stroke-width:1.0;stroke-dasharray:2.0,2.0;" x1="84.8853" x2="502.6489" y1="443.3516" y2="443.3516"/><text fill="#000000" font-family="sans-serif" font-size="13" font-weight="bold" lengthAdjust="spacing" textLength="18.0908" x="96.8853" y="438.2856">10</text><text fill="#000000" font-family="sans-serif" font-size="13" lengthAdjust="spacing" textLength="91.9775" x="118.9761" y="438.2856">Affiche la liste</text><polygon fill="#181818" points="491.6489,468.4844,501.6489,472.4844,491.6489,476.4844,495.6489,472.4844" style="stroke:#181818;stroke-width:1.0;"/><line style="stroke:#181818;stroke-width:1.0;" x1="79.8853" x2="497.6489" y1="472.4844" y2="472.4844"/><text fill="#000000" font-family="sans-serif" font-size="13" font-weight="bold" lengthAdjust="spacing" textLength="18.0908" x="86.8853" y="467.4185">11</text><text fill="#000000" font-family="sans-serif" font-size="13" lengthAdjust="spacing" textLength="153.0864" x="108.9761" y="467.4185">S&#233;lectionne un incident</text><polygon fill="#181818" points="757.7114,497.6172,767.7114,501.6172,757.7114,505.6172,761.7114,501.6172" style="stroke:#181818;stroke-width:1.0;"/><line style="stroke:#181818;stroke-width:1.0;" x1="503.6489" x2="763.7114" y1="501.6172" y2="501.6172"/><text fill="#000000" font-family="sans-serif" font-size="13" font-weight="bold" lengthAdjust="spacing" textLength="18.0908" x="510.6489" y="496.5513">12</text><text fill="#000000" font-family="sans-serif" font-size="13" lengthAdjust="spacing" textLength="165.9912" x="532.7397" y="496.5513">obtenirD&#233;tails(idIncident)</text><polygon fill="#181818" points="1247.0313,526.75,1257.0313,530.75,1247.0313,534.75,1251.0313,530.75" style="stroke:#181818;stroke-width:1.0;"/><line style="stroke:#181818;stroke-width:1.0;" x1="769.7114" x2="1253.0313" y1="530.75" y2="530.75"/><text fill="#000000" font-family="sans-serif" font-size="13" font-weight="bold" lengthAdjust="spacing" textLength="18.0908" x="776.7114" y="525.6841">13</text><text fill="#000000" font-family="sans-serif" font-size="13" lengthAdjust="spacing" textLength="117.7363" x="798.8022" y="525.6841">d&#233;tails(idIncident)</text><polygon fill="#181818" points="1689.0767,571.0156,1699.0767,575.0156,1689.0767,579.0156,1693.0767,575.0156" style="stroke:#181818;stroke-width:1.0;"/><line style="stroke:#181818;stroke-width:1.0;" x1="1259.0313" x2="1695.0767" y1="575.0156" y2="575.0156"/><text fill="#000000" font-family="sans-serif" font-size="13" font-weight="bold" lengthAdjust="spacing" textLength="18.0908" x="1266.0313" y="562.3833">14</text><text fill="#000000" font-family="sans-serif" font-size="13" lengthAdjust="spacing" textLength="319.1602" x="1288.1221" y="554.8169">Charge incident, signalements, score de fiabilit&#233;,</text><text fill="#000000" font-family="sans-serif" font-size="13" lengthAdjust="spacing" textLength="162.5635" x="1288.1221" y="569.9497">confirmations, historique</text><polygon fill="#181818" points="1839.5122,600.1484,1849.5122,604.1484,1839.5122,608.1484,1843.5122,604.1484" style="stroke:#181818;stroke-width:1.0;"/><line style="stroke:#181818;stroke-width:1.0;" x1="1259.0313" x2="1845.5122" y1="604.1484" y2="604.1484"/><text fill="#000000" font-family="sans-serif" font-size="13" font-weight="bold" lengthAdjust="spacing" textLength="18.0908" x="1266.0313" y="599.0825">15</text><text fill="#000000" font-family="sans-serif" font-size="13" lengthAdjust="spacing" textLength="127.4102" x="1288.1221" y="599.0825">obtenirUrl(preuves)</text><polygon fill="#181818" points="1270.0313,629.2813,1260.0313,633.2813,1270.0313,637.2813,1266.0313,633.2813" style="stroke:#181818;stroke-width:1.0;"/><line style="stroke:#181818;stroke-width:1.0;stroke-dasharray:2.0,2.0;" x1="1264.0313" x2="1850.5122" y1="633.2813" y2="633.2813"/><text fill="#000000" font-family="sans-serif" font-size="13" font-weight="bold" lengthAdjust="spacing" textLength="18.0908" x="1276.0313" y="628.2153">16</text><text fill="#000000" font-family="sans-serif" font-size="13" lengthAdjust="spacing" textLength="168.3906" x="1298.1221" y="628.2153">acc&#232;s aux photos / vid&#233;os</text><polygon fill="#181818" points="780.7114,658.4141,770.7114,662.4141,780.7114,666.4141,776.7114,662.4141" style="stroke:#181818;stroke-width:1.0;"/><line style="stroke:#181818;stroke-width:1.0;stroke-dasharray:2.0,2.0;" x1="774.7114" x2="1258.0313" y1="662.4141" y2="662.4141"/><text fill="#000000" font-family="sans-serif" font-size="13" font-weight="bold" lengthAdjust="spacing" textLength="18.0908" x="786.7114" y="657.3481">17</text><text fill="#000000" font-family="sans-serif" font-size="13" lengthAdjust="spacing" textLength="106.939" x="808.8022" y="657.3481">d&#233;tails complets</text><polygon fill="#181818" points="514.6489,687.5469,504.6489,691.5469,514.6489,695.5469,510.6489,691.5469" style="stroke:#181818;stroke-width:1.0;"/><line style="stroke:#181818;stroke-width:1.0;stroke-dasharray:2.0,2.0;" x1="508.6489" x2="768.7114" y1="691.5469" y2="691.5469"/><text fill="#000000" font-family="sans-serif" font-size="13" font-weight="bold" lengthAdjust="spacing" textLength="18.0908" x="520.6489" y="686.481">18</text><text fill="#000000" font-family="sans-serif" font-size="13" lengthAdjust="spacing" textLength="106.939" x="542.7397" y="686.481">d&#233;tails complets</text><polygon fill="#181818" points="90.8853,716.6797,80.8853,720.6797,90.8853,724.6797,86.8853,720.6797" style="stroke:#181818;stroke-width:1.0;"/><line style="stroke:#181818;stroke-width:1.0;stroke-dasharray:2.0,2.0;" x1="84.8853" x2="502.6489" y1="720.6797" y2="720.6797"/><text fill="#000000" font-family="sans-serif" font-size="13" font-weight="bold" lengthAdjust="spacing" textLength="18.0908" x="96.8853" y="715.6138">19</text><text fill="#000000" font-family="sans-serif" font-size="13" lengthAdjust="spacing" textLength="207.8921" x="118.9761" y="715.6138">Affiche l'incident et ses preuves</text><path d="M10,735.6797 L74.4429,735.6797 L74.4429,742.8125 L64.4429,752.8125 L10,752.8125 L10,735.6797 " fill="#EEEEEE" style="stroke:#000000;stroke-width:1.5;"/><rect fill="none" height="484.375" style="stroke:#000000;stroke-width:1.5;" width="1764.1816" x="10" y="735.6797"/><text fill="#000000" font-family="sans-serif" font-size="13" font-weight="bold" lengthAdjust="spacing" textLength="19.4429" x="25" y="748.7466">alt</text><text fill="#000000" font-family="sans-serif" font-size="11" font-weight="bold" lengthAdjust="spacing" textLength="165.8701" x="89.4429" y="747.8901">[confirmer le signalement]</text><polygon fill="#181818" points="491.6489,769.9453,501.6489,773.9453,491.6489,777.9453,495.6489,773.9453" style="stroke:#181818;stroke-width:1.0;"/><line style="stroke:#181818;stroke-width:1.0;" x1="79.8853" x2="497.6489" y1="773.9453" y2="773.9453"/><text fill="#000000" font-family="sans-serif" font-size="13" font-weight="bold" lengthAdjust="spacing" textLength="18.0908" x="86.8853" y="768.8794">20</text><text fill="#000000" font-family="sans-serif" font-size="13" lengthAdjust="spacing" textLength="165.6421" x="108.9761" y="768.8794">Confirme (statut VERIFIE)</text><polygon fill="#181818" points="757.7114,799.0781,767.7114,803.0781,757.7114,807.0781,761.7114,803.0781" style="stroke:#181818;stroke-width:1.0;"/><line style="stroke:#181818;stroke-width:1.0;" x1="503.6489" x2="763.7114" y1="803.0781" y2="803.0781"/><text fill="#000000" font-family="sans-serif" font-size="13" font-weight="bold" lengthAdjust="spacing" textLength="18.0908" x="510.6489" y="798.0122">21</text><text fill="#000000" font-family="sans-serif" font-size="13" lengthAdjust="spacing" textLength="137.3062" x="532.7397" y="798.0122">confirmer(idIncident)</text><polygon fill="#181818" points="1247.0313,828.2109,1257.0313,832.2109,1247.0313,836.2109,1251.0313,832.2109" style="stroke:#181818;stroke-width:1.0;"/><line style="stroke:#181818;stroke-width:1.0;" x1="769.7114" x2="1253.0313" y1="832.2109" y2="832.2109"/><text fill="#000000" font-family="sans-serif" font-size="13" font-weight="bold" lengthAdjust="spacing" textLength="18.0908" x="776.7114" y="827.145">22</text><text fill="#000000" font-family="sans-serif" font-size="13" lengthAdjust="spacing" textLength="152.5786" x="798.8022" y="827.145">changerStatut(VERIFIE)</text><rect fill="none" height="39.1016" style="stroke:#000000;stroke-width:1.5;" width="263.2578" x="1189.48" y="840.2109"/><path d="M1189.48,840.2109 L1254.48,840.2109 L1254.48,847.2109 L1244.48,857.2109 L1189.48,857.2109 L1189.48,840.2109 " fill="#EEEEEE" style="stroke:#000000;stroke-width:2.0;"/><text fill="#000000" font-family="sans-serif" font-size="13" font-weight="bold" lengthAdjust="spacing" textLength="20.8838" x="1202.48" y="854.2778">ref</text><text fill="#000000" font-family="sans-serif" font-size="12" lengthAdjust="spacing" textLength="255.2578" x="1193.48" y="872.3496">DS06 &#8212; Diffusion  /  DS08 &#8212; Transmission</text><line style="stroke:#000000;stroke-width:1.0;stroke-dasharray:2.0,2.0;" x1="10" x2="1774.1816" y1="885.3125" y2="885.3125"/><text fill="#000000" font-family="sans-serif" font-size="11" font-weight="bold" lengthAdjust="spacing" textLength="147.8931" x="15" y="895.5229">[rejeter le signalement]</text><polygon fill="#181818" points="491.6489,916.25,501.6489,920.25,491.6489,924.25,495.6489,920.25" style="stroke:#181818;stroke-width:1.0;"/><line style="stroke:#181818;stroke-width:1.0;" x1="79.8853" x2="497.6489" y1="920.25" y2="920.25"/><text fill="#000000" font-family="sans-serif" font-size="13" font-weight="bold" lengthAdjust="spacing" textLength="18.0908" x="86.8853" y="915.1841">23</text><text fill="#000000" font-family="sans-serif" font-size="13" lengthAdjust="spacing" textLength="140.4165" x="108.9761" y="915.1841">Rejette avec un motif</text><polygon fill="#181818" points="757.7114,945.3828,767.7114,949.3828,757.7114,953.3828,761.7114,949.3828" style="stroke:#181818;stroke-width:1.0;"/><line style="stroke:#181818;stroke-width:1.0;" x1="503.6489" x2="763.7114" y1="949.3828" y2="949.3828"/><text fill="#000000" font-family="sans-serif" font-size="13" font-weight="bold" lengthAdjust="spacing" textLength="18.0908" x="510.6489" y="944.3169">24</text><text fill="#000000" font-family="sans-serif" font-size="13" lengthAdjust="spacing" textLength="159.9863" x="532.7397" y="944.3169">rejeter(idIncident, motif)</text><polygon fill="#181818" points="1247.0313,974.5156,1257.0313,978.5156,1247.0313,982.5156,1251.0313,978.5156" style="stroke:#181818;stroke-width:1.0;"/><line style="stroke:#181818;stroke-width:1.0;" x1="769.7114" x2="1253.0313" y1="978.5156" y2="978.5156"/><text fill="#000000" font-family="sans-serif" font-size="13" font-weight="bold" lengthAdjust="spacing" textLength="18.0908" x="776.7114" y="973.4497">25</text><text fill="#000000" font-family="sans-serif" font-size="13" lengthAdjust="spacing" textLength="190.6963" x="798.8022" y="973.4497">changerStatut(REJETE, motif)</text><polygon fill="#181818" points="1689.0767,1003.6484,1699.0767,1007.6484,1689.0767,1011.6484,1693.0767,1007.6484" style="stroke:#181818;stroke-width:1.0;"/><line style="stroke:#181818;stroke-width:1.0;" x1="1259.0313" x2="1695.0767" y1="1007.6484" y2="1007.6484"/><text fill="#000000" font-family="sans-serif" font-size="13" font-weight="bold" lengthAdjust="spacing" textLength="18.0908" x="1266.0313" y="1002.5825">26</text><text fill="#000000" font-family="sans-serif" font-size="13" lengthAdjust="spacing" textLength="360.0962" x="1288.1221" y="1002.5825">Met &#224; jour ReputationUtilisateur des auteurs concern&#233;s</text><line style="stroke:#000000;stroke-width:1.0;stroke-dasharray:2.0,2.0;" x1="10" x2="1774.1816" y1="1016.6484" y2="1016.6484"/><text fill="#000000" font-family="sans-serif" font-size="11" font-weight="bold" lengthAdjust="spacing" textLength="192.167" x="15" y="1026.8589">[modifier cat&#233;gorie ou gravit&#233;]</text><polygon fill="#181818" points="491.6489,1047.5859,501.6489,1051.5859,491.6489,1055.5859,495.6489,1051.5859" style="stroke:#181818;stroke-width:1.0;"/><line style="stroke:#181818;stroke-width:1.0;" x1="79.8853" x2="497.6489" y1="1051.5859" y2="1051.5859"/><text fill="#000000" font-family="sans-serif" font-size="13" font-weight="bold" lengthAdjust="spacing" textLength="18.0908" x="86.8853" y="1046.52">27</text><text fill="#000000" font-family="sans-serif" font-size="13" lengthAdjust="spacing" textLength="318.7158" x="108.9761" y="1046.52">Modifie le type d'incident ou le niveau de gravit&#233;</text><polygon fill="#181818" points="757.7114,1076.7188,767.7114,1080.7188,757.7114,1084.7188,761.7114,1080.7188" style="stroke:#181818;stroke-width:1.0;"/><line style="stroke:#181818;stroke-width:1.0;" x1="503.6489" x2="763.7114" y1="1080.7188" y2="1080.7188"/><text fill="#000000" font-family="sans-serif" font-size="13" font-weight="bold" lengthAdjust="spacing" textLength="18.0908" x="510.6489" y="1075.6528">28</text><text fill="#000000" font-family="sans-serif" font-size="13" lengthAdjust="spacing" textLength="219.9717" x="532.7397" y="1075.6528">modifier(idIncident, type, gravit&#233;)</text><polygon fill="#181818" points="1247.0313,1105.8516,1257.0313,1109.8516,1247.0313,1113.8516,1251.0313,1109.8516" style="stroke:#181818;stroke-width:1.0;"/><line style="stroke:#181818;stroke-width:1.0;" x1="769.7114" x2="1253.0313" y1="1109.8516" y2="1109.8516"/><text fill="#000000" font-family="sans-serif" font-size="13" font-weight="bold" lengthAdjust="spacing" textLength="18.0908" x="776.7114" y="1104.7856">29</text><text fill="#000000" font-family="sans-serif" font-size="13" lengthAdjust="spacing" textLength="231.7529" x="798.8022" y="1104.7856">modifierCat&#233;gorie / modifierGravit&#233;</text><line style="stroke:#000000;stroke-width:1.0;stroke-dasharray:2.0,2.0;" x1="10" x2="1774.1816" y1="1118.8516" y2="1118.8516"/><text fill="#000000" font-family="sans-serif" font-size="11" font-weight="bold" lengthAdjust="spacing" textLength="61.0801" x="15" y="1129.062">[archiver]</text><polygon fill="#181818" points="491.6489,1149.7891,501.6489,1153.7891,491.6489,1157.7891,495.6489,1153.7891" style="stroke:#181818;stroke-width:1.0;"/><line style="stroke:#181818;stroke-width:1.0;" x1="79.8853" x2="497.6489" y1="1153.7891" y2="1153.7891"/><text fill="#000000" font-family="sans-serif" font-size="13" font-weight="bold" lengthAdjust="spacing" textLength="18.0908" x="86.8853" y="1148.7231">30</text><text fill="#000000" font-family="sans-serif" font-size="13" lengthAdjust="spacing" textLength="156.4951" x="108.9761" y="1148.7231">Archive l'incident r&#233;solu</text><polygon fill="#181818" points="757.7114,1178.9219,767.7114,1182.9219,757.7114,1186.9219,761.7114,1182.9219" style="stroke:#181818;stroke-width:1.0;"/><line style="stroke:#181818;stroke-width:1.0;" x1="503.6489" x2="763.7114" y1="1182.9219" y2="1182.9219"/><text fill="#000000" font-family="sans-serif" font-size="13" font-weight="bold" lengthAdjust="spacing" textLength="18.0908" x="510.6489" y="1177.856">31</text><text fill="#000000" font-family="sans-serif" font-size="13" lengthAdjust="spacing" textLength="127.772" x="532.7397" y="1177.856">archiver(idIncident)</text><polygon fill="#181818" points="1247.0313,1208.0547,1257.0313,1212.0547,1247.0313,1216.0547,1251.0313,1212.0547" style="stroke:#181818;stroke-width:1.0;"/><line style="stroke:#181818;stroke-width:1.0;" x1="769.7114" x2="1253.0313" y1="1212.0547" y2="1212.0547"/><text fill="#000000" font-family="sans-serif" font-size="13" font-weight="bold" lengthAdjust="spacing" textLength="18.0908" x="776.7114" y="1206.9888">32</text><text fill="#000000" font-family="sans-serif" font-size="13" lengthAdjust="spacing" textLength="160.7988" x="798.8022" y="1206.9888">changerStatut(ARCHIVE)</text><polygon fill="#181818" points="1689.0767,1244.1875,1699.0767,1248.1875,1689.0767,1252.1875,1693.0767,1248.1875" style="stroke:#181818;stroke-width:1.0;"/><line style="stroke:#181818;stroke-width:1.0;" x1="1259.0313" x2="1695.0767" y1="1248.1875" y2="1248.1875"/><text fill="#000000" font-family="sans-serif" font-size="13" font-weight="bold" lengthAdjust="spacing" textLength="18.0908" x="1266.0313" y="1243.1216">33</text><text fill="#000000" font-family="sans-serif" font-size="13" lengthAdjust="spacing" textLength="305.6333" x="1288.1221" y="1243.1216">Enregistre la modification + HistoriqueIncident</text><polygon fill="#181818" points="1492.6987,1273.3203,1502.6987,1277.3203,1492.6987,1281.3203,1496.6987,1277.3203" style="stroke:#181818;stroke-width:1.0;"/><line style="stroke:#181818;stroke-width:1.0;" x1="1259.0313" x2="1498.6987" y1="1277.3203" y2="1277.3203"/><text fill="#000000" font-family="sans-serif" font-size="13" font-weight="bold" lengthAdjust="spacing" textLength="18.0908" x="1266.0313" y="1272.2544">34</text><text fill="#000000" font-family="sans-serif" font-size="13" lengthAdjust="spacing" textLength="199.5767" x="1288.1221" y="1272.2544">tracer(acteur, action, incident)</text><polygon fill="#181818" points="1689.0767,1302.4531,1699.0767,1306.4531,1689.0767,1310.4531,1693.0767,1306.4531" style="stroke:#181818;stroke-width:1.0;"/><line style="stroke:#181818;stroke-width:1.0;" x1="1504.6987" x2="1695.0767" y1="1306.4531" y2="1306.4531"/><text fill="#000000" font-family="sans-serif" font-size="13" font-weight="bold" lengthAdjust="spacing" textLength="18.0908" x="1511.6987" y="1301.3872">35</text><text fill="#000000" font-family="sans-serif" font-size="13" lengthAdjust="spacing" textLength="150.2871" x="1533.7896" y="1301.3872">Enregistre JournalAudit</text><polygon fill="#181818" points="780.7114,1331.5859,770.7114,1335.5859,780.7114,1339.5859,776.7114,1335.5859" style="stroke:#181818;stroke-width:1.0;"/><line style="stroke:#181818;stroke-width:1.0;stroke-dasharray:2.0,2.0;" x1="774.7114" x2="1258.0313" y1="1335.5859" y2="1335.5859"/><text fill="#000000" font-family="sans-serif" font-size="13" font-weight="bold" lengthAdjust="spacing" textLength="18.0908" x="786.7114" y="1330.52">36</text><text fill="#000000" font-family="sans-serif" font-size="13" lengthAdjust="spacing" textLength="50.1274" x="808.8022" y="1330.52">r&#233;sultat</text><polygon fill="#181818" points="514.6489,1360.7188,504.6489,1364.7188,514.6489,1368.7188,510.6489,1364.7188" style="stroke:#181818;stroke-width:1.0;"/><line style="stroke:#181818;stroke-width:1.0;stroke-dasharray:2.0,2.0;" x1="508.6489" x2="768.7114" y1="1364.7188" y2="1364.7188"/><text fill="#000000" font-family="sans-serif" font-size="13" font-weight="bold" lengthAdjust="spacing" textLength="18.0908" x="520.6489" y="1359.6528">37</text><text fill="#000000" font-family="sans-serif" font-size="13" lengthAdjust="spacing" textLength="44.0781" x="542.7397" y="1359.6528">succ&#232;s</text><polygon fill="#181818" points="90.8853,1389.8516,80.8853,1393.8516,90.8853,1397.8516,86.8853,1393.8516" style="stroke:#181818;stroke-width:1.0;"/><line style="stroke:#181818;stroke-width:1.0;stroke-dasharray:2.0,2.0;" x1="84.8853" x2="502.6489" y1="1393.8516" y2="1393.8516"/><text fill="#000000" font-family="sans-serif" font-size="13" font-weight="bold" lengthAdjust="spacing" textLength="18.0908" x="96.8853" y="1388.7856">38</text><text fill="#000000" font-family="sans-serif" font-size="13" lengthAdjust="spacing" textLength="177.1187" x="118.9761" y="1388.7856">Affiche l'incident mis &#224; jour</text><!--SRC=[ZLLBRkD64Dtp50LlJ24odDa4WHS1P569DOXiGv976m51YonAFIQxbUwc9hFB8NA0B4Tp3Tqa9ybh_aHw73Y0FrBtgz-hLzLEkemfMhnxH__y-HUDabmgQPqHJcf5oMMXIAfO9gmSXMA_psHSNNtYpI0GXTEgo3Ti0liirLuOaPFTYKH_acfBgSWiTs_uzu9Lp3EsLcnvbCcjeenJ5mGYTjhGHIS-5uQkrsgcazEn-df1mj8ecWNmvcGizm99NOmwIQruirR9fUXLKPgjNXWzJcaiyb76ngrLU2lYPrR9e8hmEEs3aK81aaQ5srM0f-NTguXfpPGjOTFxyN_uIQIh7KL18fpO2CjqSUl_9lZHIfsEN3c9RZk8XTFnCuYZlCYSp4_7H8eIjLW-106OeQkVQ4Ktz50S35CcA0CBtgab2wv5nhbFZwxRfjgrOaTbOz6R4fdAp1dy3ztdFGzfQyH1kjDnI0cS2RGFdz2F8U6RAzmWMFcmdj4RCXplsFZVbekmzZS8FCGZGH-W1xHLffBD8vjSMejEXHyPUXhI-E5-yVJhSZB_3HnEeydzSW5hRtRLHX9nh0samOrRG7i9dEFw6m2YMzpF8S7JLt1Itdfp75-rvYqjbL4RhUInYbHJV6RsRBEgBD276ngbgKGQRHDw_LcSZXd7NfoAgJDYNIhrnh6I9ZeTdP2P3MNIK3hebvoyXkZMFDu90z4qGOOzBU0RY2o5bqgnaLdPwxMAjKgboSi90cY76hJn6cbSGtFdB9zC5kuD5mVFjxyvKuf6dRvO4iKVjDzffxtw3X99wvSaDuLGhFDznY2qI_Ytjw_IVTckA-ZQeZrrMbWncQEwAZPOErqQ0g9EUyOrYi9AulHXCf_-F9qC0Ejqg7NMOvwervru9zIMpQ9q57OS6Kv97v19XOiMt_zGhk18fcdXfu50b3_-iJnU6g5iFIS1Ow_20SRbZKhc7WETYWF7NcYvTZBjLr6xwTGmh61lb3AVl9yi9nriLt8pa7_wcpvgBF4vxmjNwkZ9GLwsMkr-Sl1yuAFlABQAmTApLMMvJihDG5Zhf-CMkcFIHRk9-YNEAh2dmIyil5cj0c23KoKFB0ely8w33W5Dj1u3_Ttt3HMDpVYSu7Lx-4iJfYn6O1iX0zFFUbITTlMARMHrLlIJQwp_lyH6y_7Tz0CaXWSjwEs1YJAyzSzYkPMgREk7ypkwQmUyYTFOufM2CHvJz2Z4EusM3J7LtcxOBXM_dwFN8hs71A3Dyj5xCU- -O3namlNct1RbmdXhkZ4AZSB-1G00]--></g></svg>