<svg xmlns="http://www.w3.org/2000/svg" xmlns:xlink="http://www.w3.org/1999/xlink" contentStyleType="text/css" height="1140px" preserveAspectRatio="none" style="width:1809px;height:1140px;background:#FFFFFF;" version="1.1" viewBox="0 0 1809 1140" width="1809px" zoomAndPan="magnify"><title>DS13 &#8212; Gestion des utilisateurs et des r&#244;les (application web)</title><defs/><g><text fill="#000000" font-family="sans-serif" font-size="14" font-weight="bold" lengthAdjust="spacing" textLength="493.8691" x="658.9729" y="27.9951">DS13 &#8212; Gestion des utilisateurs et des r&#244;les (application web)</text><rect fill="none" height="469.7344" style="stroke:#000000;stroke-width:1.5;" width="1792.8149" x="10" y="426.9219"/><line style="stroke:#181818;stroke-width:0.5;stroke-dasharray:5.0,5.0;" x1="75" x2="75" y1="118.5938" y2="1059.3203"/><line style="stroke:#181818;stroke-width:0.5;stroke-dasharray:5.0,5.0;" x1="500.6294" x2="500.6294" y1="118.5938" y2="1059.3203"/><line style="stroke:#181818;stroke-width:0.5;stroke-dasharray:5.0,5.0;" x1="774.3198" x2="774.3198" y1="118.5938" y2="1059.3203"/><line style="stroke:#181818;stroke-width:0.5;stroke-dasharray:5.0,5.0;" x1="1124.0669" x2="1124.0669" y1="118.5938" y2="1059.3203"/><line style="stroke:#181818;stroke-width:0.5;stroke-dasharray:5.0,5.0;" x1="1239.2368" x2="1239.2368" y1="118.5938" y2="1059.3203"/><line style="stroke:#181818;stroke-width:0.5;stroke-dasharray:5.0,5.0;" x1="1533.2954" x2="1533.2954" y1="118.5938" y2="1059.3203"/><line style="stroke:#181818;stroke-width:0.5;stroke-dasharray:5.0,5.0;" x1="1729.605" x2="1729.605" y1="118.5938" y2="1059.3203"/><text fill="#000000" font-family="sans-serif" font-size="14" lengthAdjust="spacing" textLength="104.6035" x="20" y="115.292">Administrateur</text><ellipse cx="75.3018" cy="50.7969" fill="#E2E2F0" rx="8" ry="8" style="stroke:#181818;stroke-width:0.5;"/><path d="M75.3018,58.7969 L75.3018,85.7969 M62.3018,66.7969 L88.3018,66.7969 M75.3018,85.7969 L62.3018,100.7969 M75.3018,85.7969 L88.3018,100.7969 " fill="none" style="stroke:#181818;stroke-width:0.5;"/><text fill="#000000" font-family="sans-serif" font-size="14" lengthAdjust="spacing" textLength="104.6035" x="20" y="1071.3154">Administrateur</text><ellipse cx="75.3018" cy="1083.1172" fill="#E2E2F0" rx="8" ry="8" style="stroke:#181818;stroke-width:0.5;"/><path d="M75.3018,1091.1172 L75.3018,1118.1172 M62.3018,1099.1172 L88.3018,1099.1172 M75.3018,1118.1172 L62.3018,1133.1172 M75.3018,1118.1172 L88.3018,1133.1172 " fill="none" style="stroke:#181818;stroke-width:0.5;"/><rect fill="#E2E2F0" height="46.5938" rx="2.5" ry="2.5" style="stroke:#181818;stroke-width:0.5;" width="128.4268" x="436.6294" y="71"/><text fill="#000000" font-family="sans-serif" font-size="14" lengthAdjust="spacing" textLength="114.0166" x="443.8345" y="90.9951">Application Web</text><text fill="#000000" font-family="sans-serif" font-size="14" lengthAdjust="spacing" textLength="114.4268" x="443.6294" y="107.292">d'administration</text><rect fill="#E2E2F0" height="46.5938" rx="2.5" ry="2.5" style="stroke:#181818;stroke-width:0.5;" width="128.4268" x="436.6294" y="1058.3203"/><text fill="#000000" font-family="sans-serif" font-size="14" lengthAdjust="spacing" textLength="114.0166" x="443.8345" y="1078.3154">Application Web</text><text fill="#000000" font-family="sans-serif" font-size="14" lengthAdjust="spacing" textLength="114.4268" x="443.6294" y="1094.6123">d'administration</text><rect fill="#E2E2F0" height="46.5938" rx="2.5" ry="2.5" style="stroke:#181818;stroke-width:0.5;" width="105.916" x="722.3198" y="71"/><text fill="#000000" font-family="sans-serif" font-size="14" lengthAdjust="spacing" textLength="91.916" x="729.3198" y="90.9951">API CamAlert</text><text fill="#000000" font-family="sans-serif" font-size="14" lengthAdjust="spacing" textLength="71.2852" x="739.6353" y="107.292">(Backend)</text><rect fill="#E2E2F0" height="46.5938" rx="2.5" ry="2.5" style="stroke:#181818;stroke-width:0.5;" width="105.916" x="722.3198" y="1058.3203"/><text fill="#000000" font-family="sans-serif" font-size="14" lengthAdjust="spacing" textLength="91.916" x="729.3198" y="1078.3154">API CamAlert</text><text fill="#000000" font-family="sans-serif" font-size="14" lengthAdjust="spacing" textLength="71.2852" x="739.6353" y="1094.6123">(Backend)</text><rect fill="#E2E2F0" height="30.2969" rx="2.5" ry="2.5" style="stroke:#181818;stroke-width:0.5;" width="102.1699" x="1073.0669" y="87.2969"/><text fill="#000000" font-family="sans-serif" font-size="14" lengthAdjust="spacing" textLength="88.1699" x="1080.0669" y="107.292">Module Auth</text><rect fill="#E2E2F0" height="30.2969" rx="2.5" ry="2.5" style="stroke:#181818;stroke-width:0.5;" width="102.1699" x="1073.0669" y="1058.3203"/><text fill="#000000" font-family="sans-serif" font-size="14" lengthAdjust="spacing" textLength="88.1699" x="1080.0669" y="1078.3154">Module Auth</text><rect fill="#E2E2F0" height="30.2969" rx="2.5" ry="2.5" style="stroke:#181818;stroke-width:0.5;" width="108.5615" x="1185.2368" y="87.2969"/><text fill="#000000" font-family="sans-serif" font-size="14" lengthAdjust="spacing" textLength="94.5615" x="1192.2368" y="107.292">Module Users</text><rect fill="#E2E2F0" height="30.2969" rx="2.5" ry="2.5" style="stroke:#181818;stroke-width:0.5;" width="108.5615" x="1185.2368" y="1058.3203"/><text fill="#000000" font-family="sans-serif" font-size="14" lengthAdjust="spacing" textLength="94.5615" x="1192.2368" y="1078.3154">Module Users</text><rect fill="#E2E2F0" height="30.2969" rx="2.5" ry="2.5" style="stroke:#181818;stroke-width:0.5;" width="106.0732" x="1480.2954" y="87.2969"/><text fill="#000000" font-family="sans-serif" font-size="14" lengthAdjust="spacing" textLength="92.0732" x="1487.2954" y="107.292">Module Audit</text><rect fill="#E2E2F0" height="30.2969" rx="2.5" ry="2.5" style="stroke:#181818;stroke-width:0.5;" width="106.0732" x="1480.2954" y="1058.3203"/><text fill="#000000" font-family="sans-serif" font-size="14" lengthAdjust="spacing" textLength="92.0732" x="1487.2954" y="1078.3154">Module Audit</text><text fill="#000000" font-family="sans-serif" font-size="14" lengthAdjust="spacing" textLength="120.21" x="1666.605" y="115.292">Base de donn&#233;es</text><path d="M1711.71,66.2969 C1711.71,56.2969 1729.71,56.2969 1729.71,56.2969 C1729.71,56.2969 1747.71,56.2969 1747.71,66.2969 L1747.71,92.2969 C1747.71,102.2969 1729.71,102.2969 1729.71,102.2969 C1729.71,102.2969 1711.71,102.2969 1711.71,92.2969 L1711.71,66.2969 " fill="#E2E2F0" style="stroke:#181818;stroke-width:1.5;"/><path d="M1711.71,66.2969 C1711.71,76.2969 1729.71,76.2969 1729.71,76.2969 C1729.71,76.2969 1747.71,76.2969 1747.71,66.2969 " fill="none" style="stroke:#181818;stroke-width:1.5;"/><text fill="#000000" font-family="sans-serif" font-size="14" lengthAdjust="spacing" textLength="120.21" x="1666.605" y="1071.3154">Base de donn&#233;es</text><path d="M1711.71,1084.6172 C1711.71,1074.6172 1729.71,1074.6172 1729.71,1074.6172 C1729.71,1074.6172 1747.71,1074.6172 1747.71,1084.6172 L1747.71,1110.6172 C1747.71,1120.6172 1729.71,1120.6172 1729.71,1120.6172 C1729.71,1120.6172 1711.71,1120.6172 1711.71,1110.6172 L1711.71,1084.6172 " fill="#E2E2F0" style="stroke:#181818;stroke-width:1.5;"/><path d="M1711.71,1084.6172 C1711.71,1094.6172 1729.71,1094.6172 1729.71,1094.6172 C1729.71,1094.6172 1747.71,1094.6172 1747.71,1084.6172 " fill="none" style="stroke:#181818;stroke-width:1.5;"/><polygon fill="#181818" points="488.8428,145.7266,498.8428,149.7266,488.8428,153.7266,492.8428,149.7266" style="stroke:#181818;stroke-width:1.0;"/><line style="stroke:#181818;stroke-width:1.0;" x1="75.3018" x2="494.8428" y1="149.7266" y2="149.7266"/><text fill="#000000" font-family="sans-serif" font-size="13" font-weight="bold" lengthAdjust="spacing" textLength="9.0454" x="82.3018" y="144.6606">1</text><text fill="#000000" font-family="sans-serif" font-size="13" lengthAdjust="spacing" textLength="181.0669" x="95.3472" y="144.6606">Ouvre &#171; G&#233;rer utilisateurs &#187;</text><polygon fill="#181818" points="763.2778,174.8594,773.2778,178.8594,763.2778,182.8594,767.2778,178.8594" style="stroke:#181818;stroke-width:1.0;"/><line style="stroke:#181818;stroke-width:1.0;" x1="500.8428" x2="769.2778" y1="178.8594" y2="178.8594"/><text fill="#000000" font-family="sans-serif" font-size="13" font-weight="bold" lengthAdjust="spacing" textLength="9.0454" x="507.8428" y="173.7935">2</text><text fill="#000000" font-family="sans-serif" font-size="13" lengthAdjust="spacing" textLength="153.2324" x="520.8882" y="173.7935">listerUtilisateurs(filtres)</text><polygon fill="#181818" points="1112.1519,203.9922,1122.1519,207.9922,1112.1519,211.9922,1116.1519,207.9922" style="stroke:#181818;stroke-width:1.0;"/><line style="stroke:#181818;stroke-width:1.0;" x1="775.2778" x2="1118.1519" y1="207.9922" y2="207.9922"/><text fill="#000000" font-family="sans-serif" font-size="13" font-weight="bold" lengthAdjust="spacing" textLength="9.0454" x="782.2778" y="202.9263">3</text><text fill="#000000" font-family="sans-serif" font-size="13" lengthAdjust="spacing" textLength="311.8286" x="795.3232" y="202.9263">v&#233;rifierPermission(jeton, GERER_UTILISATEURS)</text><polygon fill="#181818" points="786.2778,233.125,776.2778,237.125,786.2778,241.125,782.2778,237.125" style="stroke:#181818;stroke-width:1.0;"/><line style="stroke:#181818;stroke-width:1.0;stroke-dasharray:2.0,2.0;" x1="780.2778" x2="1123.1519" y1="237.125" y2="237.125"/><text fill="#000000" font-family="sans-serif" font-size="13" font-weight="bold" lengthAdjust="spacing" textLength="9.0454" x="792.2778" y="232.0591">4</text><text fill="#000000" font-family="sans-serif" font-size="13" lengthAdjust="spacing" textLength="59.8076" x="805.3232" y="232.0591">accord&#233;e</text><polygon fill="#181818" points="1227.5176,262.2578,1237.5176,266.2578,1227.5176,270.2578,1231.5176,266.2578" style="stroke:#181818;stroke-width:1.0;"/><line style="stroke:#181818;stroke-width:1.0;" x1="775.2778" x2="1233.5176" y1="266.2578" y2="266.2578"/><text fill="#000000" font-family="sans-serif" font-size="13" font-weight="bold" lengthAdjust="spacing" textLength="9.0454" x="782.2778" y="261.1919">5</text><text fill="#000000" font-family="sans-serif" font-size="13" lengthAdjust="spacing" textLength="79.5933" x="795.3232" y="261.1919">lister(filtres)</text><polygon fill="#181818" points="1717.71,291.3906,1727.71,295.3906,1717.71,299.3906,1721.71,295.3906" style="stroke:#181818;stroke-width:1.0;"/><line style="stroke:#181818;stroke-width:1.0;" x1="1239.5176" x2="1723.71" y1="295.3906" y2="295.3906"/><text fill="#000000" font-family="sans-serif" font-size="13" font-weight="bold" lengthAdjust="spacing" textLength="9.0454" x="1246.5176" y="290.3247">6</text><text fill="#000000" font-family="sans-serif" font-size="13" lengthAdjust="spacing" textLength="54.6152" x="1259.563" y="290.3247">Requ&#234;te</text><polygon fill="#181818" points="1250.5176,320.5234,1240.5176,324.5234,1250.5176,328.5234,1246.5176,324.5234" style="stroke:#181818;stroke-width:1.0;"/><line style="stroke:#181818;stroke-width:1.0;stroke-dasharray:2.0,2.0;" x1="1244.5176" x2="1728.71" y1="324.5234" y2="324.5234"/><text fill="#000000" font-family="sans-serif" font-size="13" font-weight="bold" lengthAdjust="spacing" textLength="9.0454" x="1256.5176" y="319.4575">7</text><text fill="#000000" font-family="sans-serif" font-size="13" lengthAdjust="spacing" textLength="125.4043" x="1269.563" y="319.4575">utilisateurs et r&#244;les</text><polygon fill="#181818" points="786.2778,349.6563,776.2778,353.6563,786.2778,357.6563,782.2778,353.6563" style="stroke:#181818;stroke-width:1.0;"/><line style="stroke:#181818;stroke-width:1.0;stroke-dasharray:2.0,2.0;" x1="780.2778" x2="1238.5176" y1="353.6563" y2="353.6563"/><text fill="#000000" font-family="sans-serif" font-size="13" font-weight="bold" lengthAdjust="spacing" textLength="9.0454" x="792.2778" y="348.5903">8</text><text fill="#000000" font-family="sans-serif" font-size="13" lengthAdjust="spacing" textLength="27.0918" x="805.3232" y="348.5903">liste</text><polygon fill="#181818" points="511.8428,378.7891,501.8428,382.7891,511.8428,386.7891,507.8428,382.7891" style="stroke:#181818;stroke-width:1.0;"/><line style="stroke:#181818;stroke-width:1.0;stroke-dasharray:2.0,2.0;" x1="505.8428" x2="774.2778" y1="382.7891" y2="382.7891"/><text fill="#000000" font-family="sans-serif" font-size="13" font-weight="bold" lengthAdjust="spacing" textLength="9.0454" x="517.8428" y="377.7231">9</text><text fill="#000000" font-family="sans-serif" font-size="13" lengthAdjust="spacing" textLength="27.0918" x="530.8882" y="377.7231">liste</text><polygon fill="#181818" points="86.3018,407.9219,76.3018,411.9219,86.3018,415.9219,82.3018,411.9219" style="stroke:#181818;stroke-width:1.0;"/><line style="stroke:#181818;stroke-width:1.0;stroke-dasharray:2.0,2.0;" x1="80.3018" x2="499.8428" y1="411.9219" y2="411.9219"/><text fill="#000000" font-family="sans-serif" font-size="13" font-weight="bold" lengthAdjust="spacing" textLength="18.0908" x="92.3018" y="406.856">10</text><text fill="#000000" font-family="sans-serif" font-size="13" lengthAdjust="spacing" textLength="144.0537" x="114.3926" y="406.856">Affiche les utilisateurs</text><path d="M10,426.9219 L74.4429,426.9219 L74.4429,434.0547 L64.4429,444.0547 L10,444.0547 L10,426.9219 " fill="#EEEEEE" style="stroke:#000000;stroke-width:1.5;"/><rect fill="none" height="469.7344" style="stroke:#000000;stroke-width:1.5;" width="1792.8149" x="10" y="426.9219"/><text fill="#000000" font-family="sans-serif" font-size="13" font-weight="bold" lengthAdjust="spacing" textLength="19.4429" x="25" y="439.9888">alt</text><text fill="#000000" font-family="sans-serif" font-size="11" font-weight="bold" lengthAdjust="spacing" textLength="205.165" x="89.4429" y="439.1323">[cr&#233;er ou modifier un utilisateur]</text><polygon fill="#181818" points="488.8428,461.1875,498.8428,465.1875,488.8428,469.1875,492.8428,465.1875" style="stroke:#181818;stroke-width:1.0;"/><line style="stroke:#181818;stroke-width:1.0;" x1="75.3018" x2="494.8428" y1="465.1875" y2="465.1875"/><text fill="#000000" font-family="sans-serif" font-size="13" font-weight="bold" lengthAdjust="spacing" textLength="18.0908" x="82.3018" y="460.1216">11</text><text fill="#000000" font-family="sans-serif" font-size="13" lengthAdjust="spacing" textLength="217.1152" x="104.3926" y="460.1216">Saisit ou modifie les informations</text><polygon fill="#181818" points="763.2778,490.3203,773.2778,494.3203,763.2778,498.3203,767.2778,494.3203" style="stroke:#181818;stroke-width:1.0;"/><line style="stroke:#181818;stroke-width:1.0;" x1="500.8428" x2="769.2778" y1="494.3203" y2="494.3203"/><text fill="#000000" font-family="sans-serif" font-size="13" font-weight="bold" lengthAdjust="spacing" textLength="18.0908" x="507.8428" y="489.2544">12</text><text fill="#000000" font-family="sans-serif" font-size="13" lengthAdjust="spacing" textLength="204.4644" x="529.9336" y="489.2544">enregistrerUtilisateur(donn&#233;es)</text><polygon fill="#181818" points="1227.5176,519.4531,1237.5176,523.4531,1227.5176,527.4531,1231.5176,523.4531" style="stroke:#181818;stroke-width:1.0;"/><line style="stroke:#181818;stroke-width:1.0;" x1="775.2778" x2="1233.5176" y1="523.4531" y2="523.4531"/><text fill="#000000" font-family="sans-serif" font-size="13" font-weight="bold" lengthAdjust="spacing" textLength="18.0908" x="782.2778" y="518.3872">13</text><text fill="#000000" font-family="sans-serif" font-size="13" lengthAdjust="spacing" textLength="137.5981" x="804.3687" y="518.3872">enregistrer(donn&#233;es)</text><polygon fill="#181818" points="1717.71,548.5859,1727.71,552.5859,1717.71,556.5859,1721.71,552.5859" style="stroke:#181818;stroke-width:1.0;"/><line style="stroke:#181818;stroke-width:1.0;" x1="1239.5176" x2="1723.71" y1="552.5859" y2="552.5859"/><text fill="#000000" font-family="sans-serif" font-size="13" font-weight="bold" lengthAdjust="spacing" textLength="18.0908" x="1246.5176" y="547.52">14</text><text fill="#000000" font-family="sans-serif" font-size="13" lengthAdjust="spacing" textLength="181.2002" x="1268.6084" y="547.52">Cr&#233;e / met &#224; jour Utilisateur</text><line style="stroke:#000000;stroke-width:1.0;stroke-dasharray:2.0,2.0;" x1="10" x2="1802.8149" y1="561.5859" y2="561.5859"/><text fill="#000000" font-family="sans-serif" font-size="11" font-weight="bold" lengthAdjust="spacing" textLength="263.2104" x="15" y="571.7964">[changer le statut (suspendre / r&#233;activer)]</text><polygon fill="#181818" points="488.8428,592.5234,498.8428,596.5234,488.8428,600.5234,492.8428,596.5234" style="stroke:#181818;stroke-width:1.0;"/><line style="stroke:#181818;stroke-width:1.0;" x1="75.3018" x2="494.8428" y1="596.5234" y2="596.5234"/><text fill="#000000" font-family="sans-serif" font-size="13" font-weight="bold" lengthAdjust="spacing" textLength="18.0908" x="82.3018" y="591.4575">15</text><text fill="#000000" font-family="sans-serif" font-size="13" lengthAdjust="spacing" textLength="214.938" x="104.3926" y="591.4575">Choisit un utilisateur et un statut</text><polygon fill="#181818" points="763.2778,621.6563,773.2778,625.6563,763.2778,629.6563,767.2778,625.6563" style="stroke:#181818;stroke-width:1.0;"/><line style="stroke:#181818;stroke-width:1.0;" x1="500.8428" x2="769.2778" y1="625.6563" y2="625.6563"/><text fill="#000000" font-family="sans-serif" font-size="13" font-weight="bold" lengthAdjust="spacing" textLength="18.0908" x="507.8428" y="620.5903">16</text><text fill="#000000" font-family="sans-serif" font-size="13" lengthAdjust="spacing" textLength="228.3442" x="529.9336" y="620.5903">changerStatut(idUtilisateur, statut)</text><polygon fill="#181818" points="1227.5176,650.7891,1237.5176,654.7891,1227.5176,658.7891,1231.5176,654.7891" style="stroke:#181818;stroke-width:1.0;"/><line style="stroke:#181818;stroke-width:1.0;" x1="775.2778" x2="1233.5176" y1="654.7891" y2="654.7891"/><text fill="#000000" font-family="sans-serif" font-size="13" font-weight="bold" lengthAdjust="spacing" textLength="18.0908" x="782.2778" y="649.7231">17</text><text fill="#000000" font-family="sans-serif" font-size="13" lengthAdjust="spacing" textLength="228.3442" x="804.3687" y="649.7231">changerStatut(idUtilisateur, statut)</text><polygon fill="#181818" points="1717.71,679.9219,1727.71,683.9219,1717.71,687.9219,1721.71,683.9219" style="stroke:#181818;stroke-width:1.0;"/><line style="stroke:#181818;stroke-width:1.0;" x1="1239.5176" x2="1723.71" y1="683.9219" y2="683.9219"/><text fill="#000000" font-family="sans-serif" font-size="13" font-weight="bold" lengthAdjust="spacing" textLength="18.0908" x="1246.5176" y="678.856">18</text><text fill="#000000" font-family="sans-serif" font-size="13" lengthAdjust="spacing" textLength="176.4395" x="1268.6084" y="678.856">Met &#224; jour StatutUtilisateur</text><line style="stroke:#000000;stroke-width:1.0;stroke-dasharray:2.0,2.0;" x1="10" x2="1802.8149" y1="692.9219" y2="692.9219"/><text fill="#000000" font-family="sans-serif" font-size="11" font-weight="bold" lengthAdjust="spacing" textLength="195.0674" x="15" y="703.1323">[g&#233;rer les r&#244;les et permissions]</text><polygon fill="#181818" points="488.8428,738.9922,498.8428,742.9922,488.8428,746.9922,492.8428,742.9922" style="stroke:#181818;stroke-width:1.0;"/><line style="stroke:#181818;stroke-width:1.0;" x1="75.3018" x2="494.8428" y1="742.9922" y2="742.9922"/><text fill="#000000" font-family="sans-serif" font-size="13" font-weight="bold" lengthAdjust="spacing" textLength="18.0908" x="82.3018" y="730.3599">19</text><text fill="#000000" font-family="sans-serif" font-size="13" lengthAdjust="spacing" textLength="162.0366" x="104.3926" y="722.7935">Attribue ou retire un r&#244;le</text><text fill="#000000" font-family="sans-serif" font-size="13" lengthAdjust="spacing" textLength="379.4502" x="104.3926" y="737.9263">(CITOYEN, OPERATEUR, MODERATEUR, ADMINISTRATEUR)</text><polygon fill="#181818" points="763.2778,768.125,773.2778,772.125,763.2778,776.125,767.2778,772.125" style="stroke:#181818;stroke-width:1.0;"/><line style="stroke:#181818;stroke-width:1.0;" x1="500.8428" x2="769.2778" y1="772.125" y2="772.125"/><text fill="#000000" font-family="sans-serif" font-size="13" font-weight="bold" lengthAdjust="spacing" textLength="18.0908" x="507.8428" y="767.0591">20</text><text fill="#000000" font-family="sans-serif" font-size="13" lengthAdjust="spacing" textLength="218.2007" x="529.9336" y="767.0591">modifierR&#244;les(idUtilisateur, r&#244;les)</text><polygon fill="#181818" points="1112.1519,797.2578,1122.1519,801.2578,1112.1519,805.2578,1116.1519,801.2578" style="stroke:#181818;stroke-width:1.0;"/><line style="stroke:#181818;stroke-width:1.0;" x1="775.2778" x2="1118.1519" y1="801.2578" y2="801.2578"/><text fill="#000000" font-family="sans-serif" font-size="13" font-weight="bold" lengthAdjust="spacing" textLength="18.0908" x="782.2778" y="796.1919">21</text><text fill="#000000" font-family="sans-serif" font-size="13" lengthAdjust="spacing" textLength="262.3359" x="804.3687" y="796.1919">v&#233;rifierPermission(jeton, GERER_ROLES)</text><polygon fill="#181818" points="786.2778,826.3906,776.2778,830.3906,786.2778,834.3906,782.2778,830.3906" style="stroke:#181818;stroke-width:1.0;"/><line style="stroke:#181818;stroke-width:1.0;stroke-dasharray:2.0,2.0;" x1="780.2778" x2="1123.1519" y1="830.3906" y2="830.3906"/><text fill="#000000" font-family="sans-serif" font-size="13" font-weight="bold" lengthAdjust="spacing" textLength="18.0908" x="792.2778" y="825.3247">22</text><text fill="#000000" font-family="sans-serif" font-size="13" lengthAdjust="spacing" textLength="59.8076" x="814.3687" y="825.3247">accord&#233;e</text><polygon fill="#181818" points="1227.5176,855.5234,1237.5176,859.5234,1227.5176,863.5234,1231.5176,859.5234" style="stroke:#181818;stroke-width:1.0;"/><line style="stroke:#181818;stroke-width:1.0;" x1="775.2778" x2="1233.5176" y1="859.5234" y2="859.5234"/><text fill="#000000" font-family="sans-serif" font-size="13" font-weight="bold" lengthAdjust="spacing" textLength="18.0908" x="782.2778" y="854.4575">23</text><text fill="#000000" font-family="sans-serif" font-size="13" lengthAdjust="spacing" textLength="214.8936" x="804.3687" y="854.4575">affecterR&#244;les(idUtilisateur, r&#244;les)</text><polygon fill="#181818" points="1717.71,884.6563,1727.71,888.6563,1717.71,892.6563,1721.71,888.6563" style="stroke:#181818;stroke-width:1.0;"/><line style="stroke:#181818;stroke-width:1.0;" x1="1239.5176" x2="1723.71" y1="888.6563" y2="888.6563"/><text fill="#000000" font-family="sans-serif" font-size="13" font-weight="bold" lengthAdjust="spacing" textLength="18.0908" x="1246.5176" y="883.5903">24</text><text fill="#000000" font-family="sans-serif" font-size="13" lengthAdjust="spacing" textLength="262.6533" x="1268.6084" y="883.5903">Met &#224; jour l'association Utilisateur - R&#244;le</text><polygon fill="#181818" points="1521.332,920.7891,1531.332,924.7891,1521.332,928.7891,1525.332,924.7891" style="stroke:#181818;stroke-width:1.0;"/><line style="stroke:#181818;stroke-width:1.0;" x1="1239.5176" x2="1527.332" y1="924.7891" y2="924.7891"/><text fill="#000000" font-family="sans-serif" font-size="13" font-weight="bold" lengthAdjust="spacing" textLength="18.0908" x="1246.5176" y="919.7231">25</text><text fill="#000000" font-family="sans-serif" font-size="13" lengthAdjust="spacing" textLength="247.7236" x="1268.6084" y="919.7231">tracer(acteur, action, utilisateur cible)</text><polygon fill="#181818" points="1717.71,949.9219,1727.71,953.9219,1717.71,957.9219,1721.71,953.9219" style="stroke:#181818;stroke-width:1.0;"/><line style="stroke:#181818;stroke-width:1.0;" x1="1533.332" x2="1723.71" y1="953.9219" y2="953.9219"/><text fill="#000000" font-family="sans-serif" font-size="13" font-weight="bold" lengthAdjust="spacing" textLength="18.0908" x="1540.332" y="948.856">26</text><text fill="#000000" font-family="sans-serif" font-size="13" lengthAdjust="spacing" textLength="150.2871" x="1562.4229" y="948.856">Enregistre JournalAudit</text><polygon fill="#181818" points="786.2778,979.0547,776.2778,983.0547,786.2778,987.0547,782.2778,983.0547" style="stroke:#181818;stroke-width:1.0;"/><line style="stroke:#181818;stroke-width:1.0;stroke-dasharray:2.0,2.0;" x1="780.2778" x2="1238.5176" y1="983.0547" y2="983.0547"/><text fill="#000000" font-family="sans-serif" font-size="13" font-weight="bold" lengthAdjust="spacing" textLength="18.0908" x="792.2778" y="977.9888">27</text><text fill="#000000" font-family="sans-serif" font-size="13" lengthAdjust="spacing" textLength="50.1274" x="814.3687" y="977.9888">r&#233;sultat</text><polygon fill="#181818" points="511.8428,1008.1875,501.8428,1012.1875,511.8428,1016.1875,507.8428,1012.1875" style="stroke:#181818;stroke-width:1.0;"/><line style="stroke:#181818;stroke-width:1.0;stroke-dasharray:2.0,2.0;" x1="505.8428" x2="774.2778" y1="1012.1875" y2="1012.1875"/><text fill="#000000" font-family="sans-serif" font-size="13" font-weight="bold" lengthAdjust="spacing" textLength="18.0908" x="517.8428" y="1007.1216">28</text><text fill="#000000" font-family="sans-serif" font-size="13" lengthAdjust="spacing" textLength="44.0781" x="539.9336" y="1007.1216">succ&#232;s</text><polygon fill="#181818" points="86.3018,1037.3203,76.3018,1041.3203,86.3018,1045.3203,82.3018,1041.3203" style="stroke:#181818;stroke-width:1.0;"/><line style="stroke:#181818;stroke-width:1.0;stroke-dasharray:2.0,2.0;" x1="80.3018" x2="499.8428" y1="1041.3203" y2="1041.3203"/><text fill="#000000" font-family="sans-serif" font-size="13" font-weight="bold" lengthAdjust="spacing" textLength="18.0908" x="92.3018" y="1036.2544">29</text><text fill="#000000" font-family="sans-serif" font-size="13" lengthAdjust="spacing" textLength="168.5366" x="114.3926" y="1036.2544">Affiche la liste mise &#224; jour</text><!--SRC=[ZLJBRjf05DtxAwwo2KYWgkekYqhcePGg16I3KAL8rM1VmoJZCPr7ikr7z0EwRDfjTzs5F-cNzCuOo9WaQYG4U7pElNFEd3k66u4mID- -WxzVly4vQiCh2Jbgi8OBhfb1gpIWyMjg-rlGJujjDe9dp6FlSDcEc3MLjEKILQHlkDmmnKhGQvPNTroke612O_W6lrYK6OvHQxR2MF2L1865YIAMcKh1IPoNN79jbD_02J0DyM0S4TtmZ6-OD8G9Th70vPNCJzaZZLOzRN54cewWpyfOe39NijLZsGtAl5rtc8wQu76LM_8djcPT0-Qp3yyYvXgLzf1vchnG8-TcLsGGvSom9TC89pttdTEdad9xZtMHGI-AI2vqtyC2pc1YRnN2moyutzuhLCsZUVWJBHpG2Ji3MZUevW6WLN1X5Efsv10EI288UKkrUC5HJL6LN6logtMDT8mTE1ycm-JpV3Qw6ANnR3XFKY8xLlVGXsLPfNBQyBugwJwqVspfLkdbe4Vl4ZhqxK-34Jrr3upZcDKHgubDLNMddINrogB6a5Dd41S5pzO8uYYx52bX85EqLmMLXRBAlMomCiH5087ZAUEQcm3kot9PLAhqqTA43sn7gN3bSjVmlhK_rBQh7leKu1kWqA- -spAyWP9SsNw7wyeg28f7I3C5sPh95OcXX6d3Z3NGqbPlADBASQa43HI_HTLk2kolAw-mQO8x05gfApKLxXgb_bMBvy5EEZl24vMlv8IYnu7OclT4ygeU0l5u7n5dSmYnRWgDZL5yQT6TfKB3oHPIw8aq_ltHRF9fUDc1oNIO-AXtO3mP7FvJeT7bA9tLp-sc9Via9NuNn_hglGMUl7Rkaid5CFMybqRko6PM59YP_-_Z9P_5ATEwodXzamPaw8Al6L6Selqiq_L5VBfXCyekXSitSI5p2i8iPNmfq5qSWqFNuI7sy94wIoRyjNWqxHHQRGKTVcFYjSsoxG_z_Cop-a80CXJtklu1]--></g></svg>