<svg xmlns="http://www.w3.org/2000/svg" xmlns:xlink="http://www.w3.org/1999/xlink" contentStyleType="text/css" height="1119px" preserveAspectRatio="none" style="width:1899px;height:1119px;background:#FFFFFF;" version="1.1" viewBox="0 0 1899 1119" width="1899px" zoomAndPan="magnify"><title>DS14 &#8212; Gestion des services sp&#233;cialis&#233;s (num&#233;ros, zones, mode d'int&#233;gration)</title><defs/><g><text fill="#000000" font-family="sans-serif" font-size="14" font-weight="bold" lengthAdjust="spacing" textLength="622.5352" x="639.6892" y="27.9951">DS14 &#8212; Gestion des services sp&#233;cialis&#233;s (num&#233;ros, zones, mode d'int&#233;gration)</text><rect fill="none" height="61.3984" style="stroke:#000000;stroke-width:1.5;" width="582.9565" x="10" y="412.9219"/><rect fill="none" height="309.2656" style="stroke:#000000;stroke-width:1.5;" width="1882.9136" x="10" y="646.9844"/><line style="stroke:#181818;stroke-width:0.5;stroke-dasharray:5.0,5.0;" x1="75" x2="75" y1="118.5938" y2="1038.6484"/><line style="stroke:#181818;stroke-width:0.5;stroke-dasharray:5.0,5.0;" x1="518.5298" x2="518.5298" y1="118.5938" y2="1038.6484"/><line style="stroke:#181818;stroke-width:0.5;stroke-dasharray:5.0,5.0;" x1="749.5195" x2="749.5195" y1="118.5938" y2="1038.6484"/><line style="stroke:#181818;stroke-width:0.5;stroke-dasharray:5.0,5.0;" x1="1079.6143" x2="1079.6143" y1="118.5938" y2="1038.6484"/><line style="stroke:#181818;stroke-width:0.5;stroke-dasharray:5.0,5.0;" x1="1222.7842" x2="1222.7842" y1="118.5938" y2="1038.6484"/><line style="stroke:#181818;stroke-width:0.5;stroke-dasharray:5.0,5.0;" x1="1623.394" x2="1623.394" y1="118.5938" y2="1038.6484"/><line style="stroke:#181818;stroke-width:0.5;stroke-dasharray:5.0,5.0;" x1="1819.7036" x2="1819.7036" y1="118.5938" y2="1038.6484"/><text fill="#000000" font-family="sans-serif" font-size="14" lengthAdjust="spacing" textLength="104.6035" x="20" y="115.292">Administrateur</text><ellipse cx="75.3018" cy="50.7969" fill="#E2E2F0" rx="8" ry="8" style="stroke:#181818;stroke-width:0.5;"/><path d="M75.3018,58.7969 L75.3018,85.7969 M62.3018,66.7969 L88.3018,66.7969 M75.3018,85.7969 L62.3018,100.7969 M75.3018,85.7969 L88.3018,100.7969 " fill="none" style="stroke:#181818;stroke-width:0.5;"/><text fill="#000000" font-family="sans-serif" font-size="14" lengthAdjust="spacing" textLength="104.6035" x="20" y="1050.6436">Administrateur</text><ellipse cx="75.3018" cy="1062.4453" fill="#E2E2F0" rx="8" ry="8" style="stroke:#181818;stroke-width:0.5;"/><path d="M75.3018,1070.4453 L75.3018,1097.4453 M62.3018,1078.4453 L88.3018,1078.4453 M75.3018,1097.4453 L62.3018,1112.4453 M75.3018,1097.4453 L88.3018,1112.4453 " fill="none" style="stroke:#181818;stroke-width:0.5;"/><rect fill="#E2E2F0" height="46.5938" rx="2.5" ry="2.5" style="stroke:#181818;stroke-width:0.5;" width="128.4268" x="454.5298" y="71"/><text fill="#000000" font-family="sans-serif" font-size="14" lengthAdjust="spacing" textLength="114.0166" x="461.7349" y="90.9951">Application Web</text><text fill="#000000" font-family="sans-serif" font-size="14" lengthAdjust="spacing" textLength="114.4268" x="461.5298" y="107.292">d'administration</text><rect fill="#E2E2F0" height="46.5938" rx="2.5" ry="2.5" style="stroke:#181818;stroke-width:0.5;" width="128.4268" x="454.5298" y="1037.6484"/><text fill="#000000" font-family="sans-serif" font-size="14" lengthAdjust="spacing" textLength="114.0166" x="461.7349" y="1057.6436">Application Web</text><text fill="#000000" font-family="sans-serif" font-size="14" lengthAdjust="spacing" textLength="114.4268" x="461.5298" y="1073.9404">d'administration</text><rect fill="#E2E2F0" height="46.5938" rx="2.5" ry="2.5" style="stroke:#181818;stroke-width:0.5;" width="105.916" x="697.5195" y="71"/><text fill="#000000" font-family="sans-serif" font-size="14" lengthAdjust="spacing" textLength="91.916" x="704.5195" y="90.9951">API CamAlert</text><text fill="#000000" font-family="sans-serif" font-size="14" lengthAdjust="spacing" textLength="71.2852" x="714.835" y="107.292">(Backend)</text><rect fill="#E2E2F0" height="46.5938" rx="2.5" ry="2.5" style="stroke:#181818;stroke-width:0.5;" width="105.916" x="697.5195" y="1037.6484"/><text fill="#000000" font-family="sans-serif" font-size="14" lengthAdjust="spacing" textLength="91.916" x="704.5195" y="1057.6436">API CamAlert</text><text fill="#000000" font-family="sans-serif" font-size="14" lengthAdjust="spacing" textLength="71.2852" x="714.835" y="1073.9404">(Backend)</text><rect fill="#E2E2F0" height="30.2969" rx="2.5" ry="2.5" style="stroke:#181818;stroke-width:0.5;" width="102.1699" x="1028.6143" y="87.2969"/><text fill="#000000" font-family="sans-serif" font-size="14" lengthAdjust="spacing" textLength="88.1699" x="1035.6143" y="107.292">Module Auth</text><rect fill="#E2E2F0" height="30.2969" rx="2.5" ry="2.5" style="stroke:#181818;stroke-width:0.5;" width="102.1699" x="1028.6143" y="1037.6484"/><text fill="#000000" font-family="sans-serif" font-size="14" lengthAdjust="spacing" textLength="88.1699" x="1035.6143" y="1057.6436">Module Auth</text><rect fill="#E2E2F0" height="46.5938" rx="2.5" ry="2.5" style="stroke:#181818;stroke-width:0.5;" width="164.3496" x="1140.7842" y="71"/><text fill="#000000" font-family="sans-serif" font-size="14" lengthAdjust="spacing" textLength="114.3926" x="1165.7627" y="90.9951">Module Services</text><text fill="#000000" font-family="sans-serif" font-size="14" lengthAdjust="spacing" textLength="150.3496" x="1147.7842" y="107.292">sp&#233;cialis&#233;s (Services)</text><rect fill="#E2E2F0" height="46.5938" rx="2.5" ry="2.5" style="stroke:#181818;stroke-width:0.5;" width="164.3496" x="1140.7842" y="1037.6484"/><text fill="#000000" font-family="sans-serif" font-size="14" lengthAdjust="spacing" textLength="114.3926" x="1165.7627" y="1057.6436">Module Services</text><text fill="#000000" font-family="sans-serif" font-size="14" lengthAdjust="spacing" textLength="150.3496" x="1147.7842" y="1073.9404">sp&#233;cialis&#233;s (Services)</text><rect fill="#E2E2F0" height="30.2969" rx="2.5" ry="2.5" style="stroke:#181818;stroke-width:0.5;" width="106.0732" x="1570.394" y="87.2969"/><text fill="#000000" font-family="sans-serif" font-size="14" lengthAdjust="spacing" textLength="92.0732" x="1577.394" y="107.292">Module Audit</text><rect fill="#E2E2F0" height="30.2969" rx="2.5" ry="2.5" style="stroke:#181818;stroke-width:0.5;" width="106.0732" x="1570.394" y="1037.6484"/><text fill="#000000" font-family="sans-serif" font-size="14" lengthAdjust="spacing" textLength="92.0732" x="1577.394" y="1057.6436">Module Audit</text><text fill="#000000" font-family="sans-serif" font-size="14" lengthAdjust="spacing" textLength="120.21" x="1756.7036" y="115.292">Base de donn&#233;es</text><path d="M1801.8086,66.2969 C1801.8086,56.2969 1819.8086,56.2969 1819.8086,56.2969 C1819.8086,56.2969 1837.8086,56.2969 1837.8086,66.2969 L1837.8086,92.2969 C1837.8086,102.2969 1819.8086,102.2969 1819.8086,102.2969 C1819.8086,102.2969 1801.8086,102.2969 1801.8086,92.2969 L1801.8086,66.2969 " fill="#E2E2F0" style="stroke:#181818;stroke-width:1.5;"/><path d="M1801.8086,66.2969 C1801.8086,76.2969 1819.8086,76.2969 1819.8086,76.2969 C1819.8086,76.2969 1837.8086,76.2969 1837.8086,66.2969 " fill="none" style="stroke:#181818;stroke-width:1.5;"/><text fill="#000000" font-family="sans-serif" font-size="14" lengthAdjust="spacing" textLength="120.21" x="1756.7036" y="1050.6436">Base de donn&#233;es</text><path d="M1801.8086,1063.9453 C1801.8086,1053.9453 1819.8086,1053.9453 1819.8086,1053.9453 C1819.8086,1053.9453 1837.8086,1053.9453 1837.8086,1063.9453 L1837.8086,1089.9453 C1837.8086,1099.9453 1819.8086,1099.9453 1819.8086,1099.9453 C1819.8086,1099.9453 1801.8086,1099.9453 1801.8086,1089.9453 L1801.8086,1063.9453 " fill="#E2E2F0" style="stroke:#181818;stroke-width:1.5;"/><path d="M1801.8086,1063.9453 C1801.8086,1073.9453 1819.8086,1073.9453 1819.8086,1073.9453 C1819.8086,1073.9453 1837.8086,1073.9453 1837.8086,1063.9453 " fill="none" style="stroke:#181818;stroke-width:1.5;"/><polygon fill="#181818" points="506.7432,145.7266,516.7432,149.7266,506.7432,153.7266,510.7432,149.7266" style="stroke:#181818;stroke-width:1.0;"/><line style="stroke:#181818;stroke-width:1.0;" x1="75.3018" x2="512.7432" y1="149.7266" y2="149.7266"/><text fill="#000000" font-family="sans-serif" font-size="13" font-weight="bold" lengthAdjust="spacing" textLength="9.0454" x="82.3018" y="144.6606">1</text><text fill="#000000" font-family="sans-serif" font-size="13" lengthAdjust="spacing" textLength="197.2788" x="95.3472" y="144.6606">Ouvre &#171; Services sp&#233;cialis&#233;s &#187;</text><polygon fill="#181818" points="738.4775,174.8594,748.4775,178.8594,738.4775,182.8594,742.4775,178.8594" style="stroke:#181818;stroke-width:1.0;"/><line style="stroke:#181818;stroke-width:1.0;" x1="518.7432" x2="744.4775" y1="178.8594" y2="178.8594"/><text fill="#000000" font-family="sans-serif" font-size="13" font-weight="bold" lengthAdjust="spacing" textLength="9.0454" x="525.7432" y="173.7935">2</text><text fill="#000000" font-family="sans-serif" font-size="13" lengthAdjust="spacing" textLength="97.3984" x="538.7886" y="173.7935">listerServices()</text><polygon fill="#181818" points="1210.959,203.9922,1220.959,207.9922,1210.959,211.9922,1214.959,207.9922" style="stroke:#181818;stroke-width:1.0;"/><line style="stroke:#181818;stroke-width:1.0;" x1="750.4775" x2="1216.959" y1="207.9922" y2="207.9922"/><text fill="#000000" font-family="sans-serif" font-size="13" font-weight="bold" lengthAdjust="spacing" textLength="9.0454" x="757.4775" y="202.9263">3</text><text fill="#000000" font-family="sans-serif" font-size="13" lengthAdjust="spacing" textLength="42.5801" x="770.5229" y="202.9263">lister()</text><polygon fill="#181818" points="1807.8086,233.125,1817.8086,237.125,1807.8086,241.125,1811.8086,237.125" style="stroke:#181818;stroke-width:1.0;"/><line style="stroke:#181818;stroke-width:1.0;" x1="1222.959" x2="1813.8086" y1="237.125" y2="237.125"/><text fill="#000000" font-family="sans-serif" font-size="13" font-weight="bold" lengthAdjust="spacing" textLength="9.0454" x="1229.959" y="232.0591">4</text><text fill="#000000" font-family="sans-serif" font-size="13" lengthAdjust="spacing" textLength="54.6152" x="1243.0044" y="232.0591">Requ&#234;te</text><polygon fill="#181818" points="1233.959,262.2578,1223.959,266.2578,1233.959,270.2578,1229.959,266.2578" style="stroke:#181818;stroke-width:1.0;"/><line style="stroke:#181818;stroke-width:1.0;stroke-dasharray:2.0,2.0;" x1="1227.959" x2="1818.8086" y1="266.2578" y2="266.2578"/><text fill="#000000" font-family="sans-serif" font-size="13" font-weight="bold" lengthAdjust="spacing" textLength="9.0454" x="1239.959" y="261.1919">5</text><text fill="#000000" font-family="sans-serif" font-size="13" lengthAdjust="spacing" textLength="53.3394" x="1253.0044" y="261.1919">services</text><polygon fill="#181818" points="761.4775,291.3906,751.4775,295.3906,761.4775,299.3906,757.4775,295.3906" style="stroke:#181818;stroke-width:1.0;"/><line style="stroke:#181818;stroke-width:1.0;stroke-dasharray:2.0,2.0;" x1="755.4775" x2="1221.959" y1="295.3906" y2="295.3906"/><text fill="#000000" font-family="sans-serif" font-size="13" font-weight="bold" lengthAdjust="spacing" textLength="9.0454" x="767.4775" y="290.3247">6</text><text fill="#000000" font-family="sans-serif" font-size="13" lengthAdjust="spacing" textLength="53.3394" x="780.5229" y="290.3247">services</text><polygon fill="#181818" points="529.7432,320.5234,519.7432,324.5234,529.7432,328.5234,525.7432,324.5234" style="stroke:#181818;stroke-width:1.0;"/><line style="stroke:#181818;stroke-width:1.0;stroke-dasharray:2.0,2.0;" x1="523.7432" x2="749.4775" y1="324.5234" y2="324.5234"/><text fill="#000000" font-family="sans-serif" font-size="13" font-weight="bold" lengthAdjust="spacing" textLength="9.0454" x="535.7432" y="319.4575">7</text><text fill="#000000" font-family="sans-serif" font-size="13" lengthAdjust="spacing" textLength="53.3394" x="548.7886" y="319.4575">services</text><polygon fill="#181818" points="86.3018,349.6563,76.3018,353.6563,86.3018,357.6563,82.3018,353.6563" style="stroke:#181818;stroke-width:1.0;"/><line style="stroke:#181818;stroke-width:1.0;stroke-dasharray:2.0,2.0;" x1="80.3018" x2="517.7432" y1="353.6563" y2="353.6563"/><text fill="#000000" font-family="sans-serif" font-size="13" font-weight="bold" lengthAdjust="spacing" textLength="9.0454" x="92.3018" y="348.5903">8</text><text fill="#000000" font-family="sans-serif" font-size="13" lengthAdjust="spacing" textLength="91.9775" x="105.3472" y="348.5903">Affiche la liste</text><polygon fill="#181818" points="506.7432,393.9219,516.7432,397.9219,506.7432,401.9219,510.7432,397.9219" style="stroke:#181818;stroke-width:1.0;"/><line style="stroke:#181818;stroke-width:1.0;" x1="75.3018" x2="512.7432" y1="397.9219" y2="397.9219"/><text fill="#000000" font-family="sans-serif" font-size="13" font-weight="bold" lengthAdjust="spacing" textLength="9.0454" x="82.3018" y="385.2896">9</text><text fill="#000000" font-family="sans-serif" font-size="13" lengthAdjust="spacing" textLength="406.396" x="95.3472" y="377.7231">Cr&#233;e ou modifie un service : nom, type, num&#233;ro de t&#233;l&#233;phone,</text><text fill="#000000" font-family="sans-serif" font-size="13" lengthAdjust="spacing" textLength="305.1318" x="95.3472" y="392.856">zone d'intervention, statut, mode d'int&#233;gration</text><path d="M10,412.9219 L79.4512,412.9219 L79.4512,420.0547 L69.4512,430.0547 L10,430.0547 L10,412.9219 " fill="#EEEEEE" style="stroke:#000000;stroke-width:1.5;"/><rect fill="none" height="61.3984" style="stroke:#000000;stroke-width:1.5;" width="582.9565" x="10" y="412.9219"/><text fill="#000000" font-family="sans-serif" font-size="13" font-weight="bold" lengthAdjust="spacing" textLength="24.4512" x="25" y="425.9888">opt</text><text fill="#000000" font-family="sans-serif" font-size="11" font-weight="bold" lengthAdjust="spacing" textLength="282.5034" x="94.4512" y="425.1323">[mode d'int&#233;gration = PARTENAIRE_INTEGRE]</text><polygon fill="#181818" points="506.7432,462.3203,516.7432,466.3203,506.7432,470.3203,510.7432,466.3203" style="stroke:#181818;stroke-width:1.0;"/><line style="stroke:#181818;stroke-width:1.0;" x1="75.3018" x2="512.7432" y1="466.3203" y2="466.3203"/><text fill="#000000" font-family="sans-serif" font-size="13" font-weight="bold" lengthAdjust="spacing" textLength="18.0908" x="82.3018" y="453.688">10</text><text fill="#000000" font-family="sans-serif" font-size="13" lengthAdjust="spacing" textLength="261.5869" x="104.3926" y="446.1216">Renseigne la configuration d'int&#233;gration</text><text fill="#000000" font-family="sans-serif" font-size="13" lengthAdjust="spacing" textLength="302.7451" x="104.3926" y="461.2544">(interface, authentification, format d'&#233;change)</text><polygon fill="#181818" points="738.4775,498.4531,748.4775,502.4531,738.4775,506.4531,742.4775,502.4531" style="stroke:#181818;stroke-width:1.0;"/><line style="stroke:#181818;stroke-width:1.0;" x1="518.7432" x2="744.4775" y1="502.4531" y2="502.4531"/><text fill="#000000" font-family="sans-serif" font-size="13" font-weight="bold" lengthAdjust="spacing" textLength="18.0908" x="525.7432" y="497.3872">11</text><text fill="#000000" font-family="sans-serif" font-size="13" lengthAdjust="spacing" textLength="185.6436" x="547.834" y="497.3872">enregistrerService(donn&#233;es)</text><polygon fill="#181818" points="1067.6992,527.5859,1077.6992,531.5859,1067.6992,535.5859,1071.6992,531.5859" style="stroke:#181818;stroke-width:1.0;"/><line style="stroke:#181818;stroke-width:1.0;" x1="750.4775" x2="1073.6992" y1="531.5859" y2="531.5859"/><text fill="#000000" font-family="sans-serif" font-size="13" font-weight="bold" lengthAdjust="spacing" textLength="18.0908" x="757.4775" y="526.52">12</text><text fill="#000000" font-family="sans-serif" font-size="13" lengthAdjust="spacing" textLength="283.1309" x="779.5684" y="526.52">v&#233;rifierPermission(jeton, GERER_SERVICES)</text><polygon fill="#181818" points="761.4775,556.7188,751.4775,560.7188,761.4775,564.7188,757.4775,560.7188" style="stroke:#181818;stroke-width:1.0;"/><line style="stroke:#181818;stroke-width:1.0;stroke-dasharray:2.0,2.0;" x1="755.4775" x2="1078.6992" y1="560.7188" y2="560.7188"/><text fill="#000000" font-family="sans-serif" font-size="13" font-weight="bold" lengthAdjust="spacing" textLength="18.0908" x="767.4775" y="555.6528">13</text><text fill="#000000" font-family="sans-serif" font-size="13" lengthAdjust="spacing" textLength="59.8076" x="789.5684" y="555.6528">accord&#233;e</text><polygon fill="#181818" points="1210.959,585.8516,1220.959,589.8516,1210.959,593.8516,1214.959,589.8516" style="stroke:#181818;stroke-width:1.0;"/><line style="stroke:#181818;stroke-width:1.0;" x1="750.4775" x2="1216.959" y1="589.8516" y2="589.8516"/><text fill="#000000" font-family="sans-serif" font-size="13" font-weight="bold" lengthAdjust="spacing" textLength="18.0908" x="757.4775" y="584.7856">14</text><text fill="#000000" font-family="sans-serif" font-size="13" lengthAdjust="spacing" textLength="123.4175" x="779.5684" y="584.7856">configurer(service)</text><line style="stroke:#181818;stroke-width:1.0;" x1="1222.959" x2="1264.959" y1="618.9844" y2="618.9844"/><line style="stroke:#181818;stroke-width:1.0;" x1="1264.959" x2="1264.959" y1="618.9844" y2="631.9844"/><line style="stroke:#181818;stroke-width:1.0;" x1="1223.959" x2="1264.959" y1="631.9844" y2="631.9844"/><polygon fill="#181818" points="1233.959,627.9844,1223.959,631.9844,1233.959,635.9844,1229.959,631.9844" style="stroke:#181818;stroke-width:1.0;"/><text fill="#000000" font-family="sans-serif" font-size="13" font-weight="bold" lengthAdjust="spacing" textLength="18.0908" x="1229.959" y="613.9185">15</text><text fill="#000000" font-family="sans-serif" font-size="13" lengthAdjust="spacing" textLength="364.3809" x="1252.0498" y="613.9185">Valide les donn&#233;es (num&#233;ro, zone, coh&#233;rence du mode)</text><path d="M10,646.9844 L74.4429,646.9844 L74.4429,654.1172 L64.4429,664.1172 L10,664.1172 L10,646.9844 " fill="#EEEEEE" style="stroke:#000000;stroke-width:1.5;"/><rect fill="none" height="309.2656" style="stroke:#000000;stroke-width:1.5;" width="1882.9136" x="10" y="646.9844"/><text fill="#000000" font-family="sans-serif" font-size="13" font-weight="bold" lengthAdjust="spacing" textLength="19.4429" x="25" y="660.0513">alt</text><text fill="#000000" font-family="sans-serif" font-size="11" font-weight="bold" lengthAdjust="spacing" textLength="110.4619" x="89.4429" y="659.1948">[donn&#233;es valides]</text><polygon fill="#181818" points="1807.8086,696.3828,1817.8086,700.3828,1807.8086,704.3828,1811.8086,700.3828" style="stroke:#181818;stroke-width:1.0;"/><line style="stroke:#181818;stroke-width:1.0;" x1="1222.959" x2="1813.8086" y1="700.3828" y2="700.3828"/><text fill="#000000" font-family="sans-serif" font-size="13" font-weight="bold" lengthAdjust="spacing" textLength="18.0908" x="1229.959" y="687.7505">16</text><text fill="#000000" font-family="sans-serif" font-size="13" lengthAdjust="spacing" textLength="304.9795" x="1252.0498" y="680.1841">Enregistre ServiceSpecialise, ZoneIntervention</text><text fill="#000000" font-family="sans-serif" font-size="13" lengthAdjust="spacing" textLength="272.4858" x="1252.0498" y="695.3169">et ConfigurationIntegration (si applicable)</text><polygon fill="#181818" points="1611.4307,725.5156,1621.4307,729.5156,1611.4307,733.5156,1615.4307,729.5156" style="stroke:#181818;stroke-width:1.0;"/><line style="stroke:#181818;stroke-width:1.0;" x1="1222.959" x2="1617.4307" y1="729.5156" y2="729.5156"/><text fill="#000000" font-family="sans-serif" font-size="13" font-weight="bold" lengthAdjust="spacing" textLength="18.0908" x="1229.959" y="724.4497">17</text><text fill="#000000" font-family="sans-serif" font-size="13" lengthAdjust="spacing" textLength="325.5396" x="1252.0498" y="724.4497">tracer(acteur, CONFIGURATION_SERVICE, service)</text><polygon fill="#181818" points="1807.8086,754.6484,1817.8086,758.6484,1807.8086,762.6484,1811.8086,758.6484" style="stroke:#181818;stroke-width:1.0;"/><line style="stroke:#181818;stroke-width:1.0;" x1="1623.4307" x2="1813.8086" y1="758.6484" y2="758.6484"/><text fill="#000000" font-family="sans-serif" font-size="13" font-weight="bold" lengthAdjust="spacing" textLength="18.0908" x="1630.4307" y="753.5825">18</text><text fill="#000000" font-family="sans-serif" font-size="13" lengthAdjust="spacing" textLength="150.2871" x="1652.5215" y="753.5825">Enregistre JournalAudit</text><polygon fill="#181818" points="761.4775,783.7813,751.4775,787.7813,761.4775,791.7813,757.4775,787.7813" style="stroke:#181818;stroke-width:1.0;"/><line style="stroke:#181818;stroke-width:1.0;stroke-dasharray:2.0,2.0;" x1="755.4775" x2="1221.959" y1="787.7813" y2="787.7813"/><text fill="#000000" font-family="sans-serif" font-size="13" font-weight="bold" lengthAdjust="spacing" textLength="18.0908" x="767.4775" y="782.7153">19</text><text fill="#000000" font-family="sans-serif" font-size="13" lengthAdjust="spacing" textLength="117.3555" x="789.5684" y="782.7153">service enregistr&#233;</text><polygon fill="#181818" points="529.7432,812.9141,519.7432,816.9141,529.7432,820.9141,525.7432,816.9141" style="stroke:#181818;stroke-width:1.0;"/><line style="stroke:#181818;stroke-width:1.0;stroke-dasharray:2.0,2.0;" x1="523.7432" x2="749.4775" y1="816.9141" y2="816.9141"/><text fill="#000000" font-family="sans-serif" font-size="13" font-weight="bold" lengthAdjust="spacing" textLength="18.0908" x="535.7432" y="811.8481">20</text><text fill="#000000" font-family="sans-serif" font-size="13" lengthAdjust="spacing" textLength="44.0781" x="557.834" y="811.8481">succ&#232;s</text><polygon fill="#181818" points="86.3018,842.0469,76.3018,846.0469,86.3018,850.0469,82.3018,846.0469" style="stroke:#181818;stroke-width:1.0;"/><line style="stroke:#181818;stroke-width:1.0;stroke-dasharray:2.0,2.0;" x1="80.3018" x2="517.7432" y1="846.0469" y2="846.0469"/><text fill="#000000" font-family="sans-serif" font-size="13" font-weight="bold" lengthAdjust="spacing" textLength="18.0908" x="92.3018" y="840.981">21</text><text fill="#000000" font-family="sans-serif" font-size="13" lengthAdjust="spacing" textLength="151.7344" x="114.3926" y="840.981">Confirme la mise &#224; jour</text><line style="stroke:#000000;stroke-width:1.0;stroke-dasharray:2.0,2.0;" x1="10" x2="1892.9136" y1="855.0469" y2="855.0469"/><text fill="#000000" font-family="sans-serif" font-size="11" font-weight="bold" lengthAdjust="spacing" textLength="122.0635" x="15" y="865.2573">[donn&#233;es invalides]</text><polygon fill="#181818" points="761.4775,885.9844,751.4775,889.9844,761.4775,893.9844,757.4775,889.9844" style="stroke:#181818;stroke-width:1.0;"/><line style="stroke:#181818;stroke-width:1.0;stroke-dasharray:2.0,2.0;" x1="755.4775" x2="1221.959" y1="889.9844" y2="889.9844"/><text fill="#000000" font-family="sans-serif" font-size="13" font-weight="bold" lengthAdjust="spacing" textLength="18.0908" x="767.4775" y="884.9185">22</text><text fill="#000000" font-family="sans-serif" font-size="13" lengthAdjust="spacing" textLength="128.7876" x="789.5684" y="884.9185">erreur de validation</text><polygon fill="#181818" points="529.7432,915.1172,519.7432,919.1172,529.7432,923.1172,525.7432,919.1172" style="stroke:#181818;stroke-width:1.0;"/><line style="stroke:#181818;stroke-width:1.0;stroke-dasharray:2.0,2.0;" x1="523.7432" x2="749.4775" y1="919.1172" y2="919.1172"/><text fill="#000000" font-family="sans-serif" font-size="13" font-weight="bold" lengthAdjust="spacing" textLength="18.0908" x="535.7432" y="914.0513">23</text><text fill="#000000" font-family="sans-serif" font-size="13" lengthAdjust="spacing" textLength="40.2695" x="557.834" y="914.0513">erreur</text><polygon fill="#181818" points="86.3018,944.25,76.3018,948.25,86.3018,952.25,82.3018,948.25" style="stroke:#181818;stroke-width:1.0;"/><line style="stroke:#181818;stroke-width:1.0;stroke-dasharray:2.0,2.0;" x1="80.3018" x2="517.7432" y1="948.25" y2="948.25"/><text fill="#000000" font-family="sans-serif" font-size="13" font-weight="bold" lengthAdjust="spacing" textLength="18.0908" x="92.3018" y="943.1841">24</text><text fill="#000000" font-family="sans-serif" font-size="13" lengthAdjust="spacing" textLength="138.6392" x="114.3926" y="943.1841">Demande de corriger</text><path d="M1152,968.25 L1152,1023.25 L1889,1023.25 L1889,978.25 L1879,968.25 L1152,968.25 " fill="#FEFFDD" style="stroke:#181818;stroke-width:0.5;"/><path d="M1879,968.25 L1879,978.25 L1889,978.25 L1879,968.25 " fill="#FEFFDD" style="stroke:#181818;stroke-width:0.5;"/><text fill="#000000" font-family="sans-serif" font-size="13" lengthAdjust="spacing" textLength="404.4028" x="1306.1033" y="985.3169">Les num&#233;ros et informations enregistr&#233;s ici alimentent la liste</text><text fill="#000000" font-family="sans-serif" font-size="13" lengthAdjust="spacing" textLength="419.9229" x="1306.1033" y="1000.4497">affich&#233;e par &#171; Appeler un service &#187; (DS09) et le choix du service</text><text fill="#000000" font-family="sans-serif" font-size="13" lengthAdjust="spacing" textLength="204.5088" x="1306.1033" y="1015.5825">lors d'une transmission (DS08).</text><!--SRC=[TLNRRkj457ttLsprfOdaWq3Y0Ig1b2Qc1D6Bd9v6Gf6EflPsCkVOCsPcd0CyyH5y08y4Fk6yrN_2bx36jpXHaQgssRFlQ-qL9rtEj5XzyINz-_iVTCFMIQqePKkMpLuc_f-oFYHIvDBM1qiJLHNrmMWRqczQCVuKEcLABwLozM5hX4ym3KJbD3oVsGJsWrIbCA8WknEf_YZLbZAHMnw_yCyLguHlsLgnvLakjufopbmGYCHfGnUpj91AMeS2N9aB4fPcYzi0uKuciXJAmQSiSvaq7T2QdpSglHJ7C5YRiFLPqCEIvgAOvMpSHaskHVA1LJfjApmiJvrlTLfXORFAxLg7ju_Vl-gnwhQtKMVhwn_Q0gluwNyAfD9r5HP1Afnu5fRfujh_zklMIjK7jetBuZe8i0jwyosjwOhkgxrXUlbdwE4CmPTFmThx-i6l24R7fdUTJ0DlnYiw6rvXzHzXNLp360Ei-c_70Jwz6LnxlhIkG_x1tEJjMXoCwzOJpL_HBCjaicFAHLlsPAYvmRYaAyyscKccIlLPyAfq4PBxjUIGEdhw9O6FUNqeTw1fk56UhIrD4SRAqo4awuIhtAiS3dJfNhFJD_GmYn-ZkzaoZjujxnwZcpWAY4RDngmiWy7DB8bMcTnMNV1fBl2jwISJ2Lh7pUnyOrd7uP0oRGhX40JyTa9jUHg0csFuM1dUUduF64vwRWnGUfB2TO-z-DMP1pQ5j1OL9k_P-JetKHp5xrPH_BISHoi4-eWZXY99j4cHyvGS_MGWI0V5m9FMuGcKm_voKB1lQj2FLZv29DdXexzzIXjqaKJaxXYmRv9OR7ZCmMYOkwVvgkIMuqZw4r8lHq1l53kQZu7mhpsW4oj9jDBndAFyK0ctXrBGZWGZGeSWF27Dx- - -MzwyZMUFo_kxVcSX3HkW9koLFd_GbL4YRqwxht5-9aSywuFFDBwPAadgl_mUnaVJ36MAXca0bQd-azwZKC2vFSe4INMsnYE1ZC5O_bmQZvRwfvLRbxF22ow4IXin0ZcCt4BfFJS3fHqETS_65mgzE17zY1Rwxmq255Arp4OjEnuPZIR08fS5SCFFKGk8H2CFNWKWc5xUeFOCqHuhmSidcYnMdtyzzKKWeybEoryyhpe7fCcr0HilAnmdW5MskuGcxglfPtu6yYFy1m00]--></g></svg>